<?xml version="1.0" encoding="UTF-8" standalone="no"?>
<svg
   xmlns:dc="http://purl.org/dc/elements/1.1/"
   xmlns:cc="http://creativecommons.org/ns#"
   xmlns:rdf="http://www.w3.org/1999/02/22-rdf-syntax-ns#"
   xmlns:svg="http://www.w3.org/2000/svg"
   xmlns="http://www.w3.org/2000/svg"
   id="svg8"
   version="1.1"
   viewBox="0 0 210 297"
   height="297mm"
   width="210mm">
  <defs
     id="defs2" />
  <metadata
     id="metadata5">
    <rdf:RDF>
      <cc:Work
         rdf:about="">
        <dc:format>image/svg+xml</dc:format>
        <dc:type
           rdf:resource="http://purl.org/dc/dcmitype/StillImage" />
        <dc:title></dc:title>
      </cc:Work>
    </rdf:RDF>
  </metadata>
  <g
     id="layer1">
    <path
       id="path10"
       d=" M -70.04182204040937,0.8084924956818946 -71.12367849201665,1.6157602463995857 -73.80238651618399,2.4376036420988663 -78.74857476065729,3.2996303881967712 -80.05503448586664,4.036423275962164 -80.75468166108968,4.744743282164689 -80.69061409965681,5.414603029823907 -80.61249147085462,6.083719566374591 -79.91109893676914,6.713725054129277 -79.02263999359022,7.3329549294047816 -78.09302218681118,7.952018553357458 -77.12004308925144,8.57027849237564 -76.10133779746972,9.187005526037964 -75.03436427850816,9.801365428323718 -73.91638716989029,10.41240359152001 -72.7444598560376,11.019027084612807 -71.51540462572959,11.619983648160199 -70.22579069633575,12.213837014935283 -68.87190987230764,12.798937803216802 -69.95759361080509,13.806922310459457 -71.33049346735338,14.865893626490722 -72.6137114728139,15.904147450271767 -73.81428264111587,16.921663406968584 -74.93853608718733,17.918562573157153 -75.99218006685976,18.89507329259222 -76.98037514548925,19.851504498121848 -77.90779736004339,20.788224828349946 -78.77869291767193,21.70564624460788 -79.59692571164013,22.604211161584224 -80.36601872139654,23.484382334251464 -81.08919018819967,24.346634915985046 -81.76938531367963,25.191450233181502 -82.40930411001249,26.019310921123495 -83.0114259322465,26.83069714216276 -83.57803114193143,27.6260836662345 -84.1112202834686,28.40593763949035 -84.61293109806779,29.17071690257609 -85.0849536528481,29.92086874811589 -85.52894382285376,30.65682902906223 -85.94643533024616,31.379021547056677 -85.40217476666247,31.75915477643336 -84.68210686614998,32.0790257291545 -83.93699205093922,32.39359721405853 -83.16572230252011,32.702364331370035 -82.3671192365245,33.00477301924868 -81.53992860780741,33.300214739184064 -80.68281429962853,33.58802048972422 -79.79435174188674,33.86745404977737 -78.87302069704717,34.13770433595936 -77.9171973453905,34.397876738430305 -76.92514559347691,34.6469832756541 -75.89500752121714,34.88393137961851 -74.82479287369722,35.10751108814157 -73.71236749395152,35.316380378526105 -73.66602038508698,36.02408525012267 -73.90994585129475,36.86783569226501 -74.13147353986093,37.697609886504374 -74.331612461741,38.513702089316226 -74.51130859561336,39.3164021785215 -74.67144944299099,40.10599505557507 -74.81286819563603,40.88276016927445 -74.93634755270529,41.64697114180712 -75.04262322101427,42.398895480993076 -75.13238712825027,43.13879436504655 -75.20629037582111,43.86692248825495 -74.83610588956215,44.34055959090509 -74.31752005215513,44.72923163816231 -73.78586635541986,45.11181354113435 -73.24090315380548,45.48809446665013 -72.68237783788786,45.857850194428025 -72.11002647424812,46.220842266927484 -72.6375011414158,47.27123026401578 -73.18824026378071,48.32951690893639 -77.463177777679,51.77308737600213 -79.17153259396999,53.501805099056476 -79.25984567155221,54.143848191965645 -79.33510666581292,54.77324987953008 -79.39790455666099,55.39040273833132 -79.29885723883228,55.89386055217889 -78.847009665315,56.153241174660536 -78.38524044182468,56.40775239045017 -77.91332496016756,56.65723979841112 -77.43102837018209,56.901538632267595 -76.93810513774392,57.14047310973309 -76.434298575515,57.37385573039035 -75.91934034476573,57.601486517749805 -76.00846259504969,58.27808260001218 -76.29041450359998,59.094173966510986 -76.54819434201053,59.88508839427565 -76.78344354860882,60.65207195502185 -76.99766175637467,61.396287509722534 -77.19222135268139,62.1188214977559 -77.36838029707147,62.82069008294185 -77.52729343410263,63.502844723815464 -77.59823565667782,64.10886828359307 -77.30043699998573,64.41322160253944 -76.99710690261017,64.71342792801852 -76.69002630365098,65.01096331860543 -76.37712488339476,65.30412150265705 -76.05835732085878,65.59288327853317 -75.73367424041108,65.8772256646031 -75.40302217390692,66.1571217927458 -75.06811428633775,66.43405548242961 -74.72854390445517,66.70768189125597 -74.3828723443735,66.97675738966241 -74.03103260714916,67.24124125089979 -73.6729533736044,67.5010882815392 -73.30855893081248,67.75624866230388 -72.93776909129758,68.00666777703127 -72.56049910477161,68.25228602901984 -72.17927517561372,68.49543773578333 -71.79313354515332,68.73523000647849 -71.40032401255256,68.9700338829725 -71.0007476906168,69.19977258224013 -70.59430071165539,69.42436341021397 -70.1808740998071,69.64371749927051 -69.76035363447977,69.85773952695011 -69.33261970457922,70.06632741457837 -68.8975471531783,70.2693720043387 -68.45777244301311,70.46950909880898 -68.01395127327886,70.66739164150849 -67.56255578158827,70.85943463536391 -67.10344570148715,71.04550605644883 -66.63647460293254,71.22546529344716 -66.1614896908464,71.39916269553945 -65.67833159195231,71.56643908736133 -65.18683412940014,71.72712524843062 -64.68682408465862,71.8810413541948 -64.1802095251649,72.0302593968649 -63.67252473916722,72.18082650184891 -63.1560949795586,72.32421714331959 -62.6307327441334,72.4602218780526 -62.096242781294386,72.58861837499526 -61.552421805341325,72.7091706485342 -60.999058197067825,72.82162823303774 -60.43593168913482,72.92572529359144 -59.862813035690635,73.02117966733184 -59.29273901240799,73.12347647464453 -58.716207961400684,73.2211178129316 -58.12961227880154,73.30968350127965 -57.53271681091146,73.38886003191121 -56.92527706245495,73.45831467742869 -56.30703885137785,73.51769424016916 -55.677737949570876,73.56662370013096 -55.05850896645976,73.63226608041026 -54.43853634218657,73.70042798110335 -53.80798179589121,73.7580627053066 -53.1666036322505,73.80479345538699 -52.514151125114786,73.84022044757637 -51.87609344923011,73.89915152096968 -51.477804033731736,74.29411896696946 -51.073849044807446,74.67998322496283 -50.66429702912421,75.05680812734568 -50.24921111277831,75.42465175871124 -49.82864921697741,75.7835664876309 -49.40266426115497,76.13359899056191 -49.25104824304105,76.89426136880962 -49.20366660511326,77.8064482343276 -49.141653356058725,78.68679311417878 -49.06612432385287,79.53688759624987 -48.97809467389215,80.35821573452469 -48.878489353896484,81.15216288144849 -48.76815229156813,81.92002367180135 -48.744827374265874,82.82134242975432 -48.776771725012715,83.80272291715261 -48.790896263571575,84.74133948471263 -48.78882964225061,85.63994699470358 -48.77202604170914,86.50106385413945 -48.74178685097508,87.32699690757914 -48.699279254097554,88.11986324857781 -48.64555222121219,88.88160938436755 -48.58155031279869,89.61402812007307 -48.52680428317977,90.35221838883758 -48.500344743109736,91.13032265941801 -48.46272294636699,91.87574472923372 -48.41493161415748,92.59051357510494 -48.35786122989987,93.27648970548802 -48.2923121469646,93.9353823614094 -48.21900505346137,94.5687646443052 -48.13859004520717,95.1780868567377 -48.051654515381614,95.76468829776742 -47.958730034687754,96.3298077180927 -47.86029836747835,96.87459260953358 -47.75679674602556,97.40010747791668 -47.65974617191336,97.92932480013995 -47.56661281382427,98.45703049467879 -47.46867953026007,98.96566146436808 -47.366331894287725,99.45622149178207 -47.25992011017582,99.92964273702475 -47.14976263795371,100.38679202484572 -47.036149393753135,100.82847647666074 -46.91934458175263,101.25544856590516 -46.79958920538658,101.66841066458129 -46.677103298631636,102.06801913987131 -46.55208791241376,102.45488805201461 -46.42472688630685,102.82959249808529 -46.29518843156308,103.19267164067307 -46.157465278634305,103.5313473973492 -45.84011874142869,103.4741655091221 -45.51809343017428,103.41119203562288 -45.191243421454246,103.34221495823274 -44.859416413653264,103.26700931381201 -44.52245337352184,103.18533630459748 -44.180188158189345,103.09694233161753 -43.83244711064426,103.00155794399141 -43.47904862651707,102.89889669559503 -43.11980268979829,102.78865389957255 -42.75451037490114,102.67050527003884 -42.38296331223195,102.54410543902681 -42.00494311415937,102.40908633526709 -41.620220757973804,102.26505540971327 -41.22855592209648,102.11159369081591 -40.829696271432226,101.94825365036117 -40.423376687355145,101.77455685818222 -40.00931843737057,101.5899914011692 -39.58722827900355,101.39400903868514 -39.15679749192193,101.18602206266402 -38.71770083170136,100.96539982623489 -38.269595397983075,100.73146489957664 -37.812119409050034,100.48348880573405 -37.34489087405515,100.22068728216048 -36.867506153269375,99.94221500561797 -36.37953839577694,99.64715970852922 -35.88053584302683,99.33453560367423 -35.37001998555941,99.00327602092119 -34.84748355906747,98.65222514407522 -34.31238836473877,98.28012871742324 -33.76416289758113,97.88562356953815 -33.20219976519132,97.46722577562521 -32.625852878246825,97.02331724821245 -32.03443439296194,96.55213050813413 -31.42721138497714,96.0517313420697 -30.80340223382368,95.51999899753663 -30.162172697484188,94.95460349886484 -29.50263165802865,94.35297958533722 -28.823826522384405,93.71229667158472 -28.124738267774987,93.02942410560136 -27.40427613035649,92.30089084510827 -26.661271949707427,91.52283848025634 -25.894474203438385,90.69096628910208 -25.102541798697757,89.80046670778626 -24.28403773577456,88.84594921114042 -23.437422830739315,87.8213501064394 -22.561049790135176,86.71982510938132 -21.653158087673663,85.53362075108929 -20.711870325806178,84.2539195948617 -19.735191112458853,82.8706528341154 -18.721010005039595,81.37227197612604 -17.66711086454954,79.74546881679183 -16.57119117373449,77.97482953227961 -15.430896751981733,76.04240409577807 -14.390002327013491,74.6035348226703 -14.142549889378866,77.04005872907264 -13.865668797442707,79.28301328509187 -13.565667371472774,81.35400775335164 -13.247574981666645,83.27155692104357 -12.915427276788638,85.05161319149265 -12.572480503689029,86.70799324969896 -12.221374425631902,88.25272267388719 -11.86425746871916,89.69631619766646 -11.50288376865478,91.04800713464977 -11.138689079148232,92.31593635495534 -10.772850616373587,93.50730886108282 -10.40633458164875,94.62852424131617 -10.039934151515684,95.68528593233373 -9.674300034539105,96.68269319072733 -9.309965189246201,97.62531887669923 -8.947364924349216,98.51727553443214 -8.586853323815722,99.36227176977648 -8.22871672962921,100.1636605452031 -7.8731848559066115,100.92448071065422 -7.520439986302623,101.64749284907518 -7.170624612861922,102.3352103234478 -6.823847801766148,102.98992625770104 -6.480190514679532,103.61373705899808 -6.139710069851436,104.20856298743784 -5.802443891967053,104.77616619639953 -5.468412671825996,105.31816659886869 -5.137623034663047,105.83605585919214 -4.81006979807871,106.33120976350823 -4.485737886177158,106.80489918375675 -4.164603954888291,107.25829981823799 -3.84663777401244,107.69250086499085 -3.531803403834721,108.10851276186264 -3.2200601978581767,108.50727410829336 -2.911363658035973,108.88965786791728 -2.6056661646211507,109.25647693760291 -2.302917599230189,109.60848915709614 -2.00306587679459,109.94640182367324 -1.7014830404775376,110.12231636803868 -1.3810487012786796,109.56536669890676 -1.054373047110684,108.9768649641278 -0.721244641867014,108.35429866285294 -0.38199246505222045,107.72309252206725 -0.038250434277085,107.18386453369935 0.3109009417938403,106.6167264292012 0.6655921986949014,106.01971058261353 1.025949217039428,105.39065800663026 1.3920910255711505,104.72719462369427 1.764127056831525,104.0267039160818 2.1421537196482574,103.2862952938422 2.5262501160392956,102.50276737787696 2.9185019254385978,101.8405986040343 3.318058201483154,101.2872434484226 3.721656923336009,100.7083023271192 4.129301517562776,100.10226315241756 4.540980591968571,99.46748942079284 4.956665130634429,98.80220727895374 5.376305183340562,98.10449094160589 5.799825950331646,97.37224621106832 6.227123141683115,96.60319180474258 6.658057463488747,95.7948381433461 7.104265259839064,95.15218922995923 7.569289798131674,94.74026868572594 8.035944548839971,94.3119409501287 8.50417071094218,93.86659733142027 8.973899510228206,93.40359405394196 9.445051101078652,92.92224986278624 9.917533341503328,92.42184342611658 10.391240425126915,91.9016105152717 10.86605135145081,91.3607409405401 11.341828212977891,90.7983752179676 11.818414274591445,90.21360093971644 12.295631816846903,89.60544881728391 12.810093565906412,89.26872383130122 13.340017741106191,89.03768959203641 13.869285030373312,88.79505739378469 14.397844367791281,88.54065540016839 14.925640580154287,88.2743018306199 15.452614076557802,87.99580463129114 15.97870051663482,87.70496112400886 16.541186384782712,87.62229195375315 17.10574487635864,87.55243707531841 17.668091232208113,87.47201438107466 18.228207370479872,87.38105845425855 18.786074201286166,87.27959667122998 19.341671484550254,87.16764926984305 19.89497768703802,87.04522940622877 20.463323174434404,86.99291556502597 21.04402135928568,86.9986769102075 21.62126863969796,86.9934889637855 22.195072560669185,86.97749549591727 22.76544044434798,86.95083099618569 23.332379249712478,86.91362095988858 23.89589543829119,86.86598215501331 24.455994845119267,86.80802287085123 25.026556590492834,86.7915712577056 25.603945230868668,86.80353843266812 26.177083675269802,86.80469216759616 26.74600078009858,86.79521224229401 27.31072482383166,86.77526803618412 27.87128338599956,86.74501891433934 28.42770323325106,86.70461458875634 28.980010211617486,86.6541954562815 29.53206776050165,86.60586908994169 30.094407205813685,86.59192139494924 30.65210212559093,86.56777479318997 31.20519417502804,86.53360119420931 31.753723801972395,86.48956246565099 32.297730161474455,86.43581081360391 32.83725103530709,86.37248913842635 33.37232275572803,86.29973136747381 33.90302546265159,86.21778451296916 34.44303568665436,86.16278418165881 34.97828567638561,86.09838210821042 35.50882058226678,86.02472066914046 36.034683806711506,85.94193335123478 36.555916948523034,85.85014506811824 37.07255974945296,85.7494724559528 37.58465004240908,85.64002414943127 38.10047196420692,85.54135610466808 38.6137749895722,85.43904927010661 39.12235819232294,85.32810334259771 39.62626267544563,85.2086236363561 40.12552740303804,85.08070788890817 40.625003747624476,84.95499675587385 41.122507267334036,84.82683014996162 37.925128355534525,76.82824379287023 38.49977549165083,76.6113736220686 39.06874359724791,76.38373534268365 39.632017818360666,76.14539945594046 40.1895805001689,75.89642883576641 40.74141103879735,75.63687889259447 41.28748573098102,75.36679772442027 41.82777762093786,75.08622625564938 42.36225634379226,74.79519836423583 42.89088796489484,74.49374099757715 43.4136348143771,74.18187427760101 43.930455316271974,73.85961159544898 44.44130381151947,73.52695969613588 44.946130374157285,73.18391875353923 45.444880619979024,72.83048243605039 45.937495506915155,72.46663796319896 46.423911126363286,72.09236615354395 46.90405848466164,71.70764146410903 47.37786327385984,71.31243202162484 47.84524563089846,70.90669964583068 48.306119884260845,70.4903998650765 48.76039428710547,70.06348192446056 49.207970735827914,69.62588878673225 49.648744472935675,69.1775571261869 50.082603773044305,68.71841731578166 50.509429610724844,68.24839340770207 50.92411859066502,67.76049881710226 51.3217960945616,67.24820158815763 51.711934046078916,66.72440323760439 52.09435853144938,66.18897838961452 52.468885189984,65.64179475220075 52.83531865759166,65.08271303322502 53.19345197364748,64.51158685194834 53.54306594837358,63.9282626465909 53.883928487654025,63.33257957843709 55.319920623914896,64.05563901899244 56.86261577142028,64.91745170302707 58.32123907360807,65.69513734224705 59.70284386405712,66.39788644586042 61.01370874127416,67.03364058573369 62.04461837755866,67.36723684598962 62.246518742138484,66.78719066262445 62.44033724962166,66.19546835241404 62.6257857435237,65.59180316777906 62.802557931454096,64.9759171713426 62.970328192316366,64.34752080532262 63.12875028684557,63.70631244073705 63.27745596246888,63.05197790601348 63.41605344250509,62.38418999468744 63.54412578863049,61.70260795199653 62.05758714034517,59.410077910488326 59.65499080784147,56.19790842937844 56.74795406523897,52.47364431048359 53.17597455879803,48.09786798394055 49.639342510511675,43.743018432216026 50.88314827136154,43.71179571655191 52.05033072028341,43.613178409277424 53.106526443972555,43.419619213016226 54.13626893932095,43.204494243664065 55.06598988977332,42.90826689375403 55.94268064310762,42.57044411673502 56.79816446396653,42.21689120525676 57.590089110804605,41.815737627754984 58.287119842316606,41.34468358620592 58.966695771468046,40.86159186604503 59.62897657883602,40.366868416240024 60.24088952068555,39.83779228521221 60.728299591657205,39.224695193804344 61.200287083321356,38.60164086309286 61.65681455384522,37.968820861738806 62.09783728873297,37.326419446136796 62.413775550035446,36.60689068885536 62.638581053137976,35.832283814847635 62.846586251049224,35.04751946686977 63.03745936923151,34.252648690656386 63.210851761309875,33.44772370385763 63.131345915760924,32.504617277863176 62.98723831315162,31.52657048190268 62.81670992578353,30.53427027972299 62.618633506468996,29.527652505429142 62.36974004856692,28.495920886138492 62.06948998692991,27.439714236806996 61.735962508916685,26.368246779549317 61.38302703320123,25.288368985088052 61.389947123816576,24.362459147969282 61.37306820711231,23.427071281244277 61.44311590359495,22.526496377335803 61.82503156147758,21.745059745609915 62.18578991345906,20.95596947506254 62.94356446077969,20.306343882114334 63.70195612069938,19.656852052570162 64.84059184382163,19.129976093005798 66.08919779960554,18.637333903028576 67.55814508619561,18.210550130304224 69.3872254876439,17.887177358869682 71.51072487043459,17.646499927413977 73.21383761259854,17.30111676646794 74.68229282145339,16.90160626140248 75.91192772367977,16.449212166938295 76.92736986844433,15.95149756056067 77.90096772775097,15.447949794512349 78.70828641121291,14.912703415831468 79.29898945206718,14.336517127645308 79.86751432770299,13.758128781124942 80.4145240748867,13.177831235600658 80.84661975473176,12.57926907634447 81.02690596674654,11.939860988926368 81.19348106550164,11.298700564318438 81.3464132826336,10.655872718328455 81.48576222863538,10.011459462530954 81.42869714518078,9.340735030616177 81.13415429174262,8.639189590874008 80.82073921886527,7.933811639179554 80.48789469833062,7.2246761531521395 80.135034241397,6.5118689092324065 79.40271997676598,5.761786893137903 78.34748417882388,4.981168488637319 77.23139995063354,4.191979643737753 76.0501410855917,3.394682007771537 74.70162945816236,2.5843035879473732 73.15116100510946,1.760989464116345 71.49680355871797,0.9307416594150347 70.6244105020897,0.1180873716743035 70.04307596714584,-0.6913782731530705 71.12628069462794,-1.4968359825292707 73.80635913361874,-2.3141993085046817 78.75398181165437,-3.1679545992886093 80.06167166161636,-3.90256199740145 80.76250220189125,-4.609711171764486 80.69955476579236,-5.279677106906424 80.62255103928872,-5.9489233326866495 79.92221288330975,-6.580100699796594 79.0347905624205,-7.200815252981768 78.10620915748606,-7.82143237455681 77.13426517858677,-8.441318314358924 76.11659250629768,-9.059747807211561 75.05064771635072,-9.675890878654137 73.93369385394585,-10.288797495957894 72.76278248019352,-10.897379656511038 71.53473379448083,-11.500390415898874 70.24611461746933,-12.096399245325921 68.89321400095338,-12.683762965647025 69.98058161746498,-13.689930751575876 71.35525020278595,-14.74660503668882 72.64020242179913,-15.782711810620496 73.84247324453203,-16.798218935704192 74.96839197951095,-17.793236905780336 76.02366725638907,-18.767984519822758 77.01346014985835,-19.722762081549106 77.94244730673032,-20.65793041050283 78.81487561703703,-21.57389436758912 79.63460970837994,-22.471089906273928 80.4051733290301,-23.349973890302046 81.1297855102253,-24.211016091339793 81.81139225427815,-25.054692910600675 82.45269437657845,-25.88148246815022 83.05617203156176,-26.691860780075338 83.62410637142705,-27.486298802779977 84.1585987187288,-28.26526016955752 84.66158757749834,-29.029199480422907 85.13486376024598,-29.778561034301877 85.58008386846713,-30.513777914839714 85.99878233079468,-31.235271358632833 85.45515812795736,-31.616314084896292 84.73562607269636,-31.937388576556828 83.99103827679966,-32.25320548738172 83.22028587909078,-32.56326177095834 82.42218957043238,-32.867005336532856 81.59549408992885,-33.1638297436 80.7388622041069,-33.45306822569067 79.85086811386186,-33.733986944687736 78.9299902276159,-34.00577736024673 77.97460323209144,-34.26754757887832 76.98296938432573,-34.51831252325416 75.95322894000351,-34.75698273341562 74.88338962388151,-34.98235157666831 73.77131503805474,-35.19308060059795 73.72615130851115,-35.900861977377026 73.97148722262021,-36.74420338566215 74.19440202147862,-37.573606015677875 74.3959052066415,-38.38936243637636 74.57694324015374,-39.19176094345423 74.73840409865576,-39.98108495402551 74.88112143999608,-40.757612523362816 75.00587841974608,-41.52161596456265 75.11341119097797,-42.273361554936116 75.20441211711362,-43.013109315397955 75.27953272451101,-43.74111285120857 74.91014069836548,-44.215368256969775 74.39220546310442,-44.60490685987494 73.8611922037857,-44.98837717705961 73.31685892267373,-45.365568779689696 72.75895263579099,-45.73625787017142 72.18720901137577,-46.100206432606164 72.71643923741217,-47.1497109999046 73.2689470930214,-48.20707530477339 77.54963643659028,-51.6434930694286 79.26087935899731,-53.369351929491806 79.35026583820137,-54.01124646145162 79.42657911532783,-54.64052142941101 79.49040882586812,-55.25756842460171 79.3922034507157,-55.76119114627383 78.94079020494682,-56.021326915742016 78.47944718120597,-56.2766098747722 78.0079495134477,-56.52688599799857 77.52606207634204,-56.77199091205579 77.03353904219199,-57.0117492454472 76.5301234105091,-57.245973927210514 76.01554650856919,-57.474465429810124 76.10579993350386,-58.150911549849276 76.3891159895748,-58.9665303392242 76.6482179123158,-59.75701264185296 76.88474922124807,-60.523601783150184 77.10021149161123,-61.26745811500924 77.295978925436,-61.98966578059586 77.47331117957812,-62.691238838944315 77.63336468786274,-63.37312681630737 77.70532011005442,-63.97903091034097 77.40803076215184,-64.28388173665599 77.1052030473375,-64.58459482411948 76.79862037025836,-64.88264325143263 76.48620956113179,-65.17632421100554 76.16792526693234,-65.4656185770036 75.84371807367079,-65.75050345038653 75.5135344683524,-66.03095205247199 75.17909009458707,-66.30844533616485 74.83997770310278,-66.58263913952466 74.49475653262014,-66.85229224027185 74.14335951619225,-67.11736402373944 73.78571525917559,-67.37780941581062 73.4217479654492,-67.6335787238737 73.05137735632859,-67.88461746591956 72.67451858199578,-68.13086618703632 72.29370174638309,-68.37465497754664 71.90796159921322,-68.61509255930358 71.51554521840322,-68.8505529028663 71.11635358851208,-69.08095939066064 70.71028270372607,-69.30622950240637 70.29722343974561,-69.52627455281673 69.87706141675476,-69.74099941054737 69.44967685314636,-69.95030219706166 69.01494440965143,-70.1540739639637 68.57550495250169,-70.35494610186198 68.13201527172687,-70.55357045700431 67.68094151559394,-70.74636793607422 67.22214319709487,-70.9332067498616 66.75547365128294,-71.11394653208461 66.28077983307075,-71.2884378876132 65.79790210325628,-71.45652190778492 65.30667400227732,-71.6180296502093 64.80692201116997,-71.77278158021443 64.30055765916885,-71.92284649673991 63.79312533785299,-72.07426226316059 63.276936055779146,-72.21851619809082 62.751801960805246,-72.35539917211122 62.21752742985938,-72.48468918094945 61.67390878294688,-72.60615057922486 61.120733982367405,-72.71953325549266 60.557782316601724,-72.8245717435071 59.9848240683295,-72.92098426410855 59.4149218868211,-73.02423411795819 58.83855490245946,-73.12283930573214 58.25210812567806,-73.21238568477264 57.65534587890739,-73.29256014092799 57.048023110878496,-73.36303035607287 56.429885049330046,-73.42344355804195 55.80066683947171,-73.47342516915921 55.181548478988184,-73.5401028365282 54.56169069113411,-73.60930126419065 53.9312333941351,-73.6679902235308 53.28993426298311,-73.71579332156783 52.6375419034225,-73.75231119431788 51.99958365487704,-73.81230904660777 51.60195519955725,-74.2079418984005 51.1986459577895,-74.59448104800671 50.78972458287556,-74.97199021311997 50.37525429794352,-75.34052737270258 49.95529311168263,-75.70014479840597 49.52989402149761,-76.05088907813835 49.37955007720157,-76.8118039019154 49.33369372317736,-77.72406871655633 49.2731525372402,-78.6045160547565 49.19904500701255,-79.45473563646301 49.11238877787721,-80.27620981618274 49.014111112632975,-81.07032239787002 48.90505810249032,-81.83836660340992 48.88324026349639,-82.7397231017538 48.91682548212284,-83.72104880491281 48.93251941026413,-84.65964044354335 48.93195530420608,-85.55825015288337 48.91659155346559,-86.41939390497068 48.88773340239964,-87.24537636515831 48.84655157330211,-88.03831267245738 48.79409828949022,-88.80014757745363 48.73132110777464,-89.5326723034178 48.67780944217929,-90.27095307812539 48.652650964607126,-91.04910050256534 48.61627559984878,-91.7945844357236 48.56967946026331,-92.50943219170958 48.51375613887894,-93.19550278745028 48.44930884587544,-93.85450412335588 48.377060898651976,-94.48800809364033 48.29766481708817,-95.09746391184902 48.21171023291098,-95.68420989302244 48.119730787327704,-96.24948389731698 48.022210162675755,-96.7944326094169 47.91958737051804,-97.32011980258865 47.823421807353284,-97.84949865798231 47.731170927226145,-98.37735933804231 47.63408823453141,-98.88615334560909 47.53256098016693,-99.37688381715812 47.42694092652549,-99.85048232593304 47.317547982561614,-100.30781516299207 47.2046734135451,-100.74968896386996 47.088582681454824,-101.1768557591888 46.96951796378605,-101.59001751700046 46.84770039168335,-101.9898302356629 46.72333204252833,-102.37690763839076 46.59659771722598,-102.75182451406629 46.46766652829763,-103.11511974326865 46.3305098490611,-103.45402530585741 46.01306814476241,-103.39737411531749 45.69093798916292,-103.33493917072298 45.363973104545074,-103.26650869774201 45.032020813357846,-103.1918579882046 44.69492168329341,-103.11074851059213 44.352509147684444,-103.02292694408585 44.00460909922809,-102.92812412854408 43.651039454857894,-102.82605392189382 43.291609689379776,-102.71641195542048 42.9261203352643,-102.59887427630485 42.55436244573834,-102.473095865466 42.17611701804388,-102.33870901730305 41.791154373431844,-102.19532156625462 41.39923349011992,-102.04251494318552 41.000101285078436,-101.87984204242316 40.59349184009503,-101.70682487775986 40.17912556712292,-101.52295200285461 39.75670830741393,-101.32767566815151 39.32593035839299,-101.12040868260047 38.88646542162031,-100.9005209440354 38.4379694645232,-100.66733559692713 37.98007948784402,-100.42012477025405 37.512412189947,-100.15810484127186 37.03456251824893,-99.88043116282807 36.546102097078005,-99.58619218233463 36.04657752023381,-99.27440286931032 35.5355084954051,-98.94399735520379 35.0123858264167,-98.5938206736047 34.476669218036484,-98.22261947044599 33.927784886786974,-97.82903153178829 33.36512295992466,-97.4115739504987 32.78803464351464,-96.96862972165778 32.19582913942787,-96.49843251867627 31.58777029023719,-95.9990493564201 30.963072930572388,-95.46836079227603 30.320898923757653,-94.90403824872136 29.66035286387686,-94.3035179586143 28.980477426322096,-93.66397093332128 28.2802483551498,-92.98226822906472 27.558569084301208,-92.25494063222422 26.814265003552112,-91.47813169156127 26.04607740126103,-90.64754278374625 25.252657147986923,-89.75836859400812 24.432558232825926,-88.8052210074421 23.584231335231877,-87.78203891338438 22.70601772009773,-86.68198079144966 21.79614389944565,-85.49729612727889 20.852717735198677,-84.21917063558962 19.87372700257244,-82.83753886025934 18.857041952323318,-81.34085585346233 17.800424196631283,-79.71581713518457 16.70154544885073,-77.94701275305229 15.55802151840369,-76.01649664164228 14.514722694007062,-74.57936980241192 14.271344580381523,-77.01630405453476 13.998214196888641,-79.25971843289916 13.70167598664176,-81.33121162212527 13.386790270369131,-83.24928997418915 13.05761936433327,-85.02989912232925 12.717442612954326,-86.6868502876399 12.368919883116854,-88.23216461773205 12.014217179029309,-89.67635323925109 11.655104072461304,-91.02864651990885 11.293029927018209,-92.2971829177986 10.929184004318303,-93.48916545698967 10.564543204729743,-94.610992101288 10.19991024008964,-95.6683649531722 9.835944344240547,-96.66638217409194 9.473186120993793,-97.6096157267264 9.112077754812772,-98.5021774216537 8.752979530126662,-99.3477752674957 8.3961833948236,-100.1497617432595 8.041924143793736,-100.91117531054705 7.690388676256489,-101.63477624365824 7.34172368651379,-102.32307766380838 6.996042074801886,-102.97837250935737 6.653428307959231,-103.60275704916631 6.313942914916654,-104.19815144481119 5.97762626670725,-104.76631778463216 5.644501762669461,-105.30887594475438 5.314578522158882,-105.82731757636186 4.987853663160032,-106.32301847233494 4.664314234753395,-106.7972495280445 4.343938858722246,-107.25118647917974 4.0266991260974825,-107.68591857280319 3.712560786712354,-108.10245630544259 3.401484763507149,-108.50173834318863 3.0934280181320566,-108.88463772285809 2.7883442901070157,-109.25196741980547 2.4861847282608265,-109.60448535651756 2.186898430230863,-109.94289891637045 1.8856101525565667,-110.11931747496445 1.5642450162617647,-109.5629043650738 1.236585817242293,-108.97494966940252 0.9024169186724322,-108.35294124414459 0.5621098108894187,-107.72230323067605 0.2174666470506669,-107.18365074829069 -0.1326325214980129,-106.61709723345959 -0.4883215200681544,-106.02067528123528 -0.8497298390213198,-105.39222611780777 -1.2169804765000254,-104.72937586795996 -1.590187239828353,-104.02950820060182 -1.9694513708966663,-103.28973269102329 -2.354857324462594,-102.50684809686312 -2.748215761665493,-101.84533611140057 -3.1486967140149846,-101.29264980546026 -3.5532628874130294,-100.71438432874615 -3.9619202366993984,-100.10902760139484 -4.374660106003198,-99.47494310312078 -4.791456445408815,-98.81035693459637 -5.21226252476641,-98.1133432297002 -5.637007046018289,-97.38180766861021 -6.065589533793249,-96.61346879753934 -6.497874857069087,-95.80583680777943 -6.945156567710533,-95.1639348723355 -7.410869205728873,-94.75279244596024 -7.87823948744965,-94.32524557694501 -8.347209629693333,-93.8806854760754 -8.817711934768132,-93.4184682535991 -9.289667696255036,-92.9379125220554 -9.762985978392276,-92.43829679655047 -10.237562252777263,-91.91885667257834 -10.71327687375431,-91.3787817592417 -11.189993371115076,-90.81721234320032 -11.667556535549126,-90.23323575582359 -12.145790268554633,-89.62588241280879 -12.660814317860874,-89.2900181008216 -13.19112405198714,-89.05987024168599 -13.720796293410624,-88.81812334143287 -14.24978026360453,-88.56460547854032 -14.77802109338541,-88.29913478044271 -15.305459513054663,-88.02151909392178 -15.832031521222376,-87.73155563350755 -16.39465482967836,-87.64982708060855 -16.959329332589945,-87.58091626713787 -17.52180937273304,-87.50143395383968 -18.082076810456975,-87.41141469366859 -18.64011251012607,-87.31088583102712 -19.195896197853365,-87.19986756989871 -19.74940631843717,-87.07837303039146 -20.317838482468282,-87.02700956166086 -20.898526222350288,-87.03374185240159 -21.475781370327702,-87.02951909677624 -22.049611230997673,-87.01448507735674 -22.62002290162596,-86.98877429578093 -23.187023131347118,-86.95251225880693 -23.750618186439294,-86.90581574506287 -24.31081372086488,-86.84879305344512 -24.881402176508907,-86.83329546832452 -25.45877000011382,-86.84622804646337 -26.031905714245774,-86.8483400931637 -26.60083787466688,-86.83981143622772 -27.16559447660404,-86.82081150212402 -27.726202833083732,-86.7914997018169 -28.28268946039216,-86.75202579184878 -28.835079969774448,-86.70253021208553 -29.387217550823575,-86.65512697847454 -29.94957953123547,-86.64211955994959 -30.507314045638118,-86.61890548305793 -31.06046246172738,-86.58565672675407 -31.60906495664417,-86.54253522608603 -32.153160430888605,-86.48969325239905 -32.69278642724502,-86.42727376902442 -33.22797905398769,-86.35541076387966 -33.75881803790334,-86.27435138283984 -34.29891947008288,-86.22025404991584 -34.83427639478283,-86.15674702866936 -35.364933724301565,-86.08397277091139 -35.890934637796214,-86.00206483581192 -36.41232052515063,-85.9111482063763 -36.92913093303982,-85.8113395850535 -37.44140351267661,-85.70274766964279 -37.95738969085387,-85.60494224037308 -38.470863060340726,-85.50349381468295 -38.979631058764596,-85.393398416365 -39.48373461296441,-85.27476142821271 -39.98321252356189,-85.14768065276564 -40.48289836464265,-85.0228048424836 -40.98061548926591,-84.89547026410372 -37.79661504490934,-76.89154892592165 -38.37162399447263,-76.67563989426183 -38.94097192621957,-76.44895327347535 -39.50464386832445,-76.21155953985229 -40.06262206086382,-75.96352153771242 -40.61488580734244,-75.70489464296068 -41.1614113241064,-75.4357269138925 -41.702171586983894,-75.15605922978501 -42.23713617449626,-74.86592541777343 -42.76627110698433,-74.5653523684773 -43.289538680987405,-74.25436014081053 -43.80689729820615,-73.93296205637894 -44.318301288366285,-73.60116478384398 -44.82370072528445,-73.25896841360455 -45.323041235417215,-72.90636652312787 -45.81626379814697,-72.54334623324047 -46.30330453703291,-72.16988825567014 -46.7840945012188,-71.78596693211561 -47.2585594361516,-71.39155026510593 -47.726619542722744,-70.98659994089904 -48.1881892238938,-70.5710713446605 -48.643176817816084,-70.1449135681546 -49.091484316391124,-69.7080694101768 -49.533007068156266,-69.26047536995176 -49.967633464302914,-68.80206163372395 -50.39524460655655,-68.33275205476924 -50.81074878862442,-67.84555152490053 -51.2092823207429,-67.33391994684175 -51.600295541416635,-66.81077465677902 -51.983614746755165,-66.27598998826791 -52.3590557975254,-65.72943334124672 -52.726423562812045,-65.17096509711445 -53.085511327034666,-64.60043852928932 -53.43610015748418,-64.01769970971084 -53.777958229298605,-63.42258741181643 -55.21273937016415,-64.14804688538878 -56.75399137142263,-65.01243782073942 -58.21131230910645,-65.79256125694852 -59.59174013998781,-66.49761948386968 -60.901540175129945,-67.13556456036838 -61.93189058231246,-67.47088408180991 -62.13476052809893,-66.89117629580862 -62.32956815109797,-66.2997788860534 -62.51602574124198,-65.69642462352712 -62.69382747129232,-65.0808350591067 -62.862648204761506,-64.45272009096166 -63.022142207205825,-63.811777511603914 -63.17194175187633,-63.15769253416517 -63.31165560974341,-62.49013729757015 -63.44086741282365,-61.80877035039291 -61.958164056376354,-59.51375795372848 -59.56094197494994,-56.29757571314329 -56.66013643394733,-52.56845610344757 -53.095478416468566,-48.18671338247536 -49.5661328172199,-43.82595650961651 -50.809989045184665,-43.7968135370502 -51.97733475513419,-43.70014794944133 -53.03385264212564,-43.50835503074079 -54.063953396701834,-43.294952138101955 -54.99416835304512,-43.000279737731674 -55.87142273583385,-42.66392329951075 -56.7274965172875,-42.3118012898696 -57.520090804032854,-41.911972406932534 -58.21790818483675,-41.442084490744215 -58.898290915222354,-40.960129727552626 -59.56139799677855,-40.46651433275115 -60.17419472245967,-39.938462087399685 -60.66262923814512,-39.32618082469071 -61.135657845035965,-38.70391654934735 -61.59324278104039,-38.07186076715831 -62.03533902363995,-37.43019765949614 -62.352479927907346,-36.71119817107471 -62.578580294467145,-35.93696826482802 -62.78789736307585,-35.15255280794038 -62.98009927430885,-34.35800229133296 -63.15483729496821,-33.553368349630475 -63.076908477130885,-32.61013030460746 -62.93443641441592,-31.631843921402567 -62.765567436214425,-30.639259975156477 -62.56917440420271,-29.632312415255782 -62.322006396123015,-28.600166077078594 -62.02352277945468,-27.543458872510683 -61.69178730968822,-26.471435240004862 -61.3406579318133,-25.390968831002624 -61.34912617585432,-24.465071858888397 -61.33381129353752,-23.529657077401072 -61.40536469404829,-22.629200555292577 -61.78858641543242,-21.848403596155112 -62.15066365772065,-21.05991763292302 -62.909523349126715,-20.411559981360814 -63.66899992861077,-19.763337124855788 -64.8085150204893,-19.23836575219049 -66.0579429508954,-18.747811976457747 -67.52760178584899,-18.32348494658107 -69.3572203243737,-18.00317093228535 -71.48111916233546,-17.76604442421585 -73.18480702002817,-17.4235094275562 -74.65392817579816,-17.026454804437662 -75.88431778253086,-16.576117347497366 -76.9005907091595,-16.080101302023603 -77.87502916212964,-15.578182139496574 -78.68324167320463,-15.044286382349563 -79.27490729785131,-14.469088581780426 -79.8443984702228,-13.891651643060463 -80.39237773648452,-13.312269533738197 -80.82547363530207,-12.714430694700816 -81.006828714524,-12.075324947786687 -81.1744756296396,-11.434443940531185 -81.32848247020694,-10.791872702709627 -81.46890870950857,-10.147693345453405 -81.41296518739057,-9.476874435724362 -81.1195957613699,-8.774837487686199 -80.80736055042414,-8.068936477849096 -80.47570220174816,-7.359245452016944 -80.12403408399798,-6.645849205874615 -79.3929750140809,-5.894543775744888 -78.33904592047624,-5.112162060495164 -77.22428281184519,-4.321108175500923 -76.04435871573341,-3.521836535836432 -74.69720396269335,-2.709204476420688 -73.14811429542063,-1.8832990501394407 -71.4951473734603,-1.050286245587578 -70.62411433102416,-0.2361744132076739 z"
       style="fill:#ffdd55;fill-rule:evenodd;stroke:#000000;stroke-width:0.26458332px;stroke-linecap:butt;stroke-linejoin:miter;stroke-opacity:1" />
  </g>
</svg>
