<?xml version="1.0" encoding="UTF-8" standalone="no"?>
<svg
   xmlns:dc="http://purl.org/dc/elements/1.1/"
   xmlns:cc="http://creativecommons.org/ns#"
   xmlns:rdf="http://www.w3.org/1999/02/22-rdf-syntax-ns#"
   xmlns:svg="http://www.w3.org/2000/svg"
   xmlns="http://www.w3.org/2000/svg"
   xmlns:sodipodi="http://sodipodi.sourceforge.net/DTD/sodipodi-0.dtd"
   xmlns:inkscape="http://www.inkscape.org/namespaces/inkscape"
   width="793.700787402"
   height="1122.51968504"
   version="1.1"
   id="svg28"
   sodipodi:docname="deusotestsimple.svg"
   inkscape:version="0.92.3 (2405546, 2018-03-11)">
  <metadata
     id="metadata32">
    <rdf:RDF>
      <cc:Work
         rdf:about="">
        <dc:format>image/svg+xml</dc:format>
        <dc:type
           rdf:resource="http://purl.org/dc/dcmitype/StillImage" />
        <dc:title></dc:title>
      </cc:Work>
    </rdf:RDF>
  </metadata>
  <sodipodi:namedview
     pagecolor="#ffffff"
     bordercolor="#666666"
     borderopacity="1"
     objecttolerance="10"
     gridtolerance="10"
     guidetolerance="10"
     inkscape:pageopacity="0"
     inkscape:pageshadow="2"
     inkscape:window-width="1920"
     inkscape:window-height="992"
     id="namedview30"
     showgrid="false"
     inkscape:zoom="1.1893044"
     inkscape:cx="19.136475"
     inkscape:cy="1079.8866"
     inkscape:window-x="0"
     inkscape:window-y="24"
     inkscape:window-maximized="1"
     inkscape:current-layer="g24" />
  <desc
     id="desc2">/tmp/mozilla_ruben0/openjscad.dxf - scale = 1.000000, origin = (0.000000, 0.000000), method = manual</desc>
    <path
       d="m 149.66344,35.599148 0.96328,-3.59497 0.58221,-3.67597 -2.89974,-2.17575 -3.4338,-2.21987 -2.99709,-1.65323 -2.5009,-1.15991 -1.95344,-0.74523 -2.09841,-0.63682 -1.35559,-0.68087 -0.60301,-0.72471 0.89961,-8.5592603 0.74052,-0.5835006 1.46752,-0.3841503 2.18496,-0.1866201 2.06569,-0.3228001 2.68741,-0.6146001 3.27532,-0.99398 3.8203,-1.45743 3.28874,-1.5253101 0.19479,-3.71668975 -0.19479,-3.71669075 -3.28874,-1.52531 -3.8203,-1.45743 -3.27532,-0.9939799 -2.68741,-0.6146 -2.06569,-0.3228 -2.18496,-0.1866099 -1.46752,-0.38416 -0.74052,-0.5834902 -0.89961,-8.5592719 0.60301,-0.7247 1.35559,-0.68088 2.09841,-0.63682 1.95344,-0.74522 2.5009,-1.15991 2.99709,-1.65324 3.4338,-2.21987 2.89974,-2.17575 -0.58221,-3.67597 -0.96328,-3.59497 -3.534,-0.80821 -4.03983,-0.6313 -3.41041,-0.29128 -2.75647,-0.0424 -2.08766,0.11373 -2.17601,0.27174 -1.51533,-0.0706 -0.84565,-0.41679 -2.65952,-8.18518 0.43916,-0.83424 1.1844,-0.94784 1.92016,-1.05919 1.7558,-1.13508 2.20509,-1.65453 2.58787,-2.24024 2.89723,-2.88529 2.38402,-2.73109 -1.33378,-3.47459 -1.68965,-3.31614 -3.62482,-0.0558 -4.08281,0.22243 -3.39644,0.42415 -2.70505,0.5316 -2.01839,0.5453 -2.07196,0.71822 -1.49691,0.24595 -0.91382,-0.23185 -4.30321,-7.45337 0.25612,-0.90732 0.96146,-1.17338 1.65798,-1.43526 1.48143,-1.47533 1.81291,-2.07684 2.06555,-2.72934 2.23403,-3.4246 1.76409,-3.16707 -2.02703,-3.12136 -2.3422,-2.89238 -3.5572,0.69908 -3.94735,1.06642 -3.23404,1.12105 -2.53541,1.0824 -1.86091,0.95302 -1.87736,1.13331 -1.41305,0.55181 -0.94206,-0.0368 -5.758816,-6.3958 0.06188,-0.94075 0.696484,-1.34764 1.323341,-1.74861 1.142321,-1.7511 1.3415,-2.408354 1.45295,-3.09914 1.47319,-3.81424 1.06708,-3.46464 -2.63171,-2.63169 -2.89237,-2.3422 -3.334128,1.42338 -3.639364,1.86382 -2.93029,1.76893 -2.254961,1.58589 -1.622102,1.31911 -1.600705,1.49887 -1.26745,0.83353 -0.929124,0.15988 -6.962732,-5.05872 -0.135064,-0.93306 0.401076,-1.46298 0.930866,-1.98554 0.753287,-1.95033 0.811448,-2.63467 0.776852,-3.3335 0.647974,-4.03719 0.323416,-3.61079 -3.121357,-2.02703 -3.31614,-1.68966 -2.965327,2.08548 -3.172324,2.57976 -2.498473,2.33952 -1.875961,2.02007 -1.312397,1.62753 -1.254093,1.79892 -1.066452,1.07884 -0.87558,0.34956 -7.862346,-3.50054 -0.326106,-0.88458 0.08814,-1.51442 0.497708,-2.13568 0.331328,-2.06434 0.245939,-2.7458 0.0668,-3.42217 -0.205564,-4.08369 -0.434377,-3.59913 -3.474592,-1.33377 -3.594974,-0.96327 -2.466932,2.65643 -2.566639,3.18295 -1.957461,2.80786 -1.414971,2.36596 -0.945335,1.86483 -0.85267,2.02035 -0.818845,1.277 -0.783769,0.52396 -8.418339,-1.78937 -0.502894,-0.79746 -0.228653,-1.49964 0.0428,-2.19249 -0.105111,-2.08812 -0.330319,-2.73693 -0.646169,-3.36128 -1.05012,-3.95171 -1.173185,-3.43017 -3.67597,-0.58221 -3.716691,-0.19479 -1.860719,3.11129 -1.84878,3.64703 -1.330898,3.15348 -0.892141,2.60845 -0.536957,2.02062 -0.413983,2.15349 -0.535449,1.41933 -0.657704,0.67547 h -8.60641 l -0.657704,-0.67547 -0.535449,-1.41933 -0.413983,-2.15349 -0.536957,-2.02062 -0.892141,-2.60845 -1.330898,-3.15348 -1.84878,-3.64703 -1.860719,-3.11129 -3.716691,0.19479 -3.67597,0.58221 -1.173185,3.43017 -1.05012,3.95171 -0.646169,3.36128 -0.330319,2.73693 -0.105111,2.08812 0.0428,2.19249 -0.228653,1.49964 -0.502894,0.79746 -8.418339,1.78937 -0.783769,-0.52396 -0.818845,-1.277 -0.85267,-2.02035 -0.945335,-1.86483 -1.414971,-2.36596 -1.957461,-2.80786 -2.566639,-3.18295 -2.466932,-2.65643 -3.594974,0.96327 -3.474592,1.33377 -0.434377,3.59913 -0.205564,4.08369 0.0668,3.42217 0.245939,2.7458 0.331328,2.06434 0.497708,2.13568 0.08814,1.51442 -0.326106,0.88458 -7.862346,3.50054 -0.87558,-0.34956 -1.066452,-1.07884 -1.254093,-1.79892 -1.312397,-1.62753 -1.875961,-2.02007 -2.498473,-2.33952 -3.172324,-2.57976 -2.965327,-2.08548 -3.31614,1.68966 -3.121357,2.02703 0.323416,3.61079 0.647974,4.03719 0.776852,3.3335 0.811448,2.63467 0.753287,1.95033 0.930866,1.98554 0.401076,1.46298 -0.135064,0.93306 -6.962732,5.05872 -0.929124,-0.15988 -1.26745,-0.83353 -1.600705,-1.49887 -1.622102,-1.31911 -2.254961,-1.58589 -2.93029,-1.76893 -3.639364,-1.86382 -3.334122,-1.42338 -2.89237,2.3422 -2.63171,2.63169 1.06708,3.46464 1.47319,3.81424 1.45295,3.09914 1.3415,2.408354 1.142315,1.7511 1.323341,1.74861 0.696484,1.34764 0.06188,0.94075 -5.75882,6.3958 -0.94206,0.0368 -1.41305,-0.55181 -1.87736,-1.13331 -1.86091,-0.95302 -2.53541,-1.0824 -3.23404,-1.12105 -3.94735,-1.06642 -3.5572,-0.69908 -2.3422,2.89238 -2.02703,3.12136 1.76409,3.16707 2.23403,3.4246 2.06555,2.72934 1.81291,2.07684 1.48143,1.47533 1.65798,1.43526 0.96146,1.17338 0.25612,0.90732 -4.30321,7.45337 -0.91382,0.23185 -1.49691,-0.24595 -2.07196,-0.71822 -2.01839,-0.5453 -2.70505,-0.5316 -3.39644,-0.42415 -4.08281,-0.22243 -3.62482,0.0558 -1.68965,3.31614 -1.33378,3.47459 2.38402,2.73109 2.89723,2.88529 2.58787,2.24024 2.20509,1.65453 1.7558,1.13508 1.92016,1.05919 1.1844,0.94784 0.43916,0.83424 -2.65952,8.18518 -0.84565,0.41679 -1.51533,0.0706 -2.17601,-0.27174 -2.08766,-0.11373 -2.75647,0.0424 -3.41041,0.29128 -4.03983,0.6313 -3.534,0.80821 -0.96328,3.59497 -0.58221,3.67597 2.89974,2.17575 3.4338,2.21987 2.99709,1.65324 2.5009,1.15991 1.95344,0.74522 2.09841,0.63682 1.35559,0.68088 0.60301,0.7247 -0.89961,8.5592719 -0.74052,0.5834902 -1.46752,0.38416 -2.18496,0.1866099 -2.06569,0.3228 -2.68741,0.6146 -3.27532,0.9939799 -3.8203,1.45743 -3.28874,1.52531 -0.19479,3.71669075 0.19479,3.71668975 3.28874,1.5253101 3.8203,1.45743 3.27532,0.99398 2.68741,0.6146001 2.06569,0.3228001 2.18496,0.1866201 1.46752,0.3841503 0.74052,0.5835006 0.89961,8.5592603 -0.60301,0.72471 -1.35559,0.68087 -2.09841,0.63682 -1.95344,0.74523 -2.5009,1.15991 -2.99709,1.65323 -3.4338,2.21987 -2.89974,2.17575 0.58221,3.67597 0.96328,3.59497 3.534,0.80821 4.03983,0.6313 3.41041,0.29128 2.75647,0.0424 2.08766,-0.11373 2.17601,-0.27174 1.51533,0.0707 0.84565,0.41678 2.65952,8.18518 -0.43916,0.83424 -1.1844,0.94785 -1.92016,1.05918 -1.7558,1.13508 -2.20509,1.65453 -2.58787,2.24024 -2.89723,2.88529 -2.38402,2.73109 1.33378,3.47459 1.68965,3.31614 3.62482,0.0558 4.08281,-0.22242 3.39644,-0.42415 2.70505,-0.53161 2.01839,-0.5453 2.07196,-0.71822 1.49691,-0.24595 0.91382,0.23185 4.30321,7.45337 -0.25612,0.90733 -0.96146,1.17337 -1.65798,1.43527 -1.48143,1.47533 -1.81291,2.07684 -2.06555,2.72933 -2.23403,3.4246 -1.76409,3.16708 2.02703,3.121354 2.3422,2.892386 3.5572,-0.69907 3.94735,-1.06643 3.23404,-1.121046 2.53541,-1.0824 1.86091,-0.95303 1.87736,-1.133314 1.41305,-0.5518 0.94206,0.0368 5.75882,6.39582 -0.06188,0.94074 -0.696484,1.347642 -1.323341,1.74861 -1.142315,1.75111 -1.3415,2.4084 -1.45295,3.09914 -1.47319,3.81425 -1.06708,3.46464 2.63171,2.63171 2.89237,2.34219 3.334122,-1.42338 3.639364,-1.86382 2.93029,-1.76894 2.254961,-1.58589 1.622102,-1.3191 1.600705,-1.49887 1.26745,-0.83354 0.929124,-0.15987 6.962732,5.05872 0.135064,0.93305 -0.401076,1.46299 -0.930866,1.98554 -0.753287,1.95034 -0.811448,2.63466 -0.776852,3.3335 -0.647974,4.0372 -0.323416,3.61079 3.121357,2.02703 3.31614,1.68966 2.965327,-2.08548 3.172324,-2.57976 2.498473,-2.33953 1.875961,-2.02006 1.312397,-1.62754 1.254093,-1.79892 1.066452,-1.07884 0.87558,-0.34956 7.862346,3.50054 0.326106,0.88459 -0.08814,1.51441 -0.497708,2.13569 -0.331328,2.06433 -0.245939,2.7458 -0.0668,3.42217 0.205564,4.0837 0.434377,3.59912 3.474592,1.33377 3.594974,0.96327 2.466932,-2.65643 2.566639,-3.18295 1.957461,-2.80786 1.414971,-2.36596 0.945335,-1.86483 0.85267,-2.02035 0.818845,-1.27699 0.783769,-0.52397 8.418339,1.78938 0.502894,0.79745 0.228653,1.49964 -0.0428,2.1925 0.105111,2.08811 0.330319,2.73693 0.646169,3.36128 1.05012,3.95171 1.173185,3.43017 3.67597,0.58221 3.716691,0.19479 1.860719,-3.11129 1.84878,-3.64703 1.330898,-3.15348 0.892141,-2.60844 0.536957,-2.02063 0.413983,-2.15348 0.535449,-1.41934 0.657704,-0.67546 h 8.60641 l 0.657704,0.67546 0.535449,1.41934 0.413983,2.15348 0.536957,2.02063 0.892141,2.60844 1.330898,3.15348 1.84878,3.64703 1.860719,3.11129 3.716691,-0.19479 3.67597,-0.58221 1.173185,-3.43017 1.05012,-3.95171 0.646169,-3.36128 0.330319,-2.73693 0.105111,-2.08811 -0.0428,-2.1925 0.228653,-1.49964 0.502894,-0.79745 8.418339,-1.78938 0.783769,0.52397 0.818845,1.27699 0.85267,2.02035 0.945335,1.86483 1.414971,2.36596 1.957461,2.80786 2.566639,3.18295 2.466932,2.65643 3.594974,-0.96327 3.474592,-1.33377 0.434377,-3.59912 0.205564,-4.0837 -0.0668,-3.42217 -0.245939,-2.7458 -0.331328,-2.06433 -0.497708,-2.13569 -0.08814,-1.51441 0.326106,-0.88459 7.862346,-3.50054 0.87558,0.34956 1.066452,1.07884 1.254093,1.79892 1.312397,1.62754 1.875961,2.02006 2.498473,2.33953 3.172324,2.57976 2.965327,2.08548 3.31614,-1.68966 3.121357,-2.02703 -0.323416,-3.61079 -0.647974,-4.0372 -0.776852,-3.3335 -0.811448,-2.63466 -0.753287,-1.95034 -0.930866,-1.98554 -0.401076,-1.46299 0.135064,-0.93305 6.962732,-5.05872 0.929124,0.15987 1.26745,0.83354 1.600705,1.49887 1.622102,1.3191 2.254961,1.58589 2.93029,1.76894 3.639364,1.86382 3.334128,1.42338 2.89237,-2.34219 2.63171,-2.63171 -1.06708,-3.46464 -1.47319,-3.81425 -1.45295,-3.09914 -1.3415,-2.4084 -1.142321,-1.75111 -1.323341,-1.74861 -0.696484,-1.347642 -0.06188,-0.94074 5.758816,-6.39582 0.94206,-0.0368 1.41305,0.5518 1.87736,1.133314 1.86091,0.95303 2.53541,1.0824 3.23404,1.121046 3.94735,1.06643 3.5572,0.69907 2.3422,-2.892386 2.02703,-3.121354 -1.76409,-3.16708 -2.23403,-3.4246 -2.06555,-2.72933 -1.81291,-2.07684 -1.48143,-1.47533 -1.65798,-1.43527 -0.96146,-1.17337 -0.25612,-0.90733 4.30321,-7.45337 0.91382,-0.23185 1.49691,0.24595 2.07196,0.71822 2.01839,0.5453 2.70505,0.53161 3.39644,0.42415 4.08281,0.22242 3.62482,-0.0558 1.68965,-3.31614 1.33378,-3.47459 -2.38402,-2.73109 -2.89723,-2.88529 -2.58787,-2.24024 -2.20509,-1.65453 -1.7558,-1.13508 -1.92016,-1.05918 -1.1844,-0.94785 -0.43916,-0.83424 2.65952,-8.18518 0.84565,-0.41678 1.51533,-0.0707 2.17601,0.27174 2.08766,0.11373 2.75647,-0.0424 3.41041,-0.29128 4.03983,-0.6313 z"
       style="opacity:0.45640013;fill:#ffff00;stroke:#000000"
       id="path16"
       inkscape:connector-curvature="0"
       sodipodi:nodetypes="ccccccccccccccccccccccccccccccccccccccccccccccccccccccccccccccccccccccccccccccccccccccccccccccccccccccccccccccccccccccccccccccccccccccccccccccccccccccccccccccccccccccccccccccccccccccccccccccccccccccccccccccccccccccccccccccccccccccccccccccccccccccccccccccccccccccccccccccccccccccccccccccccccccccccccccccccccccccccccccccccccccccccccccccccccccccccccccccccccccccccccccccccccccccccccccccccccccccccccccccccccccccccccccccccccccccccccccccccccccccccccccccccccccccccccccccccccccccccccccccccccccccccccccccccccccccccccccccccccccccccccccccccccccccccccccccccccccccccccccccccccccccccccc" />
  </g>
  <g
     inkscape:groupmode="layer"
     inkscape:label="0"
     id="g26" />
</svg>
