<?xml version="1.0" encoding="UTF-8" standalone="no"?>
<svg
   xmlns:dc="http://purl.org/dc/elements/1.1/"
   xmlns:cc="http://creativecommons.org/ns#"
   xmlns:rdf="http://www.w3.org/1999/02/22-rdf-syntax-ns#"
   xmlns:svg="http://www.w3.org/2000/svg"
   xmlns="http://www.w3.org/2000/svg"
   xmlns:sodipodi="http://sodipodi.sourceforge.net/DTD/sodipodi-0.dtd"
   xmlns:inkscape="http://www.inkscape.org/namespaces/inkscape"
   id="svg8"
   version="1.1"
   viewBox="0 0 210 297"
   height="297mm"
   width="210mm"
   sodipodi:docname="deusotest.svg"
   inkscape:version="0.92.3 (2405546, 2018-03-11)">
  <sodipodi:namedview
     pagecolor="#ffffff"
     bordercolor="#666666"
     borderopacity="1"
     objecttolerance="10"
     gridtolerance="10"
     guidetolerance="10"
     inkscape:pageopacity="0"
     inkscape:pageshadow="2"
     inkscape:window-width="1920"
     inkscape:window-height="992"
     id="namedview6"
     showgrid="false"
     inkscape:zoom="3.3088147"
     inkscape:cx="15.40125"
     inkscape:cy="1169.6922"
     inkscape:window-x="0"
     inkscape:window-y="24"
     inkscape:window-maximized="1"
     inkscape:current-layer="svg8" />
  <defs
     id="defs2" />
  <metadata
     id="metadata5">
    <rdf:RDF>
      <cc:Work
         rdf:about="">
        <dc:format>image/svg+xml</dc:format>
        <dc:type
           rdf:resource="http://purl.org/dc/dcmitype/StillImage" />
        <dc:title></dc:title>
      </cc:Work>
    </rdf:RDF>
  </metadata>
  <path
     style="opacity:1;fill:#f6ffd5;fill-rule:evenodd;stroke:#000000;stroke-width:0.26458332px;stroke-linecap:butt;stroke-linejoin:miter;stroke-opacity:1"
     d=" M 86.39701195971315,0.49548872291873086 86.39800425179425,0.9908262645347611 86.38058384832102,1.486306849531743 86.34468494578357,1.9822251693928719 86.29015391286742,2.4788764552449636 86.21674752842185,2.976556532876493 86.12413015165684,3.475561839034153 86.35843347308867,3.97928586653473 87.23816061194564,4.4858040613261885 88.00547283357844,4.966445443965259 88.6790007712399,5.423758840691193 89.27344880182238,5.8599952868521905 89.80057375440063,6.277142742154516 90.26988472368197,6.676959418427321 90.6891524737136,7.0610040045448255 91.06478622574367,7.430662293126848 91.4021164103237,7.7871702757483545 91.56721501068004,8.124210361248656 91.1618952160274,8.423202155263517 90.71433032753023,8.73006090058593 90.218500208417,9.045282818751822 89.66713884158463,9.36936029134063 89.05139708063811,9.702762482955833 88.36038913264183,10.04590435245293 87.58057312250425,10.399097363262912 86.69489025793688,10.76247093743852 86.24084817144977,11.187510482232021 86.75816276602042,11.717908233372171 87.21912460175871,12.227102029042909 87.63064543502098,12.71691817504506 87.99851312591134,13.188987164698537 88.32760705206019,13.644769339493733 88.62206565343834,14.085576875111435 88.88541804483708,14.512592608169282 89.12068834732057,14.926886169528625 89.33047908751463,15.329427831401762 89.51703837785162,15.721100417560928 89.68231441403664,16.102709572948832 89.82799996931138,16.474992642439833 89.95556893460517,16.838626368554227 89.2598725007597,17.069344467098844 88.31681933768527,17.278557260824794 87.20437775966555,17.484442735907415 85.87286943461723,17.68194292162576 84.25088737914977,17.862659680448225 84.8918812109951,18.4895329156349 85.49669777446509,19.08967218581686 86.02687555954333,19.65633424560711 86.49321742090022,20.193139908661163 86.90451498448321,20.70319254132649 87.26799068924905,21.189169984049688 87.58962820891368,21.653397394912034 87.87442275350155,22.097905478001536 88.12657299031363,22.524477413572633 88.34962983740041,22.93468697725227 88.54661299390841,23.329929729972093 88.72010305330042,23.711448714566355 88.87231493808584,24.08035576405863 88.9869921753178,24.4333347805012 88.51004568330858,24.63778263692393 87.98452160036973,24.84193171418935 87.40295896650629,25.044975241089418 86.7562342382292,25.24579412163811 86.03307019658465,25.4428386912145 85.21935884386919,25.633957944230236 84.29721032382535,25.816148342396165 83.24358880925878,25.985176549057623 83.44030799807071,26.527567184153384 83.63725704603215,27.06041332465549 83.80625068150754,27.575510868071312 83.9497190012046,28.07418827825098 84.06976398400118,28.557646834277293 84.16820771039366,29.026975908973537 84.24663200872132,29.48316604140924 84.30641121449065,29.92712016099677 84.34873935696619,30.359663255499708 84.37465280431952,30.7815507227882 84.38504918179132,31.193475603785906 83.42632757089297,31.276966850511517 82.09804023052723,31.259521599958 80.48986136833066,31.180084904179484 78.50059732441737,31.008083055389235 77.34485064254388,31.185738830807278 77.86837610773323,32.005900283113746 78.32031957736638,32.778172008553625 78.71047246423132,33.50762265843484 79.04689397092055,34.19860661080954 79.33627004751935,34.854888067634704 79.58418678848035,35.47973989497594 79.79534106891695,36.07602301187586 79.9737045400412,36.64625066109187 79.23312885112969,36.818362416740854 75.2538509739541,35.62434530592564 74.65920482231705,36.012956471964586 74.95972560373102,36.80879871440621 75.21251837392383,37.566346403507396 75.42294280513302,38.28897387416378 75.59553494491782,38.979655715570175 75.73415215467263,39.641024833235626 75.84208834654915,40.27542052655016 75.92216632662513,40.884928517798045 74.04826959492647,40.50971178048289 71.5480404561866,39.86757585304359 70.38391458052716,39.98216428683471 70.68036292399981,40.891729026508514 70.92375452646655,41.753670029493605 71.1203351918223,42.57232979695576 71.27536111089223,43.35151550980828 71.39327856011722,44.094579407776955 70.8265545297106,44.429937760488215 69.00820470294299,44.04231134436531 66.83095293027982,43.48888424929322 66.89025632885841,44.34883381870594 67.22580948631878,45.365490467609916 67.49871977208133,46.31929826501591 67.71732052833956,47.216740166237855 67.13726999165004,47.57390307258739 65.39008263799577,47.165392504098065 64.1044306983838,47.114041565754626 64.16565716109295,48.01782855444722 64.1889426853728,48.87848393743978 64.17805119669462,49.699363209822366 64.13619476889362,50.48345217604359 64.06612160125704,51.23341485123683 61.481326978242166,50.08631308105154 61.377579277048056,50.91053376838229 61.245392808454454,51.69972024037486 61.08695525541819,52.45612340821817 60.821476587054796,53.115171089243546 59.74753119722992,53.10464002604159 58.589048962949306,53.047322223469116 57.4768210950602,53.055272110039674 57.24686864648255,53.85095221554067 56.9920005912076,54.61336713570269 55.79886723185671,54.52113009965523 53.85369829475872,53.76564514900774 53.01356779433801,54.099973106686534 52.68714769430696,54.936246532489854 50.486113627503414,53.92568039550073 49.058733948978976,53.752285377698314 48.50655595117302,54.50824635704579 47.92815784729035,55.23076810957075 47.32417838582464,55.92060578108129 46.695109045152265,56.57837972498483 46.04130533141094,57.20457778669173 44.2376270169696,56.48783210979185 41.95959598466272,55.249843412232885 41.62744025196662,56.47521426866032 42.05195851654061,58.64012543185716 42.34055680703058,60.566613797838336 41.65168372220261,61.12749036759665 40.41715190275853,60.93633545409743 39.11461389890871,60.67639270717551 40.421173220164874,64.22707272388762 41.558702895434344,67.390837154166 41.89466145849095,69.2086049575586 41.06463041327375,69.15634117885782 40.334270114844585,69.28028998864016 40.80742926719129,71.340758689899 41.13337103184037,73.06963543796617 41.350862565644015,74.54014617551775 41.41691578408193,75.68835312475706 41.43709931785849,76.70609428838799 41.42124914757531,77.61496930255862 41.37676996995953,78.43197489522287 41.309314303613164,79.17067551587374 41.223249497376585,79.8420325846757 41.07584498431788,80.37212888843472 40.49846819686486,80.09943315983999 39.8802751054213,79.78033188145974 39.21560517599966,79.40678513906 38.49763968283898,78.96878617824706 37.71807849598719,78.45373666051081 36.86669978694762,77.84556945369549 36.18864121973062,77.62657669295561 35.721188617399406,77.8517597044446 35.24534698243016,78.05939201174395 34.760825338094605,78.2495505452202 34.267292961129485,78.42222890183001 33.764378752836826,78.57733578930727 33.25167017469411,78.7146924448355 32.72871174700652,78.83402896117293 32.19500310083189,78.9349794271684 33.05931511983956,82.18424492491606 33.70170452578779,84.70758601148837 33.681189907875805,85.52711634403495 33.43570787866934,85.77082067028027 33.18816831182508,85.99982706515796 32.93857043201433,86.21495508548244 32.686888122235,86.41692997613228 32.433072569052634,86.60639212243214 32.177054366939565,86.78390504603831 31.706687446352,86.42883819611731 31.184731659779633,85.98272335102051 30.614447077613303,85.46003214967935 29.986857710342584,84.84310813622916 29.290459417412798,84.10848108216757 28.510222521264808,83.22428904624697 27.626069048334866,82.14620230243379 27.063044554663506,82.02852508376455 26.59858986355698,82.20221531024356 26.12850317159052,82.3583523231963 25.65251173901681,82.49704852603752 25.170315094934377,82.61833375849767 24.681584738554758,82.72215462365725 24.185963534890824,82.80837283186995 23.68306481267244,82.87676251854457 23.27811279274323,83.25709106581738 23.072725648008362,84.25122216445274 22.85669160718959,85.13049088184223 22.63342735759512,85.91338838502418 22.40540224466656,86.61458396822225 22.17441194473846,87.24586536065748 21.94176607453277,87.81681374675718 21.70841908980982,88.33529699148497 21.475063051074113,88.80783579959194 21.242194280528505,89.23987946729952 20.973851166423813,89.50226380407722 20.562922298047386,89.21102902943595 20.131286723695045,88.88214097864987 19.67658703144361,88.51003809693773 19.1960791080203,88.08797447542766 18.686544876404135,87.60769351145063 18.144179632405663,87.05898751649663 17.564444776668015,86.42909402582163 16.941872696822358,85.70185369663595 16.395977279550408,85.4038419110614 16.054365076805034,86.06128945049386 15.71523328571219,86.65857812762323 15.379013082933483,87.20284389757087 15.045969469551055,87.70009405652375 14.716244393913437,88.15541984931926 14.389888366225742,88.57316246693786 14.066883815351767,88.95704393099814 13.747162455997382,89.31027122692396 13.430618268708535,89.63561984257862 13.117117237641537,89.93550129762308 12.80650467267487,90.21201811464822 12.498610718229138,90.46700885499212 12.193254491558104,90.70208523089407 11.756183593801277,90.11370321264792 11.262035646374354,89.2836808831308 10.717976241641127,88.29175626024943 10.113243918406628,87.08916756902238 9.433441382186997,85.60547189708454 9.038961240169508,86.41059832380957 8.658534288959656,87.17299294200632 8.286513842765064,87.8540180233428 7.922846046566924,88.46506694572881 7.567338299478956,89.01546100061913 7.219710458049946,89.51289797818934 6.879629185113849,89.96378877522356 6.546731075401579,90.37351333771512 6.220638219230444,90.74661762246055 5.900968621204037,91.0869668420339 5.587343090909927,91.39786590004653 5.279389700211913,91.68215491754681 4.976746555729247,91.94228564647489 4.677469460635162,92.16178114788659 4.33388286871398,91.77290438580414 3.9753601207990643,91.33780227511683 3.6003297670817282,90.8491367405097 3.2069960515269536,90.29789297849713 2.793297337723274,89.672876044547 2.35685613904673,88.96001433670381 1.8949196793088274,88.14137770096869 1.4042907719527686,87.19376379970335 0.9508434645752348,87.5505152253746 0.506532109498016,87.9044945421296 0.0703169828824828,88.22636515491682 -0.3583021158087577,88.51885102879332 -0.7798074089372935,88.784324683144 -1.1946625422508772,89.02485777023315 -1.6033125775996073,89.24226282102401 -2.00618438805031,89.43812787172301 -2.403687321259496,89.61384531063474 -2.7962140357492857,89.77063599983754 -3.1841414424121455,89.90956950698875 -3.5638069452068586,89.02527768780746 -3.9634070385549127,87.75840304494061 -4.391830001708245,86.20630665421774 -4.851746578103795,84.26331081913467 -5.3825655957273995,83.22141680450069 -5.997406133986968,83.97554864513857 -6.589195588903629,84.64669822511863 -7.1596796512052,85.24575202938084 -7.710468422046371,85.7817277587919 -8.243041796571127,86.26215409552582 -8.758757669332548,86.6933613022865 -9.258861331318302,87.08070612659041 -9.74449512312616,87.42874767585747 -10.13997163548141,86.77938403688879 -10.252823967294669,82.6263618077281 -10.808177948299946,82.183411878494 -11.469793546833179,82.71814771485967 -12.109996409406003,83.1955605138899 -12.73031173106786,83.62179730759557 -13.332143138769295,84.00209772761654 -13.916782419163452,84.34094983763208 -14.485419070504557,84.64221463140059 -15.039149384096872,84.90922626803287 -15.269936978297997,83.01211961647235 -15.443481416121216,80.43658731739069 -15.917033788921625,79.36697630690432 -16.687921963342394,79.93347525530915 -17.43020748680547,80.43466779958271 -18.146057339265734,80.87784582429236 -18.837440190109014,81.26919370566749 -19.506146428610425,81.61398414620407 -20.002180537401344,81.18086578560325 -20.203779818540394,79.33262119658743 -20.36037430162985,77.09159799300589 -21.15844551147338,77.41734712813137 -22.018781613599423,78.05453505537172 -22.839059965366534,78.61254290844343 -23.622826181636448,79.10131563163846 -24.143742338141696,78.6623733522011 -24.303212988709962,76.87516501377377 -24.657256387221462,75.63815608063415 -25.49635531101233,75.97946619879492 -26.30638159202061,76.27123207752469 -27.089342499019402,76.51807944426089 -27.847067125014178,76.723994132079 -28.58122431257905,76.89242063519674 -28.301722933931124,74.0783693397043 -29.116949886969866,74.23808265150439 -29.907816754393046,74.35981246735739 -30.675775690282027,74.4463415568232 -31.384818085738463,74.40071644678142 -31.711296119709065,73.37754407765053 -32.01982941924637,72.2594324460537 -32.37585221811635,71.20569538326693 -33.20351692176438,71.23661620525064 -34.007397655304274,71.23345355941451 -34.29362646158458,70.07149488783017 -34.18562248647842,67.9875623443281 -34.766339324441894,67.29448053448992 -35.6627778713876,67.24650912676647 -35.39270124772648,64.83967438008969 -35.675250268712176,63.429835868201444 -36.5661524779746,63.14231057003051 -37.433514152488485,62.8194084563314 -38.27785229000918,62.46197271044755 -39.09960202395181,62.0706644286318 -39.899115253027155,61.645974064812464 -39.78356948879178,59.70854561356378 -39.32164489003638,57.15733667180665 -40.58938707759307,57.22582690785224 -42.51229001169937,58.30726132911713 -44.2513598140696,59.18491879078344 -44.99982806829572,58.706458838520014 -45.20509004543061,57.47419403949445 -45.366334699195626,56.15579514508402 -48.32888070780334,58.50903694904777 -50.97695094318018,60.580534755207495 -52.597935706686954,61.469104583426294 -52.80836120461157,60.664490297938116 -53.15489915324576,60.009737731601476 -54.96337851850605,61.10464103223787 -56.5030862117569,61.955847859803306 -57.83141511731414,62.62311595824038 -58.90111532501938,63.04558926104525 -59.86129009770433,63.38362602987952 -60.729369821996,63.65333441231391 -61.519175477937566,63.86707154415756 -62.24181755692737,64.03445523376175 -62.90633723980545,64.16306726963137 -63.45592695663069,64.18916947047707 -63.377859774774684,63.555424703082146 -63.26851173076134,62.8683793410842 -63.12202122266097,62.12013886177873 -62.9310217118085,61.3010926323772 -62.68614970033087,60.39941123201399 -62.37534963764959,59.40035348659146 -62.379826216205295,58.687821936358574 -62.740129420621955,58.314457603599614 -63.08639396436929,57.927627793026396 -63.41878407061414,57.52708028154488 -63.73739727792666,57.11249899146984 -64.04226315984315,56.68350290583642 -64.33334120699146,56.23964424884372 -64.6105178085824,55.78040590903361 -64.87360224795101,55.305198066770515 -67.68847070937953,57.14402298663364 -69.88349541407044,58.54465889002003 -70.66819033144769,58.78194500877602 -70.9765364992921,58.62517809240111 -71.2715694170607,58.46185221116591 -71.55406762028377,58.2922234049138 -71.82472802093011,58.116494098789836 -72.08417405508447,57.93481857682992 -72.33296261693211,57.74730748554671 -72.14314428678207,57.18937692585773 -71.88302553170584,56.5539286341693 -71.56532793633906,55.84859266137743 -71.1760963128949,55.05931299256936 -70.6966465184175,54.16781123400109 -70.10142980439717,53.149831748035396 -69.35463906964664,51.97241848610462 -69.41928857599953,51.40087238158116 -69.72975234836962,51.014221762920194 -70.02531126879585,50.61672309709316 -70.30615753360004,50.208152593860675 -70.57241362092736,49.78823425996894 -70.82413174526012,49.35663940461057 -71.06129247406108,48.91298554667252 -71.2838024632363,48.456834717702975 -71.77185759936658,48.191432897038126 -72.78028482644963,48.3078590460507 -73.68296871483935,48.37818672064509 -74.49639892660677,48.41145406528712 -75.2337324926474,48.414602146029274 -75.90560103187265,48.393029452753886 -76.52069300443709,48.35098155387177 -77.08618109148105,48.29182993720639 -77.60804085396634,48.21827482670843 -78.0912917160698,48.13249487929699 -78.42453999543702,47.95987057228187 -78.27671723976874,47.4783846828395 -78.09962466623736,46.96543747366845 -77.8887193440712,46.41704773106376 -77.63845477771162,45.82849593903553 -77.34199833838466,45.19413916471296 -76.99084834422216,44.507166087805516 -76.57430690600324,43.75926800464284 -76.0787413572331,42.940189694669 -75.96676930855577,42.32840943080392 -76.69814559958354,42.209982723120234 -77.37161485145174,42.07506310873877 -77.99381863576657,41.92629582780124 -78.57037875714366,41.765814690494935 -79.1060856452658,41.59534964097566 -79.6050460893018,41.41630878901625 -80.07080021450214,41.22984159835474 -80.50641493099356,41.03688800551283 -80.91455919951633,40.838216919829016 -81.29756510976897,40.63445662862579 -81.6574777896784,40.42611897371601 -81.99609644771665,40.213618693072135 -82.31500831990792,39.99728897840157 -81.89319009384882,39.39787780631206 -81.25978086936009,38.66855482177375 -80.48825884343684,37.841107628973916 -79.53568905153723,36.89003900127552 -78.33968617067055,35.77960600278516 -79.2278699089076,35.657242639851745 -80.07107034127787,35.534836553758126 -80.83436429489213,35.394919742144474 -81.52858837115637,35.24101073176571 -82.16265488395639,35.07584708187932 -82.74396181627787,34.901574556145164 -83.27870171821384,34.71988520497263 -83.77209751749838,34.532119516394346 -84.22858468792572,34.33934290635952 -84.65195351423738,34.142403626189136 -85.04546130460648,33.94197704001798 -85.41192171082088,33.73859978713347 -85.75377642571728,33.532696356035 -86.05598725270903,33.31725803345317 -85.7943396527051,32.86913147136617 -85.49347378460863,32.39233787145988 -85.1469133933304,31.883085806054865 -84.74666019548688,31.336845497613645 -84.28272883870328,30.74815161305209 -83.74250111052365,30.110337583638234 -83.10981210460785,29.415171520027364 -82.36362942095981,28.652347665373796 -82.84448863489693,28.333505295764333 -83.31985291995659,28.022470356520113 -83.76218851825752,27.709063996437923 -84.17423896313163,27.393664647898255 -84.55840840456177,27.076557704484976 -84.91680945363586,26.757951936106732 -85.25130282420685,26.43799257533739 -85.56353033980459,26.116771791070846 -85.85494253591057,25.794337096584805 -86.12682182913578,25.470698112956164 -86.38030202535032,25.145832013806714 -85.65948714307974,24.508224124127977 -84.58159798286995,23.731817945864954 -83.24187834302191,22.838677011825165 -81.54080811004621,21.793155068068103 -80.71768426339649,20.962625658427758 -81.62648229090281,20.61501975262087 -82.44925400861032,20.263305069676605 -83.19688471739325,19.909234668448434 -83.87844254453083,19.55410485997001 -84.50154077485386,19.198869079609118 -85.07261638931521,18.844221142708317 -85.59714658966554,18.490656785671295 -86.0798188427825,18.13851960241324 -85.58705740776288,17.559502352586662 -81.67849527611087,16.15114467510756 -81.43184610570815,15.48497137125448 -82.1469497278003,15.024206328540917 -82.80090764882112,14.565815967103834 -83.40003526166768,14.110277817085958 -83.94974815732247,13.657900557362568 -84.45471315902056,13.208863601531668 -84.91896954460076,12.763247033548788 -85.34602708030945,12.321054388333502 -83.61674691540472,11.507502501666504 -81.2252645265543,10.535753419171163 -80.35787695083933,9.750923273831518 -81.13738072696067,9.196339196330083 -81.84590471384197,8.648456430775209 -82.49105259253125,8.107501730753418 -83.07931416525604,7.5735431810959355 -83.61625760563324,7.0465325330706925 -83.3603594238791,6.43977271901863 -81.66833612695542,5.669248550903439 -79.58920989089944,4.818401369754798 -80.14860220814006,4.1625733508136715 -81.02326083099179,3.5451926281526545 -81.81017551746126,2.9410447864068945 -82.51990136975586,2.3498785904093227 -82.26626831838243,1.7176648274803172 -80.61900877094065,1.0062714646360909 -79.55520818762025,0.2824854827160065 -80.14223243412783,-0.407429102343717 -80.67309818678939,-1.0852575884419218 -81.15282716970103,-1.7514568884321997 -81.58577760647995,-2.406515196364432 -81.97574342976156,-3.0509381317709487 -79.21580711451598,-3.667182604458203 -79.62289849682827,-4.391323428727954 -79.98628654797311,-5.104231329049259 -80.30906890249479,-5.8064134721894245 -80.48789174564547,-6.494050847546851 -79.61852465029044,-7.1246620250026425 -78.65337614642607,-7.767977486595067 -77.76423997049363,-8.436222121032126 -78.05292037266526,-9.212526561505655 -78.30178161098057,-9.97692326489303 -77.28800549752097,-10.6127950096604 -75.27515890151753,-11.163147883245301 -74.79891830460922,-11.931776099536643 -75.03422625347865,-12.798109461244447 -72.66395625256708,-13.295718748976885 -71.41362798578503,-14.005759454957227 -71.41970884629703,-14.941890090441605 -71.38481858550716,-15.866749387388325 -71.30991991403842,-16.78056413443484 -71.19577697440582,-17.683540427581274 -71.042965780195,-18.575858783052727 -69.16688395641798,-19.073148253918635 -66.59940084233476,-19.433803017278894 -67.0616401609797,-20.616256390077695 -68.6910915657904,-22.103517033291126 -70.0694291254311,-23.480045990203514 -69.84956265967689,-24.3407360568018 -68.7436524956963,-24.9217452851099 -67.54215392735897,-25.48794019274666 -70.70510953463284,-27.56402729772441 -73.50197808119218,-29.429745782834182 -74.85368123890554,-30.69071624901078 -74.15550742449443,-31.142641423634963 -73.6422954028986,-31.676872547641736 -75.24868737838264,-33.051250833783236 -76.53944374337847,-34.246742720067964 -77.5892952944516,-35.29912863656441 -78.32564611737114,-36.18260455108231 -78.94749621658204,-36.98852446354004 -79.47560383512646,-37.72839429162942 -79.92603419886655,-38.41146751106276 -80.31140190392404,-39.0452818417393 -80.6417397012913,-39.63604778890743 -80.83872015514402,-40.14978788129755 -80.21242475983266,-40.27421051949164 -79.52571178643628,-40.38562692915164 -78.7692476926762,-40.48094407706615 -77.93159771814454,-40.55617744207027 -76.99859435981735,-40.606141260141115 -75.95246151687432,-40.62400554202869 -75.27720807193414,-40.85150067368931 -75.03552935752771,-41.310641962501705 -74.776664677895,-41.76067031076804 -74.50042596214489,-42.201820697375844 -74.20654360682086,-42.634284780489644 -73.89466504465112,-43.058210021427776 -73.5643523530524,-43.47369824350856 -73.21507886131832,-43.88080357286809 -72.84622469326284,-44.279529692271296 -75.4743950092358,-46.3765471770084 -77.49223502343308,-48.02221909606237 -77.96342744603409,-48.693060743841755 -77.91116188642201,-49.03499865717173 -77.84849641476724,-49.366348630327906 -77.77591810317455,-49.68776977994494 -77.69383753496214,-49.99986050686705 -77.60259655541567,-50.30316451865924 -77.50247472111451,-50.59817600344687 -76.91316347288284,-50.59272067545769 -76.22821157099479,-50.54479166282363 -75.45885070970839,-50.46407944728761 -74.58736027286339,-50.34173538012261 -73.59052822625895,-50.16574287511977 -72.43731548633588,-49.91943910540604 -71.08520656481703,-49.57914532757737 -70.56269286933671,-49.81961142976878 -70.29278158525116,-50.235585411633586 -70.00789859327263,-50.64080380418154 -69.70789158808324,-51.03551924269819 -69.39253684627268,-51.41993451033837 -69.06153858579198,-51.79420217504931 -68.7145274948001,-52.158423618236455 -68.35105841057096,-52.512647415943476 -68.2519324400775,-53.05928256326672 -68.67844790669004,-53.98045848416165 -69.02805538265645,-54.81565833863997 -69.31450433909222,-55.57770979424672 -69.5485086054803,-56.27693272102668 -69.73852586367482,-56.92173203607292 -69.89131011003451,-57.51902855755777 -70.01231035959097,-58.07457750225122 -70.10596309036804,-58.593207555371535 -70.17590990581402,-59.07900281894521 -70.11638747038965,-59.449557331473144 -69.61282962213778,-59.46003217225512 -69.07022395826455,-59.45256808965774 -68.48336636681658,-59.424098244699685 -67.84603717879114,-59.370834080708825 -67.15073684216479,-59.28805498048041 -66.38833331248082,-59.16982137814402 -65.54758445843385,-59.00857722485281 -64.6144801399184,-58.79458932387418 -63.99842058183704,-58.87993246558117 -64.11510479926555,-59.61158877668182 -64.1979836079348,-60.29342104244102 -64.25164993889842,-60.930907652507585 -64.27989153927486,-61.52871881081902 -64.28585214568723,-62.09086174127382 -64.27215567247963,-62.62079528239444 -64.24100286861896,-63.12152117661797 -64.19424724194168,-63.59565742453464 -64.13345520231353,-64.04549769855714 -64.05995407242945,-64.4730598197342 -63.97487068416863,-64.88012557935414 -63.879162605429826,-65.26827365484786 -63.7736435503614,-65.63890697322528 -63.0722521033353,-65.4261291381484 -62.181196047661714,-65.05311658193787 -61.15368402503044,-64.57968851273915 -59.952050584069106,-63.97306027683581 -58.52280641904225,-63.185186269196016 -58.68488168179281,-64.06698826208414 -58.83282260958727,-64.90608521771293 -58.93909889077248,-65.67478524103387 -59.0104471223749,-66.38227692394466 -59.05225935480121,-67.03616614324538 -59.06889118294781,-67.64280610655416 -59.06388965731526,-68.20754743476853 -59.040164173670995,-68.73493009468895 -59.000116187464315,-69.2288324301178 -58.94573877882403,-69.69258812075255 -58.87869385805891,-70.12907887222963 -58.80037259293544,-70.5408085356535 -58.711943108341046,-70.92996286916319 -58.602037943739184,-71.28445674722276 -58.094497228749,-71.17638591460342 -57.54744533107539,-71.04005312783251 -56.95525263747189,-70.87049610331029 -56.31111149216429,-70.66153849547625 -55.606703218003425,-70.40541005734227 -54.83174347977259,-70.09221660509193 -53.97335021653738,-69.70918626708288 -53.015146878745384,-69.2395745188812 -52.863016498179014,-69.79611956431337 -52.71657882699598,-70.34500019377613 -52.557540884962066,-70.8632581035641 -52.38712162968037,-71.35338012470729 -52.20634533188235,-71.81755994271327 -52.01607215424906,-72.25773839004412 -51.81702299902889,-72.67563699174796 -51.609799795777526,-73.07278602898137 -51.394902134175815,-73.45054811718731 -51.17274094606836,-73.81013808966642 -50.94364978818089,-74.15263981758507 -50.11230587550984,-73.66788708231881 -49.03727680048921,-72.88752557429639 -47.76935613620557,-71.89509087592344 -46.24351165402354,-70.60724201499751 -45.19690518620904,-70.08577593869936 -45.15153741836414,-71.05772526155113 -45.07531476192249,-71.94926697358868 -44.97331249435582,-72.77018905463686 -44.849602801891265,-73.52869690864547 -44.70747644058924,-74.23172177428204 -44.5496090692996,-74.88515915434418 -44.37818753174505,-75.4940551570483 -44.19500675685128,-76.06275358633326 -43.49075512498555,-75.77621485168508 -40.92871206202883,-72.50570042299746 -40.21880230279951,-72.48018929252761 -40.00528631328927,-73.3036506074293 -39.77486782276252,-74.06830085764025 -39.52997899983098,-74.77998784431355 -39.27260974559631,-75.44375777413774 -39.00439260716978,-76.06398628629759 -38.726669186356375,-76.6444841921892 -38.44054248833728,-77.18858343586518 -37.12615002646973,-75.80126623449485 -35.45405028795597,-73.83465321715397 -34.43697384180221,-73.25683398398688 -34.154539824962136,-74.17084747520956 -33.856230966833316,-75.01535537330177 -33.544644920724465,-75.7975074740617 -33.2218796696215,-76.52344549027067 -32.88963396392587,-77.19847235813812 -32.2332484436035,-77.14556300088721 -30.971390265172033,-75.78014575018776 -29.511969695479422,-74.07228204605825 -29.064425976900143,-74.80898739759061 -28.75217014568894,-75.83303962239012 -28.42498979041887,-76.76961975969434 -28.08595335470332,-77.62883018325941 -27.40610516702869,-77.58604690964361 -26.214425566086888,-76.24461325044305 -25.193781397088955,-75.46114448336469 -24.722524737300976,-76.23477020764703 -24.245150576715982,-76.95127827788828 -23.76279836898618,-77.6155807331383 -23.27636997958347,-78.23196931956835 -22.78657392730915,-78.80420536368135 -21.336638696236673,-76.37630636660101 -20.77650412927347,-76.98978219645899 -20.213344182373515,-77.55823573392975 -19.647647747179935,-78.08476755038984 -19.050659666125906,-78.47003109693988 -18.17941714839237,-77.84201351843463 -17.26610063440923,-77.1270174604586 -16.35292561242812,-76.49201713759615 -15.7061543784107,-77.00938734329472 -15.058215553350912,-77.48521243202524 -14.136732406239492,-76.72170493788758 -12.983442570452238,-74.98263557205551 -12.10430293237602,-74.77119305555016 -11.355313505573113,-75.26608512756836 -10.140126975930745,-73.17106327120634 -9.074094848180431,-72.20615183409546 -8.187003039444264,-72.5052265177953 -7.297778362512789,-72.76186151810299 -6.406507075215401,-72.97704212909474 -5.5132328725916535,-73.15155859129598 -4.617964798673179,-73.28601447405971 -3.5579165570075686,-71.6601985088649 -2.4109999416353785,-69.33498374957487 -1.432907046238405,-70.14442519558476 -0.5310540898701346,-72.15780974568466 0.34431917608810886,-73.89803043363783 1.230560578565837,-73.9588977486651 2.128810112726902,-73.09070607135288 3.0429401135671506,-72.12709732050311 4.02350878743591,-75.78126082490017 4.918999867172051,-79.02185874172453 5.692977794502568,-80.70058031219028 6.340894312752829,-80.17915225006968 7.009022166847263,-79.85916061963063 7.810901098388472,-81.81527948909307 8.541792552104184,-83.41560774505659 9.212261456628694,-84.74232393346931 9.820548093404735,-85.71840261547565 10.391057959188407,-86.56144647212132 10.92821387036962,-87.29477351128236 11.435769984218965,-87.93653929954175 11.916932209616158,-88.50108494581228 12.374454985650566,-88.99988387735954 12.800612431082401,-89.34790688440381 13.114995676132084,-88.79212807020217 13.435957038173349,-88.1748986734224 13.763483517516114,-87.48638600893167 14.097373847086386,-86.7144826556146 14.437142197043974,-85.8441096791653 14.781871911344364,-84.85624608446723 15.209477104161351,-84.28626797180961 15.721221490092251,-84.20061163778962 16.22969631798529,-84.09577945759816 16.73518366035168,-83.97166645106425 17.237949995198637,-83.82807663771088 17.738245822445403,-83.66472140306848 18.236305044612312,-83.48121677606007 18.732344074322693,-83.27707956185112 19.226560622921284,-83.05172224850732 20.394559938885617,-86.20458430368217 21.3251618473567,-88.63643431468375 21.814597261328913,-89.29408451886668 22.15569417480507,-89.35158339634278 22.489994651120732,-89.39588867349363 22.817972015745696,-89.42766940709777 23.14006590013912,-89.44750299338979 23.45668553263434,-89.45588441548725 23.768212631134507,-89.45323398901772 23.947669650412692,-88.89188500119674 24.116756775370526,-88.22640333929638 24.281157564754416,-87.47049132254708 24.43802095740733,-86.60454817872747 24.58320797995249,-85.6027656576985 24.710619654204134,-84.43044682915374 24.81109001612718,-83.03979802472654 25.20315806074571,-82.61893325231547 25.682754161820554,-82.49294105137024 26.156827011388135,-82.34936111516511 26.625664243621916,-82.1881279602699 27.08952852666135,-82.00909266180183 27.548657418506046,-81.81202213137449 28.003262905515786,-81.59659741568645 28.453530592321535,-81.36241098509987 29.003700235007095,-81.43954273331434 29.74486351889798,-82.13319791213762 30.428475697325332,-82.72688012820788 31.062410712287036,-83.23766562373515 31.653112074212302,-83.67896212161625 32.20591163311911,-84.06143481707088 32.72526564695478,-84.39366601492317 33.21493232456539,-84.68263354801392 33.678107232508445,-84.93406340032575 34.11752788639397,-85.15269341665591 34.48807422889184,-85.21226669199908 34.65579186198835,-84.73734456746293 34.81870789465573,-84.21972020047828 34.9755404067781,-83.65349062879072 35.12464028376668,-83.03156234373145 35.263874280581405,-82.34533437018447 35.39046305464044,-81.58427352565353 35.500753282694966,-80.73533632058616 35.58989135922755,-79.78216849994307 35.863955737415914,-79.2238661199122 36.522215139375305,-79.56391129911982 37.14375071252391,-79.85624273237262 37.7323259971647,-80.1069385388859 38.29118931251825,-80.3210589810335 38.82316115396958,-80.50284501732872 39.330704108427454,-80.65587214160131 39.815979263585916,-80.78317077521677 40.28089208092093,-80.88732135126929 40.72712997440587,-80.97053004452233 41.15619330423555,-81.03468955321043 41.56942110077449,-81.08142822863536 41.968012539453575,-81.11215004266204 42.353044965170035,-81.12806729182297 42.37073399858329,-80.3953248628902 42.295680035946916,-79.43226403192686 42.16801957271638,-78.30815643054487 41.96841964203547,-76.9769612492495 41.66801249269807,-75.37282912258269 42.454636317620334,-75.80302222285495 43.20513372086986,-76.20641268726621 43.901832626471055,-76.54818016484455 44.551348336426045,-76.83760095549775 45.159214387609325,-77.08217862765325 45.730099451743314,-77.28804000416544 46.2679734193045,-77.4602299518162 46.77623612684738,-77.60293380137905 47.25781824352721,-77.7196472240666 47.715261146376335,-77.81330742799284 48.150780754129194,-77.88639551722886 48.566318982348356,-77.94101709906374 48.96358555120372,-77.9789663059719 49.33466536412461,-77.98566162004374 49.391053904512376,-77.4698155046676 49.43298275020238,-76.90759279132699 49.457503285201234,-76.2920925766352 49.46088305249844,-75.61491484950375 49.438349365216915,-74.86572526971457 49.38372840084286,-74.03165735601557 49.28892743487053,-73.09647608425402 49.14317597232707,-72.03938321143195 49.719363418350206,-72.0692841701421 50.28648875897739,-72.10218986812042 50.82848101883557,-72.11353527767636 51.34731990569563,-72.10525713404017 51.84476773904178,-72.07901544223382 52.322398133166,-72.03623514034146 52.781620068765875,-71.97814020627835 53.22369818711363,-71.90578171666428 53.64976996984286,-71.82006102949025 54.06086033466043,-71.72174900701589 54.457894073478606,-71.61150200030097 54.2580175150018,-70.67013741797656 53.85376514437463,-69.404739608517 53.30855239329805,-67.889717332273 52.56360976864752,-66.03720105478112 52.39631248270871,-64.87990956802486 53.333538948283945,-65.1413484189566 54.20407345378193,-65.34829332079103 55.015621019932134,-65.5086306951517 55.77469805283677,-65.6287985390998 56.48685577742576,-65.71409355412706 57.15685454815004,-65.76890380689417 57.78880124253453,-65.79688703585468 58.386258585636504,-65.80110875771449 58.33479666462236,-65.04254005408583 56.03166689178304,-61.58480632602642 56.22986274205243,-60.90264718846176 57.078760164740615,-60.95788106094518 57.87710336410006,-60.97863731207364 58.62968368284772,-60.969057832411856 59.340669796305065,-60.9326133645896 60.01370553789197,-60.87222519365875 60.65198950834005,-60.790361341551765 61.25834030666471,-60.68911321238797 60.35268727784191,-59.00623794891287 59.008979247738715,-56.80216602963517 58.77891407368435,-55.655261683481605 59.73539719742888,-55.673418500314234 60.63084805555793,-55.65472290045261 61.47124258259992,-55.6038818562974 62.26175593864291,-55.52481198457228 63.006891823055334,-55.42078797264654 63.162299200297355,-54.78087399524621 62.26098390558359,-53.15474943959338 61.09636259787084,-51.23371741467908 61.93619562205306,-51.0395251220694 63.00652059528845,-51.063837976919906 63.99845366615317,-51.046571784741 64.92062718280746,-50.99380567926676 65.09300191223751,-50.334782979020574 64.19247493160937,-48.782817872938104 63.768232363309956,-47.56809318316696 64.65055636565238,-47.36294943952299 65.48055523428106,-47.13410062045205 66.26253668664982,-46.88416780447092 67.0002938176968,-46.615352099781866 67.69717658664152,-46.32950481651044 65.84580147858344,-44.19188559794232 66.60388546211081,-43.852162179782376 67.32016188387384,-43.495459729998615 67.99742202819374,-43.12321396783165 68.55033069254196,-42.67699117806229 68.22690326173287,-41.6528504159507 67.8340589109823,-40.56150274736891 67.51713822617288,-39.49535298755763 68.2110996647383,-39.04324406187591 68.86597357759531,-38.57700979206661 68.42961900862996,-37.462707510745325 67.13944911085733,-35.8226156415541 67.21409668725454,-34.92149290831472 67.9187378333616,-34.36526976997727 66.30993035620236,-32.55487385142923 65.72760119457558,-31.240198482228756 66.2895532328886,-30.49147460108652 66.81187065187638,-29.72742842233241 67.2954621111147,-28.948450564200826 67.74106437284881,-28.154830112731794 68.1492477834757,-27.34676476149066 66.93741543063004,-25.830703359060944 65.08861541512576,-24.013018044682152 66.1637491877706,-23.337778429831943 68.35832142914275,-23.11214869134406 70.2851870707381,-22.82608017372308 70.6206588995773,-22.00353090130251 70.07761158879418,-20.87849373194937 69.4489269222719,-19.70848045286652 73.22632836062017,-19.92217232122938 76.58433125235223,-20.087083544414508 78.4210259496337,-19.87803682207707 78.12885083182834,-19.09937339085416 78.03430237303367,-18.36462849505187 80.14316926908394,-18.215997182536565 81.89191824456331,-18.023306070365784 83.3619003119671,-17.802269607215546 84.47941687883262,-17.530425996423133 85.45876096898917,-17.252775849187554 86.32346225920384,-16.972424822824667 87.09193841259844,-16.691496117723393 87.7788129180918,-16.411438467273634 88.39584451860374,-16.133230867318847 88.85986457172669,-15.837569621923237 88.43056861095602,-15.364883792699072 87.94497706443951,-14.866697909594983 87.39374824400778,-14.339943629726058 86.76532127089132,-13.781018698717991 86.04522421043592,-13.185660089735473 85.21510656504519,-12.54877881943278 84.80779990963029,-11.964122904994596 84.88679144799704,-11.451307479177478 84.9465482443825,-10.935588988244321 84.9870589807156,-10.41666667043057 85.0082210345021,-9.894226061907615 85.00983880721203,-9.36793884920237 84.99162094471002,-8.837462604300807 84.95317638518448,-8.30244042058887 84.89400914271302,-7.762500467441627 88.25407343971696,-7.641135476386313 90.85504901421514,-7.51931409516652 91.63293239861171,-7.260570485019846 91.79440564390241,-6.954662629041513 91.94122018060642,-6.651075313989189 92.07415967694605,-6.349568668875486 92.1939101989512,-6.049906101996772 92.30107002335403,-5.75185407306258 92.3961578995415,-5.455181772935723 91.9192983543787,-5.108883516972792 91.34030015240721,-4.7398071288552455 90.67395643041382,-4.346848300507985 89.9007600348046,-3.926573407016019 88.99490535990945,-3.4748270191772783 87.92153156871112,-2.986530106567146 86.63237957889456,-2.4554128520631715 86.35554431668797,-1.9512236555639344 z"
     id="path69"
     inkscape:connector-curvature="0"
     sodipodi:nodetypes="ccccccccccccccccccccccccccccccccccccccc" />
</svg>
