<?xml version="1.0" encoding="UTF-8" standalone="no"?>
<svg
   xmlns:dc="http://purl.org/dc/elements/1.1/"
   xmlns:cc="http://creativecommons.org/ns#"
   xmlns:rdf="http://www.w3.org/1999/02/22-rdf-syntax-ns#"
   xmlns:svg="http://www.w3.org/2000/svg"
   xmlns="http://www.w3.org/2000/svg"
   id="svg8"
   version="1.1"
   viewBox="0 0 210 297"
   height="297mm"
   width="210mm">
  <defs
     id="defs2" />
  <metadata
     id="metadata5">
    <rdf:RDF>
      <cc:Work
         rdf:about="">
        <dc:format>image/svg+xml</dc:format>
        <dc:type
           rdf:resource="http://purl.org/dc/dcmitype/StillImage" />
        <dc:title></dc:title>
      </cc:Work>
    </rdf:RDF>
  </metadata>
  <g
     id="layer1">
    <path
       id="path10"
       d="M 16.882202,-46.603544 0.84603043,-48.7417 l -0.181865,8.661068 -0.988704,-0.203024 -2.64530803,-0.448686 -3.820702,-0.453769 -4.5148914,-0.218273 -4.727871,0.2578 -4.459644,0.974453 -3.710209,1.931684 -2.479568,3.129493 -1.081607,8.001381 2.050459,7.700703 2.90238,5.796408 1.474159,2.288495 -37.417732,10.69078132 42.228584,13.63074568 -0.712788,6.092681 -0.501039,7.600693 0.157067,7.891632 1.375875,5.905393 3.155388,1.641978 3.4160394,-1.008003 4.017395,-1.493473 4.293017,-1.787887 4.242904,-1.891245 3.867056,-1.803547 3.1654731,-1.524793 2.1381565,-1.054984 0.785104,-0.394118 5.879929,3.207234 2.138157,-3.474504 2.80633,0.267271 4.677216,5.34539 2.672695,1.069078 1.603617,-3.474503 8.819894,-1.336347 -3.741773,-12.561669 25.105496,-5.643196 -9.50265,-9.7333788 0.05615,-1.5336262 1.192009,-0.8936074 0.987673,-0.3287582 4.044018,-0.3758478 3.229681,-0.6514695 1.535233,-1.00226068 -1.039323,-1.42822152 -4.49399,-1.9293518 -4.987814,-2.5150484 -2.341218,-2.9723296 -0.305376,-3.1853101 1.119713,-3.153989 1.93405,-2.878367 2.137634,-2.358445 1.730466,-1.594221 0.712545,-0.585696 0.377936,-0.3842 0.891594,-1.03567 1.041934,-1.511743 0.828953,-1.812422 0.252653,-1.937704 -0.686967,-1.887591 -1.989905,-1.662082 -3.656164,-1.261177 -4.035144,-1.548283 -2.989033,-2.418998 -2.099528,-2.957713 -1.366624,-3.164429 -0.790324,-3.039147 -0.370628,-2.581866 -0.107534,-1.792585 -10e-4,-0.671306 -16.57071,15.50163 -6.147199,-0.267269 1.069078,-9.087164 z"
       style="fill:#ffdd55;fill-rule:evenodd;stroke:#000000;stroke-width:0.26458332px;stroke-linecap:butt;stroke-linejoin:miter;stroke-opacity:1" />
  </g>
</svg>
