<?xml version="1.0" encoding="UTF-8" standalone="no"?>
<svg
   xmlns:dc="http://purl.org/dc/elements/1.1/"
   xmlns:cc="http://creativecommons.org/ns#"
   xmlns:rdf="http://www.w3.org/1999/02/22-rdf-syntax-ns#"
   xmlns:svg="http://www.w3.org/2000/svg"
   xmlns="http://www.w3.org/2000/svg"
   width="210mm"
   height="297mm"
   viewBox="0 0 210 297"
   version="1.1"
   id="svg8">
  <defs
     id="defs2" />
  <metadata
     id="metadata5">
    <rdf:RDF>
      <cc:Work
         rdf:about="">
        <dc:format>image/svg+xml</dc:format>
        <dc:type
           rdf:resource="http://purl.org/dc/dcmitype/StillImage" />
        <dc:title></dc:title>
      </cc:Work>
    </rdf:RDF>
  </metadata>
  <g
     id="layer1">
    <path
       id="path10"
       d="m -70.041822,0.8084925 c -2.999732,2.6918662 -7.928485,1.0004316 -10.71286,3.9362508 0.340266,3.1537616 4.587739,3.9294391 6.838295,5.6676607 2.395477,1.371331 7.186126,2.299259 2.585894,4.45349 -5.784664,4.585744 -10.956404,10.067985 -14.615942,16.513128 3.754029,2.085602 8.040392,3.109856 12.234068,3.937358 -0.07269,2.943594 -2.029118,6.200635 -1.123739,9.02418 2.901517,1.035173 3.114273,3.492707 0.339939,5.042525 -1.829258,1.696186 -6.375381,3.982387 -4.350843,6.770156 3.908014,0.571054 2.602801,3.309102 1.654789,5.96558 -1.451054,3.193587 3.116327,4.631364 5.012946,6.376617 6.033968,3.866393 13.277665,5.002203 20.303182,5.403714 2.845942,1.535113 2.820579,4.39166 2.997604,7.253011 0.244762,7.487134 0.07847,15.233174 2.721024,22.379187 14.011847,-3.02199 23.442962,-15.360291 30.439794,-27.002958 2.147886,-4.446689 1.395605,2.590542 2.092777,4.41676 1.703342,10.367099 4.5819068,21.334828 11.923411,29.177168 3.1459041,-5.32139 5.8820153,-11.020067 9.7374275,-15.810379 2.8248775,-2.812812 5.2644175,-6.597801 9.6321465,-6.839927 7.764691,-1.199091 15.834433,-0.24177 23.454416,-2.645184 -0.246451,-2.61147 -4.393786,-6.914661 -2.102959,-8.423412 6.208111,-2.55465 11.673605,-7.117579 14.86438,-13.070838 2.677544,0.927708 6.040905,4.224602 8.344724,3.505941 0.896064,-2.689654 2.162485,-5.730497 -0.506379,-7.876744 C 57.899034,53.728997 53.703686,48.786632 49.639343,43.743018 56.707861,44.307672 64.950547,38.203787 62.81671,30.53427 61.913742,26.910934 59.546892,21.502261 64.210029,19.421754 69.63945,16.898544 77.173803,18.336968 80.84662,12.579269 83.134449,7.7507441 77.957908,4.1957747 74.207186,2.3217494 71.0875,1.5424338 68.414544,-1.8115385 73.2682,-2.1500731 c 2.399879,-0.956581 7.816977,-0.065205 7.354351,-3.7988502 -3.496929,-2.8681391 -7.597926,-4.9329887 -11.729337,-6.7348397 6.60083,-5.24336 12.963931,-11.09363 17.105568,-18.551508 -3.750537,-2.091877 -8.035181,-3.123296 -12.227467,-3.95781 0.07761,-2.943467 2.039482,-6.197233 1.138826,-9.022287 -2.899782,-1.040024 -3.108429,-3.49791 -0.331507,-5.043087 1.832091,-1.693125 6.382031,-3.971722 4.362156,-6.762872 -3.907053,-0.577587 -2.597264,-3.313449 -1.644811,-5.968339 1.456391,-3.191156 -3.10858,-4.636568 -5.002277,-6.384989 -6.027495,-3.876477 -13.269283,-5.024397 -20.294118,-5.437654 -2.843372,-1.53987 -2.813233,-4.39637 -2.985473,-7.258013 -0.232243,-7.487533 -0.053,-15.233285 -2.683601,-22.383708 -14.016881,2.99856 -23.468612,15.321074 -30.484902,26.952025 -2.155318,4.443092 -1.391272,-2.592871 -2.085389,-4.420253 -1.686005,-10.369932 -4.5462276,-21.342462 -11.8746088,-29.197062 -3.1547974,5.31612 -5.9004332,11.010215 -9.7638497,15.794074 -2.8295765,2.808086 -5.2754415,6.58899 -9.6435695,6.823812 -7.766685,1.186107 -15.834816,0.215294 -23.458806,2.605964 0.242084,2.611878 4.382218,6.921998 2.088872,8.426916 -6.212374,2.544266 -11.68549,7.098051 -14.886215,13.045967 -2.675988,-0.932184 -6.033833,-4.234697 -8.33885,-3.51989 -0.90056,2.688152 -2.172064,5.726874 0.493208,7.87758 3.814485,5.239165 8.001563,10.188538 12.057467,15.23894 -7.067564,-0.576471 -15.320445,5.513623 -13.199434,13.186697 0.896908,3.624841 3.254711,9.037464 -1.411898,11.110171 -5.433632,2.514129 -12.96557,1.063109 -16.648009,6.814658 -2.295899,4.8246932 2.874691,8.388313 6.622273,10.2686071 1.532461,0.8994987 3.521495,1.3786674 4.161379,3.2543164 z"
       style="fill:#ffdd55;fill-rule:evenodd;stroke:#000000;stroke-width:0.26458332px;stroke-linecap:butt;stroke-linejoin:miter;stroke-opacity:1" />
  </g>
</svg>
