<?xml version="1.0" encoding="UTF-8" standalone="no"?>
<svg
   xmlns:dc="http://purl.org/dc/elements/1.1/"
   xmlns:cc="http://creativecommons.org/ns#"
   xmlns:rdf="http://www.w3.org/1999/02/22-rdf-syntax-ns#"
   xmlns:svg="http://www.w3.org/2000/svg"
   xmlns="http://www.w3.org/2000/svg"
   xmlns:sodipodi="http://sodipodi.sourceforge.net/DTD/sodipodi-0.dtd"
   xmlns:inkscape="http://www.inkscape.org/namespaces/inkscape"
   width="210mm"
   height="297mm"
   viewBox="0 0 210 297"
   version="1.1"
   id="svg8"
   sodipodi:docname="finalmamyMAKE.svg"
   inkscape:version="0.92.3 (2405546, 2018-03-11)">
  <sodipodi:namedview
     pagecolor="#ffffff"
     bordercolor="#666666"
     borderopacity="1"
     objecttolerance="10"
     gridtolerance="10"
     guidetolerance="10"
     inkscape:pageopacity="0"
     inkscape:pageshadow="2"
     inkscape:window-width="1920"
     inkscape:window-height="992"
     id="namedview15"
     showgrid="false"
     inkscape:zoom="0.55194007"
     inkscape:cx="515.91111"
     inkscape:cy="579.97052"
     inkscape:window-x="0"
     inkscape:window-y="24"
     inkscape:window-maximized="1"
     inkscape:current-layer="svg8" />
  <defs
     id="defs2" />
  <metadata
     id="metadata5">
    <rdf:RDF>
      <cc:Work
         rdf:about="">
        <dc:format>image/svg+xml</dc:format>
        <dc:type
           rdf:resource="http://purl.org/dc/dcmitype/StillImage" />
        <dc:title></dc:title>
      </cc:Work>
    </rdf:RDF>
  </metadata>
  <g
     id="layer1"
     
     
     >
    <path
       id="path10"
       d="m -43.641795,0.13979592 c 0.588992,0.56554268 1.276167,1.02177768 1.875441,1.56933338 -1.052384,0.6507679 -2.573371,0.949182 -3.258979,1.9811695 -0.356034,1.4589778 -0.538778,2.9169383 -1.354042,4.2131981 -0.480397,1.0146363 0.899391,1.8222117 1.392682,2.6318251 1.221596,0.720135 -0.353101,1.223637 -0.885475,1.857786 -0.73656,0.703417 -1.878461,1.332754 -1.461862,2.519 0.02451,0.81245 0.122783,1.702543 1.134988,1.756503 1.247681,0.06848 2.501574,0.110641 3.752729,0.08316 -0.328825,0.682277 -2.133776,1.380773 -1.534084,2.011796 1.221191,1.062672 2.81831,-0.573057 3.923929,-0.421408 0.313172,0.86872 0.706728,1.733874 -0.08901,2.46703 -0.115974,0.810885 1.694652,0.891199 2.324793,1.444155 1.396995,0.596694 2.524105,-0.979127 3.72369,-1.055367 1.265399,0.457982 1.82367,1.272907 1.444477,2.620769 0.693043,0.897683 1.898331,-0.425638 2.658145,-0.877824 1.090977,-1.220054 2.058873,-1.008526 3.097656,0.125592 -0.226537,1.053489 -0.949128,1.995698 -1.25218,3.054545 1.55068,-0.0364 1.843665,1.768761 2.892998,2.584169 0.367214,1.405073 1.654706,0.322252 2.453015,0.592045 1.35843,0.753444 0.870285,1.874268 0.360805,3.027356 -0.32736,1.236508 -0.157293,2.319603 1.090572,1.055661 1.020978,-0.664761 2.010542,-1.377217 2.9704,-2.127391 0.394665,1.502219 0.768938,3.14601 1.165639,4.666589 -0.491734,4.338928 -0.677008,8.928241 0.707036,13.093369 4.35585,-5.585372 7.2900047,-12.118438 9.8293934,-18.686934 0.7475432,0.130378 1.0579248,1.565549 1.7153273,2.155404 0.6615073,1.534198 1.316716,0.459 1.5666696,-0.682146 0.8497306,-2.197465 1.5801465,-4.440159 2.2077977,-6.710811 1.36639723,1.074544 2.5154801,2.727194 4.2117649,3.243523 1.0173886,0.02436 2.0370368,-0.04685 3.0410959,-0.21285 -0.045019,-1.594574 -0.196805,-3.183007 -0.3009284,-4.774251 0.8598184,1.1601 1.673862,2.384292 2.7290524,3.374799 1.4051844,-0.425741 3.0717722,-0.759391 4.1181052,-1.782325 0.464956,-1.161247 0.828984,-2.362533 1.091061,-3.585558 1.258144,0.219895 2.449772,1.154877 3.73947,1.52637 0.706246,-0.866344 1.784514,-1.868682 1.014624,-3.050719 -0.01264,-0.886509 -1.431182,-2.528016 -0.596918,-2.926231 1.041855,-0.149566 2.17474,-0.1633 3.125147,-0.620164 0.250353,-1.09911 0.75645,-2.33392 -0.245856,-3.217053 C 19.992916,11.904459 19.108875,10.845393 18.310122,9.725643 19.207088,9.403407 20.799892,9.4759053 21.146101,8.6638459 19.502839,6.5511747 17.515141,4.7241728 15.355345,3.1508379 16.16433,2.6961955 18.529915,3.0144122 18.242523,2.0002586 15.808913,-0.71849815 12.129959,-1.7662565 8.6610902,-2.4129651 8.9737436,-3.4315174 10.16528,-4.8024033 8.1618308,-4.3525577 6.2875399,-4.31005 4.5140934,-3.6708884 2.7169302,-3.2606702 4.0343988,-7.3540896 3.3337514,-11.829268 1.8044928,-15.763995 c -0.89803434,0.004 -1.73803019,2.083488 -2.33029379,0.879337 -0.97720131,-1.623063 -2.43025001,-2.94198 -3.59813491,-4.360971 -0.5291167,-1.312602 -0.5146805,-3.002043 -1.399292,-4.068185 -1.3744839,-0.987561 -2.8577071,-1.824398 -4.417288,-2.482344 -0.8102001,0.902726 -1.3029641,2.068614 -1.8316931,3.156613 -1.837647,-1.486782 -3.132559,-3.743502 -5.111719,-5.050133 -2.293394,-0.494417 -4.67025,-0.627693 -7.000063,-0.334022 -0.748282,1.420298 -0.950091,3.078481 -1.416224,4.566461 -3.097755,-1.089552 -6.339373,-1.822425 -9.626351,-1.967452 -0.272238,1.148922 0.01129,2.48375 0.140792,3.686194 -5.151198,-2.020036 -10.406207,-4.214096 -16.00532,-4.501741 0.533344,1.633147 1.32598,3.333896 3.046472,3.979137 0.946576,0.475608 2.051652,1.053208 0.458751,1.377118 -0.573723,0.362617 -1.99129,0.660897 -0.990947,1.425746 1.633384,2.164876 4.638756,2.649185 6.452119,4.659586 0.774238,0.618256 2.269506,1.500443 0.431094,1.485742 -1.867029,0.118577 -0.0658,0.786427 0.79048,1.209652 1.762843,0.904322 3.614339,1.622415 5.376956,2.5240949 -1.333492,0.8293458 -2.734958,1.703252 -3.74968,2.8892474 0.631556,0.7822105 1.311818,1.5247298 2.030917,2.2271755 -1.806708,0.5979105 -3.951394,0.6658165 -5.516948,1.711453 -0.432088,0.8131341 -1.575211,1.76355747 -1.33324,2.63040028 l 0.107588,0.18291985 z"
       style="opacity:0.68000034;fill:#808080;fill-rule:evenodd;stroke:#000000;stroke-width:0.26458332px;stroke-linecap:butt;stroke-linejoin:miter;stroke-opacity:1"
       inkscape:connector-curvature="0" />
  </g>
</svg>
