<?xml version="1.0" encoding="UTF-8" standalone="no"?>
<!-- Created with Inkscape (http://www.inkscape.org/) -->

<svg
   xmlns:dc="http://purl.org/dc/elements/1.1/"
   xmlns:cc="http://creativecommons.org/ns#"
   xmlns:rdf="http://www.w3.org/1999/02/22-rdf-syntax-ns#"
   xmlns:svg="http://www.w3.org/2000/svg"
   xmlns="http://www.w3.org/2000/svg"
   xmlns:sodipodi="http://sodipodi.sourceforge.net/DTD/sodipodi-0.dtd"
   xmlns:inkscape="http://www.inkscape.org/namespaces/inkscape"
   width="210mm"
   height="297mm"
   viewBox="0 0 210 297"
   version="1.1"
   id="svg19"
   inkscape:version="0.92.3 (2405546, 2018-03-11)"
   sodipodi:docname="fusiongrenage.svg">
  <defs
     id="defs13" />
  <sodipodi:namedview
     id="base"
     pagecolor="#ffffff"
     bordercolor="#666666"
     borderopacity="1.0"
     inkscape:pageopacity="0.0"
     inkscape:pageshadow="2"
     inkscape:zoom="1.3318254"
     inkscape:cx="-164.41018"
     inkscape:cy="1134.9154"
     inkscape:document-units="mm"
     inkscape:current-layer="layer1"
     showgrid="false"
     inkscape:window-width="1920"
     inkscape:window-height="992"
     inkscape:window-x="0"
     inkscape:window-y="24"
     inkscape:window-maximized="1" />
  <metadata
     id="metadata16">
    <rdf:RDF>
      <cc:Work
         rdf:about="">
        <dc:format>image/svg+xml</dc:format>
        <dc:type
           rdf:resource="http://purl.org/dc/dcmitype/StillImage" />
        <dc:title></dc:title>
      </cc:Work>
    </rdf:RDF>
  </metadata>
  <g
     inkscape:label="Calque 1"
     inkscape:groupmode="layer"
     id="layer1">
    <path
       style="opacity:0.4766005;fill:#916f6f;fill-rule:evenodd;stroke:#000000;stroke-width:0.99999994px;stroke-linecap:butt;stroke-linejoin:miter;stroke-opacity:1"
       d=" M -186.0160613507858,1.0788059376877812 -186.2111313552643,2.1574768124750974 -186.39274129124513,3.2359356509913386 -186.56095344195728,4.3141066279500215 -186.7158281087078,5.391915005438626 -186.8574236291015,6.469287073550502 -186.98579639484353,7.546150092290881 -187.1010008691232,8.622432234691185 -187.2030896035796,9.698062531067942 -187.29211325484934,10.77297081436452 -187.36812060069659,11.847087666515751 -187.4311585557275,12.920344365777236 -187.48127218669012,13.992672834962823 -187.51850472736172,15.064005590535158 -187.54289759302617,16.13427569249577 -187.5544903945442,17.203416695022486 -187.5533209520184,18.27136259780315 -187.5394253080581,19.338047798015914 -187.51283774064532,20.403407042907407 -187.47359077560773,21.467375382921137 -187.75253177646277,22.565665371102007 -189.85299231070684,23.87096528137103 -191.88326906450803,25.16599970379421 -193.84633104032272,26.450523066441125 -195.74498459520782,27.72433670657188 -197.58188425335888,28.987283321592358 -199.3595426804119,30.239242083646257 -201.08033989275918,31.480124331935876 -202.74653176813555,32.70986976906851 -204.3602579174536,33.928443098028836 -205.92354897221074,35.135831045100396 -206.78922988173315,36.22547851099213 -206.86725126468414,37.18025292658681 -206.93482971670213,38.13272903720162 -206.9920404925501,39.08288227544292 -207.03895671719226,40.030688570911 -207.0756494203656,40.97612431546237 -207.10218757013675,41.919166329426595 -207.11863810546745,42.85979182872925 -207.125065967814,43.79797839287483 -207.12153413178206,44.73370393374483 -207.10810363486115,45.666946665168254 -207.08483360625868,46.59768507322301 -207.05178129485597,47.52589788722847 -207.00900209630572,48.45156405139059 -206.95654957929204,49.37466269706293 -206.89447551097044,50.295173115586955 -206.82282988160833,51.21307473167785 -206.74166092844257,52.128347077321614 -205.62593631608007,52.7893429490238 -204.39221000488473,53.4226813325844 -203.13397642289567,54.051811307933264 -201.85066236379663,54.67645369808887 -200.54167611925965,55.296314175063095 -199.20640676983027,55.91108235934635 -197.844223445262,56.52043085772364 -196.45447455301718,57.124014234541825 -195.03648697361783,57.72146791110194 -193.5895652215131,58.31240698736272 -192.1129905701089,58.896424979598464 -190.60602013960127,59.47309246705605 -189.06788594625505,60.04195563999089 -188.46722050305806,60.90370225261206 -188.43667623913154,61.946098518128196 -188.3944634103078,62.98432524332781 -188.34068448320426,64.01835518151128 -188.27543930028787,65.04816165047323 -188.1988251300117,66.07371848651685 -188.11093671559334,67.09499999989595 -188.01186632247257,68.11198093161218 -187.90170378448317,69.12463641149793 -187.78053654877414,70.13294191751815 -187.64844971951302,71.13687323622725 -187.50552610040538,72.13640642432028 -187.35184623606145,73.13151777121928 -187.1874884522417,74.12218376263885 -187.01252889501032,75.10838104507657 -186.8270415688281,76.09008639117653 -186.63109837361102,77.06727666591588 -186.4247691407845,78.03992879356635 -186.20812166835864,79.00801972538432 -185.98122175505247,79.97152640798477 -185.74413323349162,80.93042575235627 -185.4969180025055,81.88469460347488 -185.23963605854743,82.83430971047737 -184.9723455262625,83.77924769735439 -185.83961901251664,85.22922775027017 -186.75156397931303,86.69692607790101 -187.6307300251089,88.14700949552837 -188.47823884406498,89.5797548725706 -189.2951625916318,90.99543738681345 -190.0825265250299,92.39433010210386 -190.84131147813412,93.77670360556486 -191.57245618266504,95.14282569738417 -191.66738939355668,96.19503189764765 -191.28343363016836,97.00932841035284 -190.89106780540973,97.81934351689904 -190.49030873259852,98.62505457551975 -190.08117191218045,99.42643832981206 -189.66367154371036,100.22347088793686 -189.2378205373868,101.01612770162845 -188.80363052515136,101.80438354499343 -188.36111187136265,102.58821249307785 -187.9102736830562,103.36758790018247 -187.45112381980027,104.1424823779053 -186.98366890315748,104.9128677728903 -186.50791432576293,105.67871514426137 -186.02386426002795,106.43999474072027 -184.83358701668865,106.80312833405004 -182.8104353203074,106.69392043013181 -180.73724957335463,106.5599559168142 -178.61220126576396,106.39980039116809 -176.4333723242539,106.21191956973432 -174.19874979480878,105.99467083420583 -171.90622017635496,105.74629391529155 -170.85739444939898,106.25569055575231 -170.5082512949252,107.19513103231249 -170.14953943899374,108.12826972861846 -169.78133365598154,109.05509644538238 -169.4037066768634,109.97560067235634 -169.01672922940287,110.88977156270566 -168.6204700772887,111.79759790788452 -168.21499605824997,112.69906811297574 -167.80037212118168,113.59417017245863 -167.37666136231257,114.4828916463695 -166.9439250604441,115.3652196368206 -166.50222271129127,116.24114076484486 -166.0516120609533,117.11064114753424 -165.59214913854197,117.97370637544105 -165.12388828799575,118.83032149021173 -164.64688219910448,119.68047096242435 -164.16118193777282,120.52413866960121 -163.6668369755453,121.36130787436885 -163.16389521841958,122.19196120273826 -162.65240303497137,123.01608062247962 -162.13240528381382,123.83364742156466 -161.6039453404162,124.64464218665225 -161.06706512330277,125.4490447815921 -160.52180511965537,126.24683432592204 -160.2993496870379,127.2950767030633 -160.99965518560384,129.065690857209 -161.66608319032736,130.80593468228275 -162.30002121035966,132.51656864218964 -162.90278532226358,134.19833028159908 -163.47562459621943,135.8519348147169 -163.80541609150214,137.30224455196492 -163.35173867071677,138.10100675545067 -162.89072727381162,138.89316733603548 -162.42243630776156,139.6787324584964 -161.94691855362527,140.45770759516458 -161.46422519916175,141.23009751429038 -160.97440587055138,141.9959062684725 -160.4775086632517,142.75513718313275 -159.97358017201515,143.5077928450165 -159.46266552009666,144.2538750907016 -158.94480838767763,144.9933849950965 -158.42005103953198,145.72632285991202 -157.88843435195966,146.45268820208753 -157.34999783901094,147.17247974215675 -156.80477967802693,147.88569539253626 -156.25281673451747,148.59233224571977 -155.6941445863999,149.29238656236404 -155.1287975476206,149.98585375924984 -154.55680869117964,150.67272839710265 -153.9782098715804,151.35300416825885 -153.39303174672366,152.02667388416126 -152.80130379926615,152.6937294626704 -152.20305435746303,153.35416191517564 -151.5983106155132,154.00796133349246 -150.9870986534258,154.65511687653074 -150.36944345642593,155.2956167567195 -149.7453689339183,155.92944822617386 -149.11489793802502,156.55659756258933 -148.47805228171597,157.17705005484868 -146.89567638168072,156.8090198511322 -144.90059246840647,156.01004337050963 -142.85911736831315,155.16741463947642 -140.76957767693548,154.2788104211766 -138.6302207470223,153.3417482470111 -137.3388017463435,153.3361488806271 -136.65093543462342,153.99803182772047 -135.95616467108206,154.65210047736096 -135.25452369373036,155.29833550247056 -134.5460456480829,155.9367164931885 -133.83076261109804,156.56722193884147 -133.10870561474783,157.1898292096279 -132.3799046692388,157.80451453799762 -131.6443887859054,158.4112529997086 -130.9021859997982,159.01001849454244 -130.15332339198753,159.60078372666104 -129.3978271116048,160.18352018458512 -128.63572239764213,160.75819812077626 -127.86703360053193,161.32478653080435 -127.09178420352855,161.88325313208065 -126.30999684391219,162.43356434213808 -125.52169333403768,162.9756852564388 -124.72689468224968,163.5095796256901 -123.92562111368584,164.03520983264823 -123.11789209099058,164.55253686839018 -122.30372633496127,165.06152030803273 -121.48314184515013,165.56211828587806 -120.65615592044396,166.05428746996435 -119.82278517964612,166.5379830360001 -118.98304558208335,167.01315864065938 -118.63953504886364,168.1759303374541 -118.67983031541952,169.87339881307855 -118.70127619472241,171.53999450812785 -118.7046676502247,173.17649260354344 -118.6907598769147,174.78364298326707 -118.66027063942276,176.3621711569009 -118.61388244973391,177.91277915123868 -118.55224459713597,179.4361463708064 -118.47597504190512,180.93293042773257 -118.38566218321806,182.40376794141875 -117.91506093710852,183.2918173824446 -117.22843324314758,183.84659508849637 -116.53703020661564,184.39354288919677 -115.84088587677321,184.9326685424378 -115.14003328707149,185.46397869426312 -114.43450447977465,185.9874788740297 -113.72433053004714,186.50317348927396 -113.00954156952763,187.0110658202753 -112.29016680941268,187.51115801430694 -111.56623456307187,188.00345107956713 -110.83777226821535,188.48794487878078 -110.10480650863539,188.96463812246427 -109.3673630355416,189.4335283618437 -108.62546678851119,189.8946119814185 -107.87914191607271,190.3478841911613 -107.12841179594434,190.79333901834505 -106.37329905494441,191.2309692989886 -105.44969795506454,191.3700238671807 -103.33403394310902,189.37899371741196 -101.1542939975788,187.28446759662114 -98.90732473961698,185.0792907945503 -96.58977069453364,182.75564809183606 -94.1980603419759,180.3049862967849 -92.35389509880926,178.89709442986776 -91.5038314388988,179.39180930610482 -90.64880390655574,179.8767173835354 -89.78885842750631,180.35180970613715 -88.92404005555429,180.8170759863601 -88.05439300425117,181.27250459329153 -87.17996067821686,181.71808254050345 -86.30078570414041,182.15379547357009 -85.41690996148822,182.57962765724096 -84.52837461294973,182.99556196225757 -83.63522013464792,183.40157985179954 -82.73748634614324,183.79766136754716 -81.8352124402594,184.1837851153479 -80.92843701275903,184.559928250472 -80.01719809189757,184.9260664624454 -79.10153316788357,185.28217395944534 -78.18147922227435,185.62822345224592 -77.25707275733483,185.96418613769922 -76.32834982538915,186.29003168173864 -75.39534605819344,186.60572820189057 -74.45809669635966,186.91124224927967 -73.51663661885976,187.20653879011388 -72.5710003726403,187.49158118663485 -71.62122220237833,187.7663311775182 -70.69448033200989,188.1005908605432 -70.85923093927892,191.28452223911097 -70.98392142911115,194.34896032310488 -71.07187445108373,197.30041775231282 -71.12609774457918,200.14494367849068 -71.14931912191425,202.88816380279718 -71.05455590175845,205.28525310720832 -70.15880352584263,205.39944096146561 -69.25951123988013,205.50463654461586 -68.35668770310242,205.60077948331363 -67.45034157948831,205.68780750992596 -66.54048156036446,205.76565643008706 -65.62711638756578,205.83426008923823 -64.71025487719179,205.8935503381259 -63.78990594399267,205.94345699722706 -62.866078626426024,205.98390782007434 -61.938782112420846,206.0148284554467 -61.00802576589181,206.03614240839588 -60.07381915404496,206.04777100007357 -59.13617207552089,206.04963332632616 -58.19509458942081,206.04164621502022 -57.25059704526491,206.02372418206195 -56.30269011393314,205.99577938607317 -55.35138481964248,205.9577215816834 -54.3966925730155,205.90945807139724 -53.43862520529841,205.85089365599526 -52.47719500379056,205.78193058342393 -51.51241474854786,205.70246849612937 -50.544297750428136,205.61240437678887 -49.57285789054818,205.51163249239008 -48.59810966122609,205.40004433660934 -47.62006820848662,205.27752857043598 -46.63874937621022,205.14397096098972 -45.65416975201146,204.99925431847504 -44.66634671493638,204.84325843121522 -43.67529848507293,204.67585999870724 -42.68104417517373,204.49693256263473 -41.683603844395385,204.30634643577667 -40.68299855426446,204.10396862874586 -39.528630930150904,203.15802258472598 -38.04458151445734,200.58250514507958 -36.53360371800856,197.89229753073226 -34.995218772744074,195.0802706489741 -33.42899458684638,192.1386993042957 -31.83456050453947,189.05919898092057 -30.211625526568575,185.83265444011363 -28.72178975324217,183.40630158741544 -27.655257163192104,183.5834337864561 -26.586738612606972,183.7476286239868 -25.516306592297806,183.89887663904753 -24.44403333900023,184.03716672929082 -23.36999088292049,184.16248614386592 -22.294251095273218,184.2748204760266 -21.216885735855115,184.37415365545684 -20.137966500698294,184.4604679403084 -19.057565069847644,184.53374390894507 -17.975753155306503,184.59396045138817 -16.892602549195537,184.64109476045877 -15.808185172170456,184.67512232261242 -14.722573122143572,184.69601690846133 -13.63583872335605,184.70375056298155 -12.548054575847804,184.69829359540074 -11.459293605372133,184.67961456876344 -10.36962911380405,184.64768028917192 -9.279134830091216,184.6024557946991 -8.187884961797465,184.54390434397268 -7.0959542472905275,184.47198740442738 -6.003418008625582,184.38666464022592 -4.9367089112405385,184.9663255252961 -3.9525935914766026,188.04232725595332 -2.9671660710562624,191.00003715367765 -1.9816807136757286,193.845694261167 -0.9972288428577593,196.5851111790479 0.008509488060993168,197.17463401150383 1.0207012743756148,196.614918179905 2.0335092736658464,196.03967055599693 3.0468447274111723,195.448681267903 4.060615136601938,194.8417354109317 5.074724090819481,194.21861292828223 6.089071089226578,193.57908848852125 7.103551353023914,192.92293135976212 8.118055628902876,192.2499052804831 9.132469982994689,191.5597683269211 10.146675584785996,190.85227277698075 11.160548480435441,190.12716497059975 12.173959354893837,189.38418516651777 13.186773282188256,188.62306739539773 14.1988494631927,187.84353930925514 15.210040950161876,187.04532202715572 16.220194357258812,186.22812997715062 17.229149556255692,185.39167073442354 18.236739356532674,184.53564485563743 19.24278916844214,183.65974570947532 20.247116649040876,182.76365930338682 21.249531329127155,181.84706410656193 22.24983422044414,180.9096308691741 23.24781740183456,179.95102243795085 23.899665799165373,176.17303476467274 24.393003047486847,171.171356005541 24.845253757655808,165.88387681855542 25.248610447179328,160.28608487713177 25.6342954863804,154.61883139585368 26.891564324608726,154.48430168705178 28.145907459787896,154.3318681969657 29.3971709638625,154.1615818251837 30.645201272016624,153.97349186886387 31.889845091997906,153.76764604002406 33.1309493141381,153.54409048333687 34.368360921988746,153.302869794433 35.60192690349241,153.04402703872054 36.83149416261049,152.76760377072694 38.056909431329224,152.47364005397515 39.278019181967025,152.1621744814057 40.49466953970708,151.83324419636054 41.70670619527883,151.48688491414373 42.91397431771341,151.12313094418028 44.11631846709858,150.7420152127926 45.31358250725819,150.3435692866191 46.505609518282284,149.92782339670052 47.6922417088341,149.49480646326222 48.96583855799383,149.3409697416333 51.535906614154385,153.22560168269277 54.044809692674995,156.9054853071314 56.49384606917515,160.39499012276545 58.88445318052142,163.70718817441272 61.21816042882833,166.85399688929303 63.02132616341063,168.52543808668221 64.2680748860883,168.68057961240348 65.50855191567354,168.81925839242697 66.74271325465395,168.94172144938716 67.97051755543308,169.04820975604363 69.19192596915755,169.13895839048288 70.4069020018095,169.21419668677623 71.61541137716556,169.274148381227 72.81742190625008,169.31903175433985 74.01290336292999,169.3490597686377 75.20182736531916,169.36444020245315 76.38416726268078,169.36537577981522 77.03561159373216,168.16980918776497 76.31569418764902,163.9294457510255 75.50508358711416,159.48977530392506 74.5941325337363,154.83654822983246 73.57188908157971,149.9541520483025 74.28220962297362,148.66993124120444 75.42810490252631,148.27328981095127 76.56670334576853,147.8618594008514 77.69791399137065,147.43574373340152 78.82164616487717,146.995044375636 79.93780940816177,146.53986078351784 81.0463134101407,146.07029034591127 82.14706793866517,145.58642842815823 83.23998277351491,145.08836841528114 84.32496764041821,144.57620175483663 85.40193214602547,144.05001799944304 86.47078571376593,143.50990484900768 87.53143752051837,142.95594819267947 88.58379643402957,142.3882321505523 89.6277709510156,141.8068391151474 90.66326913588173,141.21184979270126 91.69019856000045,140.6033432442884 92.70846624148601,139.98139692680763 93.71797858540793,139.34608673386174 94.71864132438397,138.69748703656185 98.53754365966577,142.23191107592584 102.59719500889142,146.11481837954247 106.46766956343994,149.7245297112259 108.9005683315665,151.28852275425947 109.46382180713027,150.22284504958438 110.01763732427374,149.14367794925622 110.5618072858952,148.05092487778782 111.09611806951759,146.94448800994462 111.6203498247525,145.82426830295225 112.13427626299722,144.69016553198836 112.63766443901416,143.54207832921773 113.1302745240299,142.37990422665115 113.61185956996732,141.20353970312715 112.69799341603637,138.27024617590263 109.73246432193703,132.78743227459398 106.48095445006403,126.95883649105185 104.65871005666962,122.86664257235424 105.59577400655682,122.06452177005099 106.52163812057061,121.2493763842077 107.43619332462804,120.42129713353691 108.3393294388022,119.58037362639844 109.23093511509063,118.72669441462557 110.11089777530361,117.86034704777006 110.97910354902075,116.9814181278144 111.83543721156455,116.08999336440536 112.6797821219424,115.18615763066147 113.5120201607069,114.26999501961194 114.33203166768645,113.34158890132328 115.13969537953885,112.40102198077444 115.93488836708171,111.44837635654162 116.71748597235222,110.4837335803575 117.48736174535138,109.50717471761078 118.24438738042778,108.51878040885515 118.98843265225636,107.5186309323983 119.71936535136784,106.50680626804667 120.5657087827348,105.59930084217321 124.05764066923325,107.03852201359506 127.444113677816,108.38019037693948 129.45808478624951,108.53584521456723 129.50872846751002,107.02283790397281 129.53945644367352,105.4942146662556 129.5497456597893,103.94989079128406 129.5390554516249,102.38978491372877 129.50682684925548,100.81381941821773 129.45248184855942,99.22192087787988 129.3754226489493,97.61402052913003 129.27503085557063,95.99005478581039 129.1506666441082,94.34996579610511 129.00166788622832,92.69370204596525 128.82734923358024,91.02121901314656 128.62700115816403,89.33247987636065 128.39988894675085,87.6274562844869 128.14525164691256,85.90612919128374 127.86230096209086,84.16848976159267 127.55022009299044,82.41454035563515 127.20816252244524,80.6442955986929 126.83525074075052,78.85778354422122 126.43057490830755,77.05504693930476 125.99319145226536,75.23614460232075 125.52212159369108,73.40115292375627 125.06379947851431,71.57831597438529 124.68302099482744,69.80519212494362 124.26975321809425,68.01808659441299 123.8230960821023,66.21715860403022 123.34211840823576,64.40258820437305 122.82585667107665,62.57457799474414 122.27331371204791,60.73335498844628 121.68345739936603,58.87917263795847 121.05521923263758,57.0123130355694 120.38749289054326,55.13308930677636 119.67913272020625,53.24184821573423 118.92895216704397,51.33897300427482 118.13572214418129,49.424886488563054 117.29816934085538,47.50005444034054 116.41497446970396,45.564989283006774 115.4847704534113,43.620254136549924 114.50614055192996,41.66646724965715 114.65294094500142,40.14036266358084 114.97344936832746,38.67878575724505 115.26727810171455,37.20924788192815 115.53422316523042,35.7321072646298 115.77407990772366,34.24772618762951 115.98664299092943,32.756471222550296 116.17170637835497,31.25871347050314 116.32906332912638,29.754828808574402 116.5797321499695,28.277018003609154 119.95121866114623,27.577810880316264 123.22265495921275,26.836785363887675 126.39754859656053,26.05787507986167 245.96911662307403,50.02392177549034 245.78785184469362,49.30077687392369 245.59897972372542,48.57488823318317 245.40240197566536,47.84623904747096 245.19801767697274,47.11481255335843 244.98572319601098,46.38059204492279 244.76541212156724,45.64356088970866 244.53697518885562,44.90370254556551 244.30030020290863,44.16100057841105 244.05527195925265,43.41543868097322 243.62679894434075,42.63473896817247 242.84739526231365,41.78839241292008 242.0471670790797,40.93514653672922 241.22549442841088,40.074920001213364 240.3817321756152,39.207631990888956 239.5152087513421,38.33320240341928 238.6252248084854,37.45155206102072 238.01497703805703,36.61226167927982 238.05911114944433,35.87546143440873 238.0964131878049,35.137381945167725 238.12686372639564,34.39802656067947 238.1504421106649,33.6573985747691 238.16712644788,32.91550123695256 238.17689359620903,32.17233776353171 238.179719153246,31.42791134881028 238.17557744397132,30.682225176441968 238.1644415081371,29.93528243092629 238.14628308706696,29.18708630926383 238.1210726098598,28.43764003278696 238.08877917898621,27.686946859178807 238.04937055526509,26.935010094696274 238.00281314220894,26.18183310661223 237.9490719697241,25.4274193358921 237.88811067715318,24.67177231012202 237.81989149564487,23.91489565670402 237.7443752298372,23.156793116335997 237.66152123883813,22.397468556794617 237.57128741648836,21.636925987038136 237.4736301708891,20.875169571650623 237.36850440317815,20.112203645643973 237.25586348553546,19.34803272964078 237.13565923840062,18.58266154545818 237.00784190688174,17.81609503211372 236.87236013633623,17.048338362277384 236.7291609471022,16.27939695919342 236.5781897083586,15.509276514094344 236.41939011109136,14.737983004135469 236.25270414014255,13.965522710875309 236.07807204531696,13.191902239328204 237.19884447337733,12.498180207050071 238.59333879218008,11.823983475088525 239.95043925475366,11.152007944578045 241.2714727777858,10.482396002795651 242.55770399244992,9.815275134069962 243.81033883118644,9.150759206478824 245.03052787040033,8.488949641518168 246.21936944813064,7.829936478386879 247.3779125740818,7.173799343256288 248.50715964788975,6.5206083327727695 249.60806900014012,5.870424820055018 250.6815572694156,5.223302190572918 250.46622042425506,4.545049681869532 250.07844961769638,3.861774117845424 249.68160094537427,3.1768835275771137 249.275538342261,2.490380132684233 248.8601221409728,1.8022669024047786 248.43520896864888,1.1125475949466077 248.00065164006108,0.4212268009448959 247.5562990468001,-0.2716900108602535 247.1019960423741,-0.9661964456003337 246.63758332305042,-1.6622851317745373 246.16289730425936,-2.3599476681283913 245.6777699923752,-3.05917456776262 245.18202885167543,-3.75995519931557 244.67549666627357,-4.462277725048393 244.15799139680826,-5.166129035656391 243.54919675021566,-5.870302840628395 242.3711342361026,-6.566300584426152 241.16231060601163,-7.265468602806062 239.9216732363609,-7.967727964118712 238.6481206046781,-8.672989102114393 237.34049944313395,-9.381150824616931 235.99760169182346,-10.092099225253344 234.61816123528507,-10.80570648768795 233.2008504041803,-11.521829570527991 231.74288043327826,-12.24024858576727 230.24225169452237,-12.960759740558617 228.69920320991403,-13.683252207178542 227.11211129695036,-14.407504913250538 225.47926828555836,-15.133272506727875 223.65093086078625,-15.851286725370437 220.89723830667313,-16.514056669328603 218.02299921805923,-17.175098738691915 215.92710150580135,-17.89897611766875 215.31580918885885,-18.740973573331292 214.6910261406178,-19.58302813184542 214.05255691861487,-20.425073772867258 213.40020119729985,-21.26704148415939 212.73375363945857,-22.10885912643622 212.05300376350826,-22.950451291698663 211.3577358065297,-23.79173915469901 210.6477285828975,-24.632640317155747 209.92275533836334,-25.473068644314907 209.1825835994474,-26.312934093425213 208.42697501798375,-27.15214253367299 207.65568521066774,-27.990595557088522 206.1448735682823,-28.73528008316333 204.08902113290713,-29.40993869872189 201.9716223856796,-30.07935801708869 199.79012642183423,-30.742760097430427 197.54184045209686,-31.399293409767772 195.75530445107037,-32.12906934002272 194.60471396596128,-32.96115198336653 193.43005329507872,-33.790472100947056 192.23081169865793,-34.61677834751948 191.006463388321,-35.43980585426917 189.75646702242986,-36.259275452261285 188.48026518371012,-37.07489284512044 187.17728383871963,-37.886347727113794 185.8469317787614,-38.693312842479784 184.48860004188177,-39.49544298147704 183.47298634747472,-40.3694308556295 183.6474350040375,-41.49789694758669 183.8076095735072,-42.62292558146709 183.95366298907214,-43.74446161802681 184.08574458944395,-44.86245168516599 184.2040001923534,-45.97684408846027 184.308572166183,-47.08758872508958 184.3995994997762,-48.19463700100048 184.47721787046876,-49.297941751145785 184.54155971038193,-50.397457162652316 184.59275427101974,-51.4931387007766 184.63092768621078,-52.58494303751145 183.32490099973387,-53.302684888993824 181.49790523980687,-53.87332912257569 179.6288425660914,-54.43288575959101 177.716474236372,-54.980580599134626 175.75951365187194,-55.51558803806881 173.75662424188184,-56.03702715156338 171.70641725956963,-56.543957420751354 169.60744948847497,-57.03537407000752 167.91729692608433,-57.66137690672811 166.22739604043656,-58.28727796564388 164.50313571138437,-58.90103847747193 162.74372352067414,-59.50196293265348 160.94834413520948,-60.08931670440871 158.8639146112936,-60.5699507305425 155.50051423491416,-60.57083497708114 152.02285761511382,-60.524947675902 149.77278321501885,-60.95473694008453 149.4109534532027,-62.13638235816881 149.0331545721735,-63.311604922762655 148.63947430858335,-64.48028732261048 148.22999852723413,-65.64231245568874 147.43332015558292,-66.63583567032877 146.46111634164663,-67.55081938855177 145.4711062224733,-68.45690195549645 144.46318944116203,-69.35382660393047 143.43726464820932,-70.2413296882629 142.3932295687422,-71.11914044358141 141.0604297523912,-71.85396932242965 139.68542062860672,-72.56599190762985 138.2877760201738,-73.26463820796825 136.8672561550532,-73.94942593830208 134.97436941901603,-74.38075869309353 132.41573728576165,-74.44723222829697 129.80023371592839,-74.47650265169509 127.12632817347108,-74.46629614776742 124.39245262344632,-74.41417711083957 121.59700307073624,-74.31753397034602 119.86235926994802,-74.85087795064976 119.1243646960291,-75.99314914892946 118.36812646656682,-77.12378883240083 117.59376399810017,-78.24259211637036 116.8013961137616,-79.34935325879883 115.9911411138728,-80.44386555569984 115.16311684834108,-81.52592123708956 114.3174407909265,-82.59531136341293 113.45423011545854,-83.65182572237187 112.57360177408266,-84.6952527260841 111.67567257762458,-85.7253793085034 110.76055927816311,-86.74199082303234 109.82837865390866,-87.74487094026256 111.57266596452487,-90.8580653215346 116.39579181923759,-96.45936035797875 119.0431703036353,-100.3020860844293 118.17557587147154,-101.23163421552469 117.29405471837629,-102.14917199465037 116.3986961286442,-103.05455758822733 115.48958874195417,-103.94764761921549 114.56682061595643,-104.82829709377017 113.63047928998705,-105.6963593277051 112.68065184998196,-106.5516858727106 111.71742499466673,-107.39412644227384 108.93874933871449,-106.51278583872256 105.75878793059341,-105.2359712055083 102.49939637950165,-103.86992875757633 99.15808540995675,-102.40868419883235 95.73233505591189,-100.84574315955616 92.2196113448511,-99.17403272992237 91.19620604163237,-100.1244251969297 90.53741884080875,-101.47001954837872 89.85982565929925,-102.79796815592228 89.16383528085908,-104.10821608984809 88.44984757300139,-105.40071265866912 87.71825374444667,-106.67541112513275 86.96943659605947,-107.93226843698854 86.20377076543448,-109.17124497167391 85.4216229653011,-110.39230429412284 84.62335221590968,-111.59541292695734 83.80931007156737,-112.78054013236253 82.97984084148815,-113.94765770499316 82.13528180512063,-115.096739775295 81.2759634221182,-116.22776262266457 80.40220953710973,-117.34070449790464 79.51433757943346,-118.43554545446382 85.97703670206178,-130.3338863714142 90.75570286951417,-139.7582087440602 91.08278145136288,-142.43825922140985 90.51940582121173,-143.74803328656293 87.98963502889859,-141.9790790325579 85.4067877176403,-140.12081554852278 82.76950084949898,-138.16806330905922 80.07641783761545,-136.11524738249764 77.32620060595893,-133.95635906067443 76.00232630666575,-134.22016140524138 75.14647509419187,-135.29665801281166 74.27944429965414,-136.35526055341217 73.40151928239543,-137.3960362836789 72.51297841616886,-138.41905239326076 71.6140933162196,-139.4243759074805 70.70512905903735,-140.4120735960321 69.78634439506774,-141.38221188733743 68.8579919546616,-142.33485678821177 67.92031844752545,-143.27007380850623 66.9735648559339,-144.18792789041763 66.01796662194397,-145.08848334217856 65.05375382885374,-145.97180377585306 64.08115137712704,-146.83795204898507 63.1003791550068,-147.68699020986097 62.111652204024516,-148.51897944616113 61.11518087960951,-149.3339800367911 60.11117100699034,-150.13205130669468 66.76140276771571,-169.70559963524653 66.27678914945552,-171.45829629158908 65.37008981881216,-172.13767072023526 64.45834639417646,-172.80358889390243 63.541675829500406,-173.45611132908564 62.62019247048524,-174.09529694588798 61.694008141238875,-174.72120306736713 60.76323222849867,-175.33388541922864 59.82797176352524,-175.93339812981907 58.88833150175647,-176.5197937303825 57.033891130059146,-174.41986432497814 55.010549547660645,-171.81663717472253 52.94754360351084,-169.09308377020454 50.84410475670431,-166.2417850479215 48.699529069768914,-163.25471035045044 46.513199405329864,-160.12315346600212 45.37792151000897,-160.5150088895822 44.26652961434816,-160.98938650207228 43.150613676740385,-161.44803052086687 42.03030837539246,-161.89095573561588 40.9057467651794,-162.31817552639384 39.777060358287876,-162.72970184942486 38.644379203688295,-163.12554522330993 37.50783196550386,-163.5057147157203 36.36754600034926,-163.87021793052375 35.22364743371027,-164.21906099531034 34.0762612354311,-164.55224854929025 32.92551129437921,-164.86978373153303 31.771520492353947,-165.17166816952408 30.614410777303977,-165.45790196801264 29.454303235919827,-165.7284836981288 28.291318165666297,-165.9834103867482 27.125575146317836,-166.22267750608455 25.957193111060356,-166.44627896349104 24.786290417222027,-166.65420709145522 23.61298491669749,-166.84645263776977 22.89716668707512,-170.13085183847474 22.17355847678043,-173.37155993654653 21.433497706110376,-176.49627511199614 20.679152085650685,-179.51067909310652 19.91245909603131,-182.4200954419907 19.128833817381306,-185.17481589881055 18.036493322145965,-185.10185561665685 16.94271618613582,-185.01551777048056 15.847573432871192,-184.915735248352 14.751137029012929,-184.80243886296822 13.653479944352604,-184.67555732788531 12.554676213205628,-184.53501723322586 11.454800997278378,-184.3807430208564 10.353930650087923,-184.21265695903503 9.25214278301189,-184.03067911652317 8.116301776855547,-183.24764390424195 6.94181947549503,-181.70512251953468 5.7651340761426555,-180.11947984002327 4.58663619203912,-178.4893583064193 3.4067525395150176,-176.81334394472282 2.2259491112443297,-175.08996356458096 1.0447346612490764,-173.3176818030051 -0.13287025108985398,-171.77637436323536 -1.3066964302867998,-170.76646622130573 -2.479836662819336,-169.73000735534015 -3.6520088289004264,-168.66647821101495 -4.8229152516633995,-167.57534536389892 -5.992241798135159,-166.45606114059223 -7.15965692197667,-165.30806323269002 -8.32481064362828,-164.13077430405892 -9.487333463125154,-162.9236015920372 -10.64683520042992,-161.6859365033026 -11.932273627430183,-162.5899093065381 -13.249214216098874,-163.9463123830167 -14.564877336357101,-165.26481392653432 -15.878868127409453,-166.54638898163506 -17.190820156372745,-167.7919803740414 -18.5003934419045,-169.00249989789205 -19.80727262810825,-170.1788294600101 -21.111165295872546,-171.32182218197306 -22.411800400026518,-172.43230346089254 -23.593708122872474,-172.5788140589913 -24.58512907620753,-171.26320219138938 -25.57191279090591,-169.9177817071921 -26.55364311780618,-168.5419229790671 -27.529880800045092,-167.13497889805927 -28.500162070029255,-165.6962843920253 -29.46399714832692,-164.22515593853 -30.420868636475774,-162.7208910736369 -31.370229794946013,-161.18276789831773 -32.31150269665757,-159.6100445845521 -33.102542661677184,-157.27951246871825 -33.846312844070255,-154.73254216238328 -34.5709137889698,-152.1137958399788 -35.27451345598524,-149.42069245460942 -35.95511792544049,-146.6505355966752 -36.61055464973087,-143.80050837592563 -37.266519959057604,-140.98087827247969 -37.91330838261995,-138.1552105729639 -38.53049290248215,-135.25018440828848 -39.115418381626924,-132.26303422948283 -39.665188213926406,-129.19088553788595 -40.176637814973766,-126.03075281544278 -41.00866922889131,-123.94141667896842 -42.660301245443776,-124.40879897235804 -44.305713219317994,-124.84417966223278 -45.94455329801169,-125.24818518296524 -47.576489173979354,-125.62142718019552 -49.201206981617936,-125.96450283075683 -50.81841026022681,-126.2779951626218 -52.427818978477795,-126.5624733738678 -54.02916861626887,-126.8184931497952 -55.62220930014873,-127.04659697746484 -56.85845927026046,-126.43808825960816 -57.73494277085653,-125.01663509628389 -58.595469508815995,-123.56871128045047 -59.43939977591704,-122.09408777129752 -60.26606994545584,-120.59253718717193 -61.074791405118475,-119.06383431244248 -61.86484943520154,-117.50775665366342 -62.63550202893277,-115.92408504970892 -63.385978651422164,-114.31260434102721 -64.07106522246531,-112.59180683504883 -64.04637464974108,-109.61689052585449 -63.96724792109417,-106.57432354757202 -63.82998393604364,-103.4625208967167 -63.63058294718074,-100.27990512005731 -63.39139480865728,-97.06755291476757 -64.77548750908085,-96.41116393574511 -66.14429710382038,-95.72927404619254 -67.49749274597269,-95.02221619960521 -68.8347483293079,-94.29032177978004 -70.15574224134512,-93.53392068055496 -71.46015712446753,-92.75334138936611 -72.74767964477131,-91.94891107450478 -74.0180002683552,-91.12095567597382 -75.27081304477382,-90.26979999985551 -76.50581539739274,-89.39576781611791 -77.72270792039407,-88.49918195979862 -78.92119418220054,-87.5803644355178 -80.10098053509095,-86.63963652528413 -81.2617759308,-85.677318899568 -82.40329174190163,-84.69373173162867 -84.14968062235162,-84.33910811565588 -87.79303189602798,-85.90118479312491 -91.35289766591077,-87.35092742638241 -94.8310269618863,-88.69576598340096 -98.22926291131316,-89.94251447610691 -101.05767385923606,-90.64137764546292 -102.90559641991463,-90.43592522487535 -104.72946373545027,-90.2027764751805 -106.52938542882941,-89.94285651953712 -108.30548161913654,-89.65705554861461 -110.05788177458564,-89.34623035965227 -111.78672366531734,-89.01120581805796 -113.49215240693397,-88.65277624589251 -115.17431958663931,-88.2717067413311 -116.83338246464265,-87.86873443294719 -118.46950324419248,-87.44456967243755 -120.08284840423777,-86.99989716918262 -121.67358808928417,-86.53537706984318 -123.24189555151514,-86.05164598599471 -124.78794664070845,-85.54931797262576 -126.3119193378843,-85.0289854601605 -127.81399332899495,-84.49122014250224 -129.2943496152889,-83.93657382345133 -130.7531701572936,-83.36557922371384 -132.19063754962224,-82.77875075058165 -133.1900731533982,-81.91188326383899 -132.68723185352016,-80.10729772619568 -132.15102712908262,-78.2854660937151 -131.58040833694696,-76.44639889499874 -130.97428289139677,-74.5901241634975 -130.70915626246335,-72.93491027095916 -131.52029630091624,-71.89216635711702 -132.3141997023161,-70.83936882603821 -133.0908343329628,-69.7767255044676 -133.85016773713247,-68.70444151903575 -134.59216707603508,-67.62271940557484 -135.31679906899495,-66.53175921695467 -136.02402993674386,-65.43175862952076 -136.7138253467244,-64.32291304821807 -137.38615036030768,-63.20541571047818 -138.04096938183193,-62.07945778895282 -138.678246109376,-60.945228493170774 -139.2979434871841,-59.80291517020056 -139.90002365966623,-58.652703404392646 -140.48444792689804,-57.494777116283075 -141.0511767015536,-56.32931866073385 -141.60016946720359,-55.1565089243884 -142.13138473791813,-53.976527422518096 -142.64478001911692,-52.78955239533799 -146.42448933799187,-52.834671801769474 -150.35074374060636,-52.92666428731566 -154.13575835392643,-52.961918835133595 -157.78660585619687,-52.945533420279375 -161.30991564274206,-52.88209070058227 -164.7119046550389,-52.77571949601919 -166.11355942650493,-52.013135823012 -167.0262728925309,-51.093724116734414 -167.92126192446642,-50.16862822537275 -168.79869726682517,-49.2380573033916 -169.65874664737024,-48.30221405992499 -170.50157479378223,-47.36129499767428 -170.82006778284068,-46.27114257480555 -169.33481188798763,-44.68025745012868 -167.7981396341443,-43.076021494441505 -166.2081255762201,-41.45858327401376 -165.45147159561802,-40.05574939258141 -165.9700736310281,-38.970904487796105 -166.47300201616895,-37.88216695847705 -166.96030890551197,-36.789672807658185 -167.43204483648816,-35.69355571619157 -167.88825872440552,-34.593947135339896 -168.32899785789795,-33.49097637722922 -168.7543078948579,-32.38477070326228 -169.16423285881254,-31.275455410582545 -169.55881513570125,-30.16315391668193 -169.9380954710167,-29.047987842240765 -170.30211296727413,-27.930077092285686 -170.6509050817761,-26.809539935747107 -170.98450762464108,-25.686493083499286 -171.30295475706674,-24.561051764960197 -171.60627898980115,-23.433329803328355 -171.89451118179585,-22.30343968953039 -172.16768053901777,-21.171492654953813 -172.42581461339745,-20.037598743033666 -172.66893930189312,-18.901866879764764 -173.28387448920196,-17.80920788576337 -176.7860390188399,-17.0315058716435 -180.15088546833078,-16.23944271550611 -183.38586751358557,-15.435353743097597 -186.4979165401196,-14.62129719023324 -189.49348566917936,-13.799089654463032 -192.3785895455876,-12.970336434166184 -193.671182010477,-12.026765275781317 -194.39262909782005,-11.045368067670188 -195.09700481482034,-10.063605169950055 -195.7845566776219,-9.08159280497751 -196.4555263604292,-8.099442354896867 -197.11014983524893,-7.117260575214739 -197.74865750794794,-6.1351497984000725 -198.37127435070005,-5.153208128038354 -198.97822003089206,-4.1715296240358475 -195.1635997179845,-3.070133064809245 -189.60501063508602,-1.9263451450666862 -185.5866765024217,-0.8039514567014506 -185.80726313591987,0.27523930252800866 z"
       id="path45"
       inkscape:connector-curvature="0"
       sodipodi:nodetypes="ccccccccccccccccccccccccccccccccccccccccccccccccccccccccccccccccccccccccccccccccccccccccccccccccccc" />
  </g>
</svg>
