<?xml version="1.0" encoding="UTF-8" standalone="no"?>
<svg
   xmlns:dc="http://purl.org/dc/elements/1.1/"
   xmlns:cc="http://creativecommons.org/ns#"
   xmlns:rdf="http://www.w3.org/1999/02/22-rdf-syntax-ns#"
   xmlns:svg="http://www.w3.org/2000/svg"
   xmlns="http://www.w3.org/2000/svg"
   xmlns:sodipodi="http://sodipodi.sourceforge.net/DTD/sodipodi-0.dtd"
   xmlns:inkscape="http://www.inkscape.org/namespaces/inkscape"
   width="793.700787402"
   height="1122.51968504"
   version="1.1"
   id="svg28"
   sodipodi:docname="deusotestsimple.svg"
   inkscape:version="0.92.3 (2405546, 2018-03-11)">
  <metadata
     id="metadata32">
    <rdf:RDF>
      <cc:Work
         rdf:about="">
        <dc:format>image/svg+xml</dc:format>
        <dc:type
           rdf:resource="http://purl.org/dc/dcmitype/StillImage" />
        <dc:title></dc:title>
      </cc:Work>
    </rdf:RDF>
  </metadata>
  <sodipodi:namedview
     pagecolor="#ffffff"
     bordercolor="#666666"
     borderopacity="1"
     objecttolerance="10"
     gridtolerance="10"
     guidetolerance="10"
     inkscape:pageopacity="0"
     inkscape:pageshadow="2"
     inkscape:window-width="1920"
     inkscape:window-height="992"
     id="namedview30"
     showgrid="false"
     inkscape:zoom="1.1893044"
     inkscape:cx="19.136475"
     inkscape:cy="1079.8866"
     inkscape:window-x="0"
     inkscape:window-y="24"
     inkscape:window-maximized="1"
     inkscape:current-layer="g24" />
  <desc
     id="desc2">/tmp/mozilla_ruben0/openjscad.dxf - scale = 1.000000, origin = (0.000000, 0.000000), method = manual</desc>
    <path
       d=" M 63.10068832892962,0.4837727380031705 63.09513301304339,0.9670024369740167 63.13352923277244,1.4508222422855315 63.12059243775866,1.9334448195920992 63.14563124804877,2.4137697684290473 63.126412775235714,2.8728105297933815 63.14031111939633,3.313672921007274 63.116914128896646,3.73288994306933 63.443661158358466,4.153922275076559 63.41780650614012,4.5315592673771325 65.30857407489776,5.02820722483929 65.28164593112245,5.366509118216267 67.28968174373135,5.8790551116073235 67.25866944063071,6.223820631568518 69.3897328907402,6.779726587675546 69.3540975460624,7.135045677721268 71.76278031683331,7.754455856432954 71.7221271269012,8.12186584622455 74.46713966059802,8.819227347953886 74.4209850468794,9.200578508879858 78.22567319539871,10.078175750117877 78.17298296007614,10.479041389708842 81.16327567593294,11.305877967441306 81.10181328831142,11.738657351249143 81.56222829538409,12.292115835734919 81.48435772066262,12.79814998656325 81.42068941338874,13.334851784595498 81.32736006492215,13.892711813722668 81.24209437221094,14.479152245265663 81.13143777156087,15.086866899530696 81.02505716965167,15.70871578426467 80.9025334929083,16.32800402268993 80.78122724333208,16.948154749736023 80.64897476725876,17.56671549692537 80.5129024743315,18.184202967066494 80.37138088417785,18.79983609394229 80.22097328362646,19.41281332215022 80.07029310698623,20.025235015207112 79.91105688500878,20.61254784173153 79.76339036523817,21.17677261646376 79.60427900514357,21.710095708425868 79.46326900956362,22.22067438021353 79.30709081420304,22.69786914246556 79.17690762339458,23.147898743021546 78.80575964489144,23.48809813902201 78.68428677086344,23.891871478753075 76.87464779836412,23.77338684900498 76.7518404387228,24.166927518073305 72.30235260457285,23.173623040023486 72.18272812393772,23.543592706780746 69.23985352781504,22.976679381924864 69.12127778850703,23.33096802228958 66.58749662180223,22.856304008641633 66.46952276511483,23.197152469039196 64.29610312781683,22.808982690446854 64.17830319799539,23.138365703353745 62.04793956573211,22.738717756038852 61.91751913631806,23.09149006766837 59.99497997768839,22.791718804025088 59.847227716245605,23.176915309092045 58.81575753641267,23.235194967195326 58.64988621230598,23.650760390085228 58.4428505003726,24.070197118088927 58.2572230310334,24.516058586669057 58.03175458060037,24.94519330491978 57.839154821328066,25.38856786581883 57.60134545473489,25.81222992740321 57.40186147325277,26.252857205004116 57.214773201070244,26.69875671230189 57.008902183909676,27.135566222542856 56.839063294051186,27.589496805510144 56.631189893743155,28.01370702611873 56.462323199648964,28.43596077627176 56.26630235653283,28.821884488952335 56.10455888968308,29.2035441214152 55.92246625965918,29.55074085187446 57.17616077851019,30.641049417181698 57.01214487284838,30.945154834861732 58.55086092201811,32.17175858204935 58.3851898092848,32.47144862652358 60.13299222432536,33.84806130655601 59.958829354505035,34.155626044628356 61.799221106188426,35.624422348969844 61.61598860576163,35.940411032207194 63.68685409170865,37.5867429772487 63.49352149584135,37.91241696058792 66.1819104869187,39.97898448515941 65.97617909446046,40.3175925404632 69.23605407778379,42.798700848405105 69.01329472173708,43.156982404052876 69.68727266788233,44.11559408268418 69.42299892650118,44.53031364370744 69.1604685958006,44.98085453288854 68.85994587588178,45.4395812576462 68.55735315905102,45.92827181551827 68.22132979359198,46.42593009654125 67.87782076004135,46.95008492437042 67.51694660532489,47.46757784669027 67.15831979439513,47.987335691469916 66.7889000395198,48.50017665826692 66.41731002432235,49.01228004706993 66.0400726854208,49.51940494375611 65.65720528907018,50.021550423622045 65.27292649917074,50.52196729530553 64.8815728343016,51.01068662200382 64.50899722487372,51.48104427983466 64.13904443404722,51.920123551133855 63.792855177064816,52.34489353161129 63.44712989279702,52.7343212185953 63.132035622706134,53.111138230627404 62.82038339570534,53.44249327142584 62.54267141894477,53.76722894879108 61.39726854073437,53.33231982897571 61.123185348099206,53.64622200588889 57.76961990419248,51.22912280506717 57.50650741137744,51.52430118494298 54.76366046423887,49.57465601813816 54.509095595956005,49.85442331498872 52.3414659430649,48.36646884396176 52.09305037876349,48.633923014070696 50.15873061334284,47.31133861842391 49.91557917553252,47.56780396634061 48.08633618544084,46.29958834431263 47.83876635176643,46.555343866554644 46.19117243370306,45.480096737406534 45.9080777229841,45.76583889566973 44.50157386535923,44.94812249526574 44.192491502291844,45.252044010887516 43.84481943876302,45.545422234807546 43.5027789599576,45.8722345316391 43.12537104093185,46.175949177024975 42.7709712568702,46.504407614345766 42.384499481926454,46.79813163562653 42.02467750955348,47.12151739000859 41.652833003054795,47.430981543107585 41.28867606311739,47.748316580565856 40.951979939112555,48.097324327196255 40.583313662145684,48.408800032317274 40.25048204200151,48.73714862649989 39.905021400820395,49.02040623918871 39.59451906486306,49.31441155588851 39.277089106638854,49.5676043236962 39.58265917525918,50.58222946197804 39.294679520532334,50.80626935829461 40.18512288633037,52.523795206082156 39.915307865579635,52.72913200723039 40.931775570298505,54.651649559949625 40.651275033418564,54.860613276905575 41.664879841991954,56.8347173102601 41.37330787232512,57.047319829126124 42.56738953557597,59.330617092671616 42.263025323274476,59.547808246777144 43.674619947353854,62.209296914645535 43.35536793827081,62.432212207301156 45.600504080821246,66.38883558915293 45.25953252230031,66.62175454888151 45.86887771467666,68.28614489566529 45.47971016076701,68.54595167629071 45.1901139691294,69.01794016386226 44.74569358872727,69.3068926606085 44.28798093964888,69.62441279287809 43.79443852794396,69.93590827669236 43.285227132328565,70.26989345729547 42.74710003385495,70.5985428538899 42.211078918696785,70.93166710134496 41.66708985747409,71.25258033268445 41.12233345603949,71.57346652954008 40.57274253729872,71.88643810154296 40.0209039330256,72.19410351230457 39.46764486013735,72.49804371675063 38.909571374167385,72.79205710111961 38.3641598978267,73.08097944655688 37.83376128043994,73.34401738931763 37.33062021160202,73.60138024552919 36.8411216165907,73.8288104820048 36.382702258027805,74.05579299122996 35.94048364059241,74.24681343196666 35.54442065664092,74.4372341594226 34.92152996296952,74.11181587150206 34.541236264814984,74.28982099873596 32.82441598432956,71.55395679102459 32.457513743801634,71.7211323023769 30.53694188060964,68.4076749333237 30.186280902404338,68.56313334791632 28.723198269895267,66.15645811699768 28.38404073978286,66.30267943846711 27.09168516195971,64.19064577992899 26.762433242098233,64.3286139872553 25.60726425423639,62.4527124767054 25.283295257579688,62.5845688584844 24.185551029295155,60.83145788284948 23.822608611972388,60.97450668651866 22.748848662491735,59.3282811843788 22.354138320368694,59.47812676703506 21.833699863831068,59.34429839200223 21.40144804204897,59.50154807302356 20.93752091154807,59.6288023031628 20.481149899485555,59.78709179100443 20.010056000210746,59.90260227851352 19.55082978991053,60.0540519481849 19.075887531370398,60.15772232608261 18.614739547822424,60.302010846557074 18.166635116864644,60.48827067941163 17.703780057882632,60.62535519827645 17.25468036516293,60.797887231471286 16.812126553637857,60.92174888378619 16.397082360121434,61.07147406093263 15.991084736038056,61.17903613873484 15.690433490444597,61.61504550568204 15.32317431009292,61.707405267502885 15.435850859469877,63.659105780659885 15.105825122220073,63.73822470014322 15.239869516605209,65.80521544631675 14.90250582387743,65.88243561821783 15.033658722915872,68.08087720283358 14.684831386720463,68.15696928743236 14.841254380086482,70.63765969795428 14.479386848134054,70.71272272851975 14.665711912396441,73.53674355172795 14.28889865424549,73.61089004582618 14.630535174709207,77.49098690289757 14.233195379483512,77.56495187887953 14.375727728256741,80.68011179019767 13.945512329859135,80.75558601145502 13.562705549128657,81.36772505721709 13.057788841271885,81.45027816635124 12.528144293988417,81.55582825539463 11.96916686531525,81.63973644264574 11.385488187363835,81.740168101552 10.773747519106838,81.82304557353704 10.149607471194662,81.91440559861672 9.522904818584255,81.9896253205868 8.895759378549283,82.06627112669177 8.266737260411105,82.13201840103568 7.637536991836739,82.19380451805965 7.008412723820737,82.24983661714631 6.379062585198347,82.29659883764477 5.7501562086091385,82.34293122841028 5.142175092091114,82.37337473652443 4.559687416458048,82.40767003638555 4.003058464790371,82.42151187548866 3.4736132107493027,82.44552206260784 2.9711518593811284,82.44477343121176 2.5024787051158373,82.46032991581943 2.063926720999674,82.2163943573222 1.6423998134893218,82.22589505430165 1.1949221647191073,80.47514461776366 0.7826763725151317,80.48020972838987 0.3496176967054746,75.94343295919103 -0.03924197184362699,75.94422757674633 -0.4113116076752467,72.96818153484506 -0.7849270459292599,72.96511894921628 -1.118071734418891,70.40917884054478 -1.4787247477776801,70.40252781344881 -1.78250509992186,68.21405327028441 -2.1321954873478584,68.204018432906 -2.4114817080926025,66.05335483988736 -2.7868974184499837,66.03858063595531 -3.096787528028325,64.11787081114043 -3.508528966839722,64.09665884300594 -3.8826222418901417,63.12651307879386 -4.328813966669401,63.09748630969637 -4.791460049943863,63.03052279863383 -5.272853655237956,62.99207813693522 -5.750679403481008,62.910575550562825 -6.231867353523733,62.86473303047408 -6.708311001256817,62.769803553782644 -7.189032817842479,62.71656465252247 -7.670879343010316,62.676335003886166 -8.149945894955875,62.615842574572774 -8.634134333888333,62.594910103309566 -9.1021069806797,62.528575028136515 -9.556124552400162,62.49871966094094 -9.984036431724213,62.431790717933715 -10.39731951786883,62.396121356061606 -10.784110328234043,62.33043540571091 -11.431542047407424,63.852038408568944 -11.771700048636866,63.79020332681133 -12.461341413786508,65.63148597848216 -12.797544484799486,65.5667586261074 -13.565295620517222,67.65496296506247 -13.911614881532094,67.58460054231239 -14.737894419365045,69.78723849889386 -15.09501997064078,69.71086401203044 -16.018510134440987,72.18671347121375 -16.387955590739313,72.10373901718452 -17.519361900688704,75.29511772607721 -17.904918635793507,75.20436611950628 -19.25624551991575,79.07893959290513 -19.665696000292158,78.97811139477638 -20.37079242970267,79.92843061295214 -20.846487117668197,79.80568387850849 -21.355762296940878,79.69567692921332 -21.88462895958396,79.55207426453647 -22.442597495773054,79.41579598576605 -23.01948375318808,79.2505028510659 -23.62385526135508,79.08631151827653 -24.227638306074766,78.90343939959368 -24.832879228631683,78.72340656194073 -25.43488568329663,78.53096982578309 -26.036877415270464,78.33623764338415 -26.6358896531976,78.13459218579987 -27.2319111857776,77.92605256603721 -27.826726079381324,77.71563530627512 -28.412976141978803,77.49473557242257 -28.975925940088953,77.28600759903976 -29.50836234272496,77.07006849500215 -30.019804716563563,76.87229820132386 -30.497543186580735,76.66400367506557 -30.953865378188702,76.48089838683119 -31.366237449220208,76.28684337431308 -31.76112887171752,76.12328169838707 -31.707791384047127,74.91255170791783 -32.091207742015825,74.74910583749146 -30.834471647413295,70.81896168812476 -31.196724486933558,70.6601327315876 -30.190233574420795,67.4436810800647 -30.535162675035874,67.28821710609265 -29.790253797197874,64.76336688234404 -30.121556022610807,64.60994330608315 -29.462022437152477,62.35905159624075 -29.78123571048508,62.207234962071894 -29.14185505987556,60.07544971420733 -29.46149596805215,59.91934270350014 -28.948224833275308,58.018318025303905 -29.307360706401248,57.83773470588254 -28.960588462524264,56.238427799867935 -29.345025727597704,56.03878933866506 -29.731418201522477,55.79918154652716 -30.147841460398503,55.57529617388283 -30.553520769828104,55.310487298037415 -30.975602354456687,55.075218523009546 -31.374589299796597,54.79869767041549 -31.79352678965277,54.55670237816929 -32.20268650130068,54.29848724989908 -32.61722367081403,54.05048987323422 -33.05337197045322,53.83841145859442 -33.46373412787091,53.58431155871298 -33.87929038425128,53.369352009290765 -34.255909931292756,53.12839810883787 -34.631898532250915,52.92402283941536 -34.97125649404878,52.700396665324384 -35.83581488836387,53.296083063802264 -36.138393998891694,53.0913795058827 -37.49603801457712,54.469813117926584 -37.77480919982691,54.27685692640216 -39.286897007654744,55.83702847720041 -39.57241730366516,55.63504124558859 -41.134005745379085,57.20791015344604 -41.426403150931534,56.99653090111823 -43.22779512513999,58.839121586481504 -43.52851780170051,58.61699956869911 -45.61975526895721,60.78031065767972 -45.930515375469085,60.545817293908925 -48.99875069904547,63.907564638396224 -49.32575758725163,63.655510574668156 -50.725819932346596,64.75883724380456 -51.09287517272699,64.46963560904125 -51.63465353472656,64.34539196138999 -52.046706855661014,64.01255515753961 -52.49008501132407,63.67589479087553 -52.93881070925245,63.3033247357879 -53.41381303708187,62.92279318126658 -53.89299393484685,62.51286691259124 -54.37577685096182,62.10632804799121 -54.84941676365416,61.68843143116275 -55.323268087742996,61.269796127394336 -55.79110688257391,60.8440983351546 -56.254595698507885,60.4146194543604 -56.71498186928803,59.98263592560845 -57.16741957987398,59.54299996258032 -57.61137457261714,59.113553655814016 -58.02604216472635,58.690383458523904 -58.42689475149512,58.29134283501187 -58.795093729684744,57.895964002193956 -59.153207968378766,57.530024174125664 -59.47214770465209,57.16830752749842 -59.776144245629865,56.850367784986574 -59.66432661224805,56.161533515466324 -59.95139683825563,55.854988443682 -57.906221002168024,53.3979846873803 -58.17896142724789,53.100693466963584 -55.60889698321895,50.235387939631664 -55.865398153941726,49.949984126495096 -54.02715113350274,47.810829890273915 -54.27129179345898,47.533518715410594 -52.66119711025357,45.64876179682737 -52.89441204960785,45.37832421536481 -51.468687130633974,43.69915920415504 -51.694388180708934,43.431929507257166 -50.3653185849284,41.844325985068544 -50.613558758494285,41.54371917759005 -49.38079053065873,40.01324408209586 -49.6454093451375,39.68444917546303 -49.669611811412594,39.14069832631324 -49.952862101793784,38.77855297464118 -50.21739443611088,38.37701652994105 -50.50927807434682,37.99203771975934 -50.76504575658761,37.579812468516934 -51.05130864646154,37.189999479981914 -51.296478316561135,36.77006174686937 -51.57653188202319,36.37619396765772 -51.89245365308997,36.00772574891956 -52.166184081146675,35.610002782356176 -52.46952292002182,35.23609243033462 -52.72453774991442,34.8533522673448 -52.99563725107494,34.50475381093494 -53.223824943743445,34.15172120931102 -53.72099550881135,33.99375317595206 -53.922725119263035,33.67284260584009 -55.74404806708255,34.383815525934914 -55.921513578778914,34.09442746381261 -57.84335588467255,34.86064749260277 -58.021231279215414,34.56378573663754 -60.07115374164312,35.369287901408654 -60.25150679673314,35.061174641304845 -62.55910597620465,35.97643528281644 -62.742510581164574,35.655616698819486 -65.36611917748367,36.704996565664736 -65.55326931056275,36.36970156472678 -69.11819220737704,37.885723231065924 -69.31147413770756,37.53094818432832 -72.26145895943085,38.64845262581423 -72.46628898815014,38.26301480021177 -73.17289997034493,38.092136754342604 -73.40760408876243,37.63785108808887 -73.67182186130468,37.167199618024824 -73.92457401512775,36.66190694019904 -74.200708353339,36.138205001379596 -74.46883690279577,35.58240170651513 -74.74902324370125,35.017116664511484 -75.01465512304502,34.44439652765038 -75.2817783325384,33.87169595117757 -75.5391186804905,33.29383553292164 -75.79275342616334,32.71456118886007 -76.04089176310087,32.13357691840801 -76.28028382631403,31.549506904828323 -76.51912800475137,30.965725180484824 -76.73650261961966,30.396618243437903 -76.9496510880125,29.852913297722402 -77.13532536228202,29.327495718814742 -77.32225836841329,28.83103856420275 -77.47730706138135,28.352522523253583 -77.63741820147796,27.911107787474037 -77.54820595202094,27.420618904166272 -77.68778767920074,27.022624464992354 -76.17394650228442,26.05918898294624 -76.30645609797938,25.668584182789317 -72.12946590695526,23.85294527371078 -72.2506753397433,23.48324430746895 -69.53177145100074,22.20650115641204 -69.64458320454851,21.850125056590635 -67.3177964522216,20.741987656094494 -67.423180596771,20.396825471712933 -65.43315157492346,19.42931740227751 -65.53191658719963,19.093548862211595 -63.5709903191748,18.16154339728565 -63.67310699478285,17.80022231218028 -61.94288666557748,16.91110151920954 -62.050172454319906,16.513105748064085 -61.230186354230334,15.853617486887584 -61.34069641479356,15.42050166961033 -61.42024113220198,14.959961378955976 -61.53276077485222,14.490197259613083 -61.60323443879785,14.010494450480596 -61.708652792406816,13.538634296509343 -61.765928249262146,13.056087546804273 -61.8641684899651,12.582367486607028 -61.97440240142513,12.111464345969262 -62.06522813851885,11.63707771440328 -62.19525055647354,11.170067905508649 -62.27711929750608,10.704205752898805 -62.38934297867301,10.262928466126239 -62.458233640558774,9.834981876581756 -62.55231503803948,9.43059909176499 -62.609647357868695,9.042144301605877 -64.24305937185099,8.89527918854433 -64.28959449126172,8.552468032471706 -66.25128009146684,8.466279528463781 -66.29380920641562,8.126553003299676 -68.51731353978838,8.042970571490432 -68.55761562801173,7.691876866235623 -70.90435839182904,7.5876597139398205 -70.94228652813345,7.224444688119389 -73.57740467391037,7.112267818093428 -73.6128679550042,6.73531762456458 -76.98991061033725,6.646760082808271 -77.02296258503749,6.252118841644637 -81.13673750515026,6.16748508201593 -81.16760276903894,5.747025834642519 -82.3106849681729,5.372695815224544 -82.34121248863248,4.8825655299861115 -82.39425419464594,4.3643931986802755 -82.42141970333832,3.8171489846181963 -82.46455947895787,3.244508337754866 -82.48596928061046,2.6448584556694796 -82.5169360278232,2.0194202118724895 -82.52996326781003,1.3885072653440578 -82.5461388337426,0.7570866921714321 -82.54951614771932,0.12490154681790311 -82.55070349488045,-0.5079805297857283 -82.54439215711895,-1.1401820600546368 -82.53059668585259,-1.7716735862193693 -82.51463952767246,-2.4025986425626398 -82.48605229737525,-3.0288555275321882 -82.46182140431586,-3.6291596953982133 -82.42128227541488,-4.202693480224375 -82.39151721491001,-4.750610006886154 -82.34130666517974,-5.269750369366986 -82.30841253881323,-5.7607532168242175 -82.25148374044987,-6.213545103018476 -82.21816709528814,-6.639858412949193 -81.07208411869125,-6.965867015428249 -81.03531925626028,-7.381270870300918 -76.92075912184454,-7.404038130868349 -76.88182528041952,-7.797942425744614 -73.503851794206,-7.835851817711927 -73.46275677568914,-8.212196369405513 -70.82625299001037,-8.284982962801463 -70.78288061102444,-8.647708812415267 -68.43481920574358,-8.716989454877552 -68.38923290263493,-9.067701355272508 -66.16449163661127,-9.119694381946328 -66.11497487732859,-9.472004862832103 -64.14572023658484,-9.57195114966285 -64.08515201630755,-9.969401412747551 -62.44248288833493,-10.132357725912543 -62.37163665042104,-10.559700937702516 -62.26338627785652,-11.001298728610445 -62.179379466968854,-11.466586833246822 -62.05310866240558,-11.934460214396022 -61.96000034129919,-12.408786926348577 -61.82051689421117,-12.87392088760686 -61.72003468201502,-13.34733932057889 -61.60033163981188,-13.8163141066516 -61.492775532699945,-14.28740532474133 -61.42605970130537,-14.767928655686614 -61.311404109850805,-15.236937135997866 -61.23554440866955,-15.698874015039207 -61.12291290734544,-16.1318338104283 -61.04486928403402,-16.552852373010968 -60.937180245687,-16.94500077580842 -61.75669565987203,-17.578913383560877 -61.655627404923266,-17.930177463652377 -63.38667626516206,-18.794755935567313 -63.28945674341585,-19.119577499131523 -65.23832223765264,-20.07382258288237 -65.13460584338954,-20.40784562610978 -67.1099640277367,-21.404909608736723 -66.99944874830445,-21.74836303232105 -69.30937622869054,-22.89122075578448 -69.19121927780124,-23.245919980750585 -71.89064375211436,-24.563394482728494 -71.7638350772244,-24.931445658374738 -75.91303276998087,-26.80979168363266 -75.77454464541135,-27.19874736521021 -77.27057010213187,-28.193517168131606 -77.10917787783406,-28.631976900360073 -77.16627384473094,-29.188438826216526 -76.97727016315812,-29.683306056097518 -76.79431412977077,-30.209168782176384 -76.57886245758057,-30.751233891908935 -76.3639613669014,-31.320772285848847 -76.1223601164476,-31.903474145137807 -75.88509209434058,-32.4885521638 -75.63419118472653,-33.06844942991339 -75.38265071226462,-33.64877552898612 -75.1225286673385,-34.225572451491445 -74.85746274423256,-34.799401493736106 -74.5890518374169,-35.371053402769114 -74.31090225579666,-35.937513528578926 -74.0397845740432,-36.49281261997535 -73.76557777490359,-37.018301604614756 -73.51004111518432,-37.52317914835421 -73.24788230309896,-37.99586739642904 -73.01060377135364,-38.4498366451414 -72.7652203607204,-38.86524174257668 -72.55685593434448,-39.25285934522356 -71.87432618956602,-39.36371468313562 -71.67156671458638,-39.73169167724974 -68.73965718424452,-38.568226692282686 -68.54115548589705,-38.91989959715788 -64.99946948838328,-37.350413944523076 -64.80730965545949,-37.68284849662882 -62.199731638829874,-36.59422931996735 -62.01145549830594,-36.91237763198727 -59.717762397123266,-35.96272792427231 -59.532650833598204,-36.26833922582318 -57.49488640577951,-35.432407852562555 -57.310501524777564,-35.72987411148121 -55.38712059752336,-34.955853328308855 -55.177968282790424,-35.285076536380245 -53.341233270559435,-34.58659575849782 -53.110320761760896,-34.9401431246188 -52.587876356295205,-35.12308350000067 -52.33105512576855,-35.50459693668954 -52.03097658084212,-35.88050518354813 -51.75509820859246,-36.27730675783023 -51.44213426172696,-36.64819249654997 -51.15991569335553,-37.041142219354946 -50.836010426953834,-37.40409473948823 -50.54801290439656,-37.79238879492707 -50.29494322298559,-38.20668846296101 -50.00132164372333,-38.59015665930921 -49.7395080832551,-38.994404966214866 -49.45435291002182,-39.35542226027284 -49.20664626726837,-39.72116246407916 -48.941452336152786,-40.047459689697334 -48.933186764486365,-40.55941995286737 -48.69042687917676,-40.850528076938005 -49.93013276643535,-42.362671462245615 -49.7098341731605,-42.62096289349765 -51.0308612504555,-44.20966917331772 -50.80358462288278,-44.470658167414484 -52.20391804254496,-46.171024221467206 -51.96670450698317,-46.43785265638322 -53.548194897712555,-48.34667562796926 -53.29985262471818,-48.620324261185345 -55.1055232719072,-50.78707591981691 -54.84458798301322,-51.06874723869261 -57.370910512672275,-53.97275226663594 -57.093430753231004,-54.26619136363562 -59.09969985417479,-56.75540599571662 -58.79643726679731,-57.06951548176787 -58.85823956738758,-57.80016991091316 -58.498686016947474,-58.16404164939894 -58.132683026732586,-58.56105469599155 -57.730185669620035,-58.95788009710555 -57.317407917498,-59.382638018357014 -56.87161031717019,-59.80972235625262 -56.420572024604006,-60.25115788916469 -55.95795863201491,-60.68105009231702 -55.49582317975109,-61.11235275482971 -55.025752273073834,-61.53594588865317 -54.55319238337769,-61.956447435236505 -54.07730427358987,-62.37224815985568 -53.595775011075176,-62.78068382328461 -53.11434839723366,-63.18850650786345 -52.64031359525788,-63.571306248024854 -52.189145722190695,-63.94221346086793 -51.74687435982264,-64.28133371733148 -51.33255258789111,-64.61267611933125 -50.92545583074211,-64.90812837616853 -50.55524113184011,-65.19689237201067 -50.06612748006711,-65.27019477288582 -49.73070024887935,-65.52612379270494 -48.35483121285627,-64.39614300651147 -48.02418502147597,-64.64310163321325 -45.00734251674171,-61.23516768344036 -44.69307019567429,-61.46491778342256 -42.63481425503599,-59.27019436402902 -42.33063878879434,-59.48781678834597 -40.55721588563613,-57.61824797238712 -40.261406801718145,-57.82533512352654 -38.72356709170846,-56.229160595097305 -38.43466022534354,-56.42703290886103 -36.94008147608843,-54.84836472950501 -36.62775845098833,-55.05742496536605 -35.246921796581674,-53.68735362037119 -34.90133769796096,-53.91265214943536 -34.01224315051211,-53.3243671800372 -33.634326503399585,-53.56354077115981 -33.220754260471885,-53.78174194791116 -32.80869873693242,-54.03409634458207 -32.374186799142585,-54.24953645669223 -31.957939449346856,-54.49578224802024 -31.51663909885646,-54.699546844675325 -31.096406776960805,-54.939534496227616 -30.682179240836675,-55.18936738707716 -30.25902364761329,-55.42250340291193 -29.855004462814538,-55.690633150146255 -29.437304601811665,-55.91254787540094 -29.052372056491485,-56.15572849748977 -28.6667364030124,-56.353565895982086 -28.311325511043893,-56.56806138662913 -27.95969265008019,-56.74268506289404 -28.31879008994183,-58.32814269899309 -28.007301638659804,-58.47834776901116 -28.530855803245743,-60.368029585222295 -28.22094738000139,-60.5135262387102 -28.82919586598069,-62.65413734214964 -28.507784627520362,-62.80103244373408 -29.1329353334219,-65.06171410610885 -28.79927648603702,-65.2100930642426 -29.505470420739318,-67.74606693798268 -29.158008008892057,-67.89633966030966 -30.11503471265061,-71.1278943392295 -29.750036203640736,-71.28133005744782 -30.946176289499995,-75.23038340937396 -30.5558247103933,-75.38977378351748 -30.56096601389382,-76.61299542562908 -30.103938072401046,-76.7937277668097 -29.62722650075713,-77.00452868420281 -29.114880073309013,-77.19970042895383 -28.583292949931057,-77.41792207390796 -28.019312091377877,-77.62382008139788 -27.433733906373124,-77.8467846914194 -26.837618844175196,-78.05430069901766 -26.241993488188893,-78.26496547810362 -25.6416828290742,-78.46369316579522 -25.040031217736296,-78.66055134847593 -24.43672005050051,-78.85006160431895 -23.831769583921492,-79.0322325267819 -23.226689012579104,-79.21217038549938 -22.622383587241607,-79.37858247638707 -22.0440997705349,-79.54111679147826 -21.486268693688004,-79.67985617558637 -20.956121694180773,-79.82092574054859 -20.447059713963046,-79.93364524177639 -19.970163271084317,-80.05412213940495 -19.522425849909137,-80.13986823953688 -19.106707453991774,-80.23999827257667 -18.447051041552122,-79.27160184786784 -18.040454644577373,-79.36512173413116 -16.748854703421106,-75.47023809622189 -16.361981322374213,-75.55505634557497 -15.279629092951113,-72.34670669104439 -14.908829036302617,-72.4240281331028 -14.023248004485303,-69.93433940000152 -13.664722570358965,-70.00527600820546 -12.872024127436731,-67.79027671669553 -12.52425898595581,-67.8553871060815 -11.786772483063071,-65.75597577804865 -11.436054764120124,-65.81787756774644 -10.731277409268415,-63.97344641825792 -10.334184245861678,-64.03879134897048 -9.668781423798446,-62.513164019499875 -9.240170773823708,-62.57795341828189 -8.786455139802301,-62.61156824480869 -8.31768315715167,-62.6755647672626 -7.833602775554877,-62.700131659302436 -7.353637630332254,-62.75823337332562 -6.868077488754042,-62.7693847882955 -6.386696009161025,-62.82018998044497 -5.9035418954361,-62.85060669271281 -5.4222046120092715,-62.893960486669556 -4.944522818816869,-62.979071270248035 -4.462971320245873,-63.01502686632329 -4.000369715506663,-63.08567848895889 -3.5539910763859,-63.112399223147925 -3.129647786918704,-63.16832757452509 -2.723632678794998,-63.18713578619996 -2.3738858584244187,-64.14872463081747 -2.009000386985605,-64.1611886055298 -1.722214048457058,-66.07494010820064 -1.3832794805130684,-66.08290451705187 -1.0782829170332102,-68.22884236632349 -0.7285998858488766,-68.23347248165027 -0.3911001897970125,-70.41699657090959 -0.030361936761335404,-70.4180761138697 0.34232744242116947,-72.96856440386688 0.7161272770774507,-72.96585325316309 1.1344036000115207,-75.93579600474334 1.5235552644625185,-75.92898501730312 2.0271513297163737,-80.4584937148596 2.4398127718604155,-80.44703765220903 2.924066087111213,-82.19030421728422 3.391477522246863,-82.17234419211623 3.9038288760809627,-82.40587954962432 4.4333285123589405,-82.37908995942126 4.990397590374908,-82.36762977872904 5.57295486295225,-82.33026586603063 6.181436253771022,-82.3019139168404 6.8103649903223085,-82.25225904030256 7.440214055950911,-82.20745796270452 8.069350205598315,-82.14808894397733 8.699091870205484,-82.08824236799022 9.328111102037099,-82.019144580398 9.955835652334759,-81.94442593486939 10.58252343954572,-81.86585248431155 11.207283618237176,-81.77641063199327 11.818907542388141,-81.69025625162692 12.403155054330353,-81.59194987602287 12.961988667348821,-81.5050390445935 13.492202969137711,-81.40189217718824 13.996954902696341,-81.31662096053226 14.467476318938552,-81.21173445161627 14.900216916852981,-81.13345314671139 15.217846743159129,-80.52551848139485 15.630542820638423,-80.44643010928411 15.437607597618035,-77.33424779711315 15.833663183992241,-77.25413076890598 15.43173332842499,-73.37981578452177 15.807422600003987,-73.29980319779075 15.577353575683096,-70.47898874669377 15.938231251497232,-70.39825696529874 15.743525719432386,-67.92023360697405 16.091484677833655,-67.83863837200303 15.926546270042248,-65.64240341979793 16.266631445963213,-65.55895594211745 16.125216593173413,-63.487988079417576 16.503420464370848,-63.390727662058026 16.40731750111057,-61.42803487173492 16.815298099832955,-61.3176099142741 17.147722112627193,-60.86497252318364 17.590218222507648,-60.738566634259186 18.040774604613908,-60.56927882994949 18.503438922761422,-60.429544383077115 18.95291868694201,-60.24653014490746 19.41387905662848,-60.09957421837264 19.859191190805323,-59.90370243831844 20.317494637935756,-59.74981549937213 20.7895195607615,-59.636565773877905 21.24496668615656,-59.47583956005538 21.7100650057835,-59.3518906478627 22.14128249378539,-59.192376667621566 22.565387268859787,-59.06995428125233 22.95740686977977,-58.9187039164835 23.442030348609666,-59.05782147096642 23.793500278513992,-58.91709775827416 24.847782525652967,-60.56397320438443 25.16136537952609,-60.434368028312555 26.26301351776848,-62.17979896437327 26.581403239192007,-62.04435735923 27.765681239446625,-63.90199805850011 28.092698208882812,-63.75891089019434 29.417973546856423,-65.85045103743975 29.75490450166337,-65.6988944163803 31.255646840784706,-68.08229835843653 31.604082634407654,-67.92125418483198 33.57662820490561,-71.20408032938683 33.94128139839749,-71.03098221339073 35.702937176593515,-73.73855696777801 36.095704479959394,-73.54709120571299 36.774691512989,-73.83718394715127 37.23225089274425,-73.60752110063689 37.72335527951416,-73.38194577422814 38.22550927964912,-73.1216242945113 38.757367266641594,-72.86017335958311 39.30166473786373,-72.56802001062455 39.860883519638705,-72.27550267253686 40.412701511739506,-71.96840888929763 40.96571314930999,-71.66220537863924 41.5138452764848,-71.3460719586012 42.05978773406475,-71.02662652618615 42.60228835109537,-70.7025632291718 43.13952787020245,-70.3708584315447 43.67615298122455,-70.0390622582652 44.18637020976344,-69.70676797903249 44.6781748485063,-69.39257529882602 45.137030541931736,-69.07700475788252 45.579810732883345,-68.78564505780501 45.98616809472967,-68.49010738032648 46.374683715612115,-68.22764231074034 46.59862668174181,-67.79026123929178 46.94570780797267,-67.55036673419485 46.30241225089027,-65.90121457952931 46.63952852165011,-65.66306300034097 44.33233760963418,-61.742310389437904 44.648035641998085,-61.51440452017029 43.19479492414893,-58.87541480050401 43.49582199116197,-58.6533736948169 42.26612879590049,-56.38902074511625 42.554550883538,-56.17167883449073 41.510272778070835,-54.21356200113551 41.787786386917944,-53.99994407258333 40.74741817901597,-52.08878071124644 41.04319379956978,-51.8560450378823 40.1674088011556,-50.1191392077894 40.48878507785557,-49.85987492611816 40.1976083679824,-48.82406587509563 40.542095831960346,-48.53839297539123 40.87762623053539,-48.2123493994192 41.24494084700297,-47.89849491771383 41.58408923921803,-47.551874731851996 41.94689039936416,-47.23214640679294 42.27703336437277,-46.87546220818203 42.63510281445348,-46.550021646868984 43.00030880599738,-46.23293591702486 43.3527636308597,-45.90260130412732 43.7325849037206,-45.601282081276146 44.072468277426296,-45.2728776394046 44.42246904924436,-44.98219560819114 44.72954763784961,-44.67685358525134 45.043102067507036,-44.40543602397788 45.31759663630036,-44.12526744908213 46.706947874684246,-44.95024616479306 46.94580411185747,-44.7007280291392 48.57967649596299,-45.78168454895125 48.813766944314175,-45.532008140409104 50.66165024491427,-46.77240867296756 50.9006277840601,-46.51222537997598 52.855581861282715,-47.80409848128321 53.0997491241414,-47.5327361768311 55.290701509235824,-48.98615471105852 55.54092607208242,-48.7022644013053 58.314441522035466,-50.60808154064682 58.57307818063867,-50.30851339183502 61.964767690864306,-52.67189466518626 62.237010235695976,-52.34993294671093 63.41009770580094,-52.74144637749902 63.723511287469044,-52.36234110738014 64.07155741473831,-51.973863205166445 64.41571561816659,-51.54670219731764 64.78775545798989,-51.108345631544395 65.15805311169996,-50.63540624079744 65.55126778500889,-50.14718272125696 65.93280667956519,-49.64447246628936 66.31719050115252,-49.14320255323138 66.69166985934521,-48.63378747872909 67.06477847399918,-48.12253271091191 67.43140919614561,-47.60743345425525 67.79156835084028,-47.08850777955735 68.14964485381275,-46.568768618799396 68.49440612429974,-46.04590486913464 68.82746096681966,-45.546565648782156 69.13155090191948,-45.05935523318449 69.42932517499219,-44.59916624646911 69.693603938591,-44.15030306748106 69.95529332072523,-43.73447870171666 70.17476196515598,-43.33594808342898 70.39838925745975,-42.97171631563171 69.69227854778697,-42.05170970829522 69.90689935395393,-41.693949216753445 66.60793515202229,-39.265092015008285 66.80820315285098,-38.92336660221551 64.0873286195019,-36.89976886312875 64.2754869964133,-36.571032294840386 62.17880439645195,-34.95768128547922 62.35708966452537,-34.63865709867691 60.49373170260964,-33.19904264818213 60.663145678000404,-32.88845944268041 58.89461627503894,-31.538064918239368 59.06202004719218,-31.223439159007317 57.524494563504646,-29.981991194207843 57.709505582535876,-29.6243183242331 56.45712585498855,-28.51598600173873 56.651308684546876,-28.128237445413458 56.82358324688099,-27.707006214242647 57.02941107379932,-27.28083721125344 57.20235172589611,-26.828164438762727 57.4059171001566,-26.389773246778205 57.56655900365445,-25.93154771530948 57.76362553846411,-25.48955564706253 57.94146541136873,-25.039424873666906 58.131427877312746,-24.59518865480878 58.35997740594569,-24.167338411591004 58.542973479655714,-23.720612658259505 58.753022417910664,-23.302865074343444 58.91627070046703,-22.88698780228318 59.10050277147256,-22.501070905733236 59.243759289110976,-22.121134804515517 60.25921579803494,-22.08363602242286 60.38368377789138,-21.740993583013026 62.292370816016465,-22.060295275936127 62.40468447609431,-21.74054840570274 64.53856085214231,-22.113632264517616 64.65102567126283,-21.78264098886321 66.83029515537424,-22.136327354364177 66.9427997918689,-21.79373523101923 69.48380741751853,-22.228036772019664 69.59674697606533,-21.87185228375967 72.5483121226568,-22.39172626464277 72.66209675731264,-22.019688730498896 77.1269243948184,-22.941729006136363 77.24356326306902,-22.545893879358342 79.05758267892833,-22.6260276752498 79.18510002639815,-22.17562718856169 79.56917795933437,-21.76129214675755 79.70744842677006,-21.249248982365113 79.86880571186185,-20.715775770137878 80.0134075282948,-20.15003988355313 80.17458135383208,-19.56248056215159 80.32174341796556,-18.949186666063078 80.47380909562403,-18.336518897927032 80.61180156395797,-17.72002607972237 80.74952985552771,-17.102810602352264 80.8782353635293,-16.48343856330508 81.00119798473878,-15.863560426241715 81.12017652502355,-15.243476798581456 81.22822573490328,-14.62186666933278 81.33529463118593,-14.014046103617778 81.42235470722561,-13.42847354152967 81.51239848998183,-12.870611490338536 81.57815457214255,-12.334976014255878 81.65305069800556,-11.829042580766457 81.69870926970019,-11.349629945178885 81.75800652832262,-10.91428260318804 81.28113216998798,-10.424862024367622 81.33350646228044,-10.00804284624839 78.33013106955993,-9.231258849640835 78.37639387138235,-8.829861666042646 74.55818119713314,-8.013193921362106 74.59824266556109,-7.631241803006441 71.84246353349896,-6.977725837932328 71.87726219221605,-6.609644784926439 69.45902490450295,-6.02856388931176 69.489009159501,-5.6725064374280745 67.34937463264892,-5.150368411004359 67.37516946609867,-4.801155860045573 65.3608972010324,-4.294861193148855 65.38534993982115,-3.904962079133547 63.48909494640425,-3.389400290679839 63.51022730376242,-2.9671938373527964 63.177330570819855,-2.5108202697411115 63.193932335511356,-2.0509101531768987 63.17223994211462,-1.5700735350436146 63.18239744490464,-1.0870525855052338 63.14731634746267,-0.6031887577930121 63.15008396626435,-0.11955591920386531 z"
       style="opacity:0.45640013;fill:#ffff00;stroke:#000000"
       id="path16"
       inkscape:connector-curvature="0"
       sodipodi:nodetypes="ccccccccccccccccccccccccccccccccccccccccccccccccccccccccccccccccccccccccccccccccccccccccccccccccccccccccccccccccccccccccccccccccccccccccccccccccccccccccccccccccccccccccccccccccccccccccccccccccccccccccccccccccccccccccccccccccccccccccccccccccccccccccccccccccccccccccccccccccccccccccccccccccccccccccccccccccccccccccccccccccccccccccccccccccccccccccccccccccccccccccccccccccccccccccccccccccccccccccccccccccccccccccccccccccccccccccccccccccccccccccccccccccccccccccccccccccccccccccccccccccccccccccccccccccccccccccccccccccccccccccccccccccccccccccccccccccccccccccccccccccccccccccccc" />
  </g>
  <g
     inkscape:groupmode="layer"
     inkscape:label="0"
     id="g26" />
</svg>
