<?xml version="1.0" encoding="UTF-8" standalone="no"?>
<svg
   xmlns:dc="http://purl.org/dc/elements/1.1/"
   xmlns:cc="http://creativecommons.org/ns#"
   xmlns:rdf="http://www.w3.org/1999/02/22-rdf-syntax-ns#"
   xmlns:svg="http://www.w3.org/2000/svg"
   xmlns="http://www.w3.org/2000/svg"
   xmlns:sodipodi="http://sodipodi.sourceforge.net/DTD/sodipodi-0.dtd"
   xmlns:inkscape="http://www.inkscape.org/namespaces/inkscape"
   id="svg8"
   version="1.1"
   viewBox="0 0 210 297"
   height="297mm"
   width="210mm"
   sodipodi:docname="deusotest.svg"
   inkscape:version="0.92.3 (2405546, 2018-03-11)">
  <sodipodi:namedview
     pagecolor="#ffffff"
     bordercolor="#666666"
     borderopacity="1"
     objecttolerance="10"
     gridtolerance="10"
     guidetolerance="10"
     inkscape:pageopacity="0"
     inkscape:pageshadow="2"
     inkscape:window-width="1920"
     inkscape:window-height="992"
     id="namedview6"
     showgrid="false"
     inkscape:zoom="3.3088147"
     inkscape:cx="15.40125"
     inkscape:cy="1169.6922"
     inkscape:window-x="0"
     inkscape:window-y="24"
     inkscape:window-maximized="1"
     inkscape:current-layer="svg8" />
  <defs
     id="defs2" />
  <metadata
     id="metadata5">
    <rdf:RDF>
      <cc:Work
         rdf:about="">
        <dc:format>image/svg+xml</dc:format>
        <dc:type
           rdf:resource="http://purl.org/dc/dcmitype/StillImage" />
        <dc:title></dc:title>
      </cc:Work>
    </rdf:RDF>
  </metadata>
  <path
     style="opacity:1;fill:#f6ffd5;fill-rule:evenodd;stroke:#000000;stroke-width:0.26458332px;stroke-linecap:butt;stroke-linejoin:miter;stroke-opacity:1"
     d=" M -21.955262339055928,0.09909795132143474 -21.95688770125545,0.1981898212403023 -21.957443011912883,0.2972718816837794 -21.956928740207534,0.3963404105585734 -21.95534519611549,0.4953916887824922 -21.952692530539924,0.5944219973209081 -21.948970735392056,0.6934276142252824 -21.944179643623002,0.7924048116709301 -21.938318929206318,0.8913498529911897 -21.931388107071477,0.9902589897051787 -21.923386532988136,1.0891284585362866 -21.9143134034013,1.1879544784185607 -21.90416775521731,1.2867332474881137 -21.892948465540574,1.3854609400566635 -21.880654251361154,1.4841337035643003 -21.867283669192954,1.5827476555085238 -21.852835114662533,1.6812988803465891 -21.837306822048472,1.7797834263681354 -21.82069686377115,1.8781973025350491 -21.80300314983277,1.9765364752854486 -21.784223427207642,2.074796865298644 -21.764355279182414,2.172974344217848 -21.743396124646246,2.2710647313273777 -21.721343217330645,2.36906379018099 -21.69819364499889,2.4669672251779513 -21.673944328584778,2.5647706780833404 -21.648592021280557,2.6624697244890227 -21.62213330757383,2.7600598702116264 -21.594564602233206,2.8575365476237593 -21.56588214924252,2.954895111914624 -21.53608202068339,3.052130837276063 -21.505160115565868,3.1492389130099427 -21.473112158607023,3.246214439552698 -21.439933698957166,3.343052424412704 -21.53508540550054,3.4591024698761124 -21.71271177843435,3.587673594262718 -21.884659851127793,3.7149841514454067 -22.051155460170808,3.841037153156188 -22.212412757710144,3.9658374583253524 -22.368634947943203,4.08939153215958 -22.5200149690728,4.2117072332766705 -22.666736125330168,4.332793625487058 -22.808972673240767,4.45266081125944 -22.946890365917007,4.571319784290937 -23.0806469588137,4.688782298931955 -23.210392680066708,4.805060754499604 -23.33627066825313,4.920168092758756 -23.45841738015616,5.034117707061849 -23.57696297088919,5.146923361822505 -23.692031648525578,5.258599121157634 -23.803742005194103,5.369159285671727 -23.91220732643083,5.478618336478186 -24.01753588042527,5.5869908856583725 -24.119831188659916,5.694291632451527 -24.219192279316754,5.800535324549831 -24.315713924710526,5.90573672394402 -24.40948686390435,6.009910576827344 -24.500598011570165,6.113071587120872 -24.589130654069855,6.21523439323135 -24.67516463365563,6.316413547695787 -24.758776521616475,6.416623499404492 -24.840039781133445,6.515878578127935 -24.919024920546462,6.614192981102134 -24.995799637681955,6.711580761453713 -25.07042895584037,6.808055818268804 -25.14297535199807,6.903631888130924 -25.21349887773608,6.998322537971098 -25.282057273370164,7.0921411590900005 -25.348706075721992,7.185100962226433 -25.41349871993881,7.277214973559477 -25.47648663573986,7.368496031543244 -25.537719338440382,7.458956784483592 -25.59724451507917,7.548609688775304 -25.65510810595297,7.637467007726754 -25.711354381839286,7.7255408109062556 -25.7660260171702,7.812842973951195 -25.8191641594012,7.899385178786813 -25.870808494802993,7.985178914207041 -25.920997310888342,8.070235476774483 -25.969767555672085,8.154565972001011 -26.017154893949016,8.238181315774325 -26.063193760762577,8.321092235999325 -26.107917412225436,8.403309274426299 -26.151357973843027,8.484842788640742 -26.19011399136052,8.564613064944094 -26.10258164920216,8.603704285292853 -26.013477805383264,8.64258135850492 -25.92276521918994,8.681232372207209 -25.830405401061643,8.719644805252635 -25.736358560564433,8.757805494466053 -25.640583551733748,8.79570059930372 -25.543037815631674,8.83331556427652 -25.44367731995269,8.870635078974756 -25.342456495500997,8.907643035519095 -25.239328169349996,8.944322483247499 -25.13424349448191,8.980655580432096 -25.027151875691008,9.016623542802407 -24.918000891519355,9.052206588632224 -24.806736211976947,9.087383880126263 -24.693301511781264,9.122133460819786 -24.577638378831708,9.156432188678938 -24.45968621761444,9.190255664561642 -24.339382147210465,9.223578155668116 -24.21666089355645,9.256372513576341 -24.091454675581687,9.28861008642022 -23.96369308481687,9.320260624727187 -23.833302958040097,9.351292180386 -23.700208242492963,9.381670998165273 -23.564329853164484,9.411361399147056 -23.425585521602127,9.440325655377755 -23.283889635668295,9.46852385496958 -23.139153069615546,9.495913756808891 -22.99128300380567,9.522450633942343 -22.840182733345173,9.548087104616187 -22.685751464853308,9.57277294983774 -22.527884100516797,9.596454916208568 -22.366471008519575,9.619076502645717 -22.201397778863463,9.640577729457423 -22.03254496351852,9.660894888071711 -21.85978779975713,9.679960269526706 -21.682995915435836,9.697701869618568 -21.502033014890838,9.714043068361734 -21.316756544008133,9.728902281144162 -21.127017332915706,9.742192578651192 -20.932659214624504,9.753821272281778 -20.733518617814703,9.763689461381956 -20.529424131826595,9.771691538166694 -20.320196041767883,9.77771464568209 -20.105645831495952,9.781638083566634 -20.097247650586965,9.884673948464316 -20.166123497732144,10.025029376117157 -20.232437119138588,10.16384671855224 -20.296266579718434,10.301148960704268 -20.3576868421666,10.436958840447645 -20.41676991486581,10.571298832417035 -20.47358499148813,10.704191134281118 -20.52819858282782,10.835657655203885 -20.58067464136092,10.965720006255758 -20.631074678991926,11.094399492562143 -20.6794578784147,11.221717106999176 -20.72588119848506,11.347693525266548 -20.770399473974184,11.472349102184781 -20.81306551004673,11.595703869080387 -20.853930171783425,11.717777532136216 -20.893042469046538,11.838589471597276 -20.930449636966024,11.958158741733293 -20.9661972123056,12.076504071469616 -21.000329105950605,12.193643865606978 -21.032887671743698,12.309596206558897 -21.063913771879392,12.424378856542747 -21.093446839054774,12.538009260167007 -21.121524935560853,12.650504547363072 -21.14818480948741,12.761881536615507 -21.173461948202984,12.872156738449021 -21.19739062926147,12.981346359135092 -21.220003968877283,13.089466304584576 -21.241333968102342,13.196532184396627 -21.261411556829678,13.302559316036833 -21.280266635740972,13.407562729120707 -21.297928116308114,13.511557169780945 -21.314423958952208,13.614557105099212 -21.329781209457302,13.71657672758535 -21.34402603373031,13.81762995968866 -21.35718375099307,13.91773045832758 -21.369278865487594,14.01689161942569 -21.38033509677072,14.115126582443217 -21.390375408670035,14.21244823489451 -21.399422036968748,14.308869216843068 -21.407496515883302,14.404401925366601 -21.41461970339404,14.499058518985686 -21.420811805485627,14.592850922050207 -21.42609239935094,14.68579082907863 -21.430480455608983,14.777889709045715 -21.43399435958481,14.869158809614971 -21.43665193169653,14.959609161312656 -21.438470446992312,15.049251581640524 -21.43946665387762,15.138096679125072 -21.43965679207115,15.226154857301347 -21.43905660982557,15.313436318629831 -21.437681380447398,15.399951068345041 -21.43554591814842,15.48570891823495 -21.43266459325953,15.570719490350525 -21.42905134683612,15.654992220644852 -21.4247197046826,15.73853636254156 -21.419682790822463,15.821360990432494 -21.413953340438532,15.903475003104585 -21.407543712307255,15.984887127096165 -21.40046590074933,16.065605919983085 -21.392731547117993,16.145639773594933 -21.384351950845186,16.22499691716195 -21.37533808006493,16.303685420393283 -21.365700581831973,16.381713196487148 -21.35544979195336,16.459088005073696 -21.34459574444924,16.535817455091408 -21.33314818065871,16.611909007597784 -21.321116558005706,16.68736997851523 -21.258729415421815,16.723747693467885 -21.101440186183176,16.68655553104074 -20.94011183947079,16.646906927424055 -20.774579709598655,16.604669226618192 -20.604669869598176,16.55970069122274 -20.43019846848491,16.51184973620018 -20.250971011018535,16.460954084757084 -20.0667815741198,16.406839837003513 -19.877411953435896,16.34932044075061 -19.68263073278946,16.288195552299165 -19.48219226839311,16.223249773318713 -19.275835578750094,16.154251247873848 -19.063283130077217,16.08095010126633 -18.84423950586291,16.003076699561667 -18.61838994779414,15.92033970537739 -18.38539875373157,15.832423901627077 -18.144907516662975,15.738987750319955 -17.896533186599136,15.639660648059301 -17.63986593517325,15.534039833380822 -17.374466800244008,15.421686893292389 -17.099865085069947,15.302123807033928 -16.815555483607312,15.174828453805107 -16.52099490019404,15.039229497554263 -16.215598928342445,14.894700545297567 -15.898737949640855,14.740553455098578 -15.916572638610738,14.89357515915688 -15.970088368795285,15.079292450847563 -16.020531501198942,15.261738014447307 -16.06802823085912,15.440995658717366 -16.112698306034968,15.617146501280526 -16.15465542272908,15.79026905616412 -16.19400759085091,15.96043932006986 -16.23085747436655,16.127730857068002 -16.26530270756073,16.29221488148127 -16.297436189339553,16.453960338779595 -16.327346357327258,16.613033984354203 -16.35511744335089,16.769500460077058 -16.380829711765344,16.92342236858449 -16.404559681942512,17.074860345249302 -16.426380336133278,17.223873127827975 -16.446361313806413,17.370517623786366 -16.464569093474484,17.51484897532227 -16.481067162931527,17.656920622114075 -16.495916178749994,17.796784361834266 -16.509174115814666,17.93449040847375 -16.52089640760723,18.070087448528025 -16.53113607789798,18.203622695101135 -16.53994386444798,18.335141939985636 -16.547368335277632,18.464689603779497 -16.553455998013632,18.592308784101824 -16.558251402786688,18.718041301970125 -16.561797239115712,18.841927746401694 -16.564134427181415,18.96400751730188 -16.565302203861282,19.084318866700777 -16.565338203870528,19.202898938399457 -16.564278536327574,19.319783806085102 -16.562157857039757,19.435008509973787 -16.55900943678291,19.54860709203746 -16.5548652258291,19.66061262987066 -16.549755914958315,19.771057269250353 -16.54371099317336,19.879972255441103 -16.53675880232183,19.9873879632956 -16.528926588814677,20.09333392619915 -16.520240552617764,20.197838863904725 -16.510725893680974,20.30093070930377 -16.50040685595803,20.40263663417594 -16.489306769159793,20.50298307395953 -16.477448088374604,20.601995751582546 -16.46485243167989,20.69969970039282 -16.451540615861656,20.796119286224172 -16.43753269035023,20.891278228633784 -16.422847969474304,20.98519962134494 -16.407505063128042,21.077905951927324 -16.391521905940632,21.16941912074631 -16.374915785031597,21.25976045921085 -16.357703366430044,21.34895074734866 -16.33990072023125,21.437010230735893 -16.321523344559306,21.52395863680764 -16.302586188400515,21.609815190574185 -16.28310367336801,21.694598629767068 -16.263089714454722,21.778327219437806 -16.242557739828108,21.861018766031357 -16.221520709717115,21.9426906309552 -16.199991134438683,22.023359743664276 -16.177981091608352,22.103042614280834 -16.15550224257702,22.181755345767804 -16.132565848133368,22.259513645673152 -16.10918278350924,22.336332837462148 -16.085363552723052,22.412227871453588 -16.061118302294496,22.487213335375554 -16.03645683436169,22.561303464555294 -16.011388619230384,22.63451215175758 -15.985922807383043,22.706852956684827 -15.960068240974152,22.778339115152182 -15.923030294650243,22.833769480801127 -15.827178723962604,22.805808473062662 -15.730050890860968,22.776575178193706 -15.631618218210555,22.746029743583495 -15.531851238453791,22.714130650199344 -15.430719559116548,22.680834627758813 -15.328191826746846,22.64609656471525 -15.224235689208442,22.60986941268526 -15.118817756248582,22.57210408491642 -15.011903558254769,22.53274934835964 -14.903457503112318,22.49175170887451 -14.793442831070044,22.44905528905526 -14.681821567517998,22.404601698121585 -14.568554473577068,22.358329893269783 -14.453600994396737,22.310176031827044 -14.336919205053425,22.260073313493077 -14.218465753938801,22.20795181188941 -14.098195803523941,22.153738294565546 -13.97606296838302,22.097356030533565 -13.852019250357683,22.038724584316192 -13.726014970742208,21.977759595398393 -13.59799869936899,21.914372541866832 -13.467917180474721,21.8484704869049 -13.33571525522994,21.779955806681304 -13.201335780818738,21.708725898026028 -13.064719545962026,21.634672864127722 -12.925805182787158,21.557683176307734 -12.78452907495972,21.47763730972753 -12.64082526201059,21.39440935066376 -12.494625339814501,21.30786657273743 -12.345858357205303,21.217868979204912 -12.194450708751123,21.124268808107256 -12.04032602375971,21.026909996723727 -11.883405051644159,20.925627601381578 -11.723605543853354,20.820247168230086 -11.560842132664463,20.710584050086386 -11.395026207249257,20.596442663893242 -11.226065787568885,20.477615682689056 -11.053865396826707,20.35388315526111 -10.878325933426604,20.225011545827464 -10.699344543651165,20.090752685149564 -10.638575328277891,20.176057655570286 -10.592377110971393,20.288359472775205 -10.545505838909161,20.399018824950442 -10.497982849090162,20.508061988818113 -10.44982868457642,20.615514620982527 -10.40106312733387,20.721401773607422 -10.351705229508996,20.825747909678988 -10.301773343225927,20.928576917860976 -10.251285148983827,21.029912126949192 -10.200257682729314,21.12977631993258 -10.14870736167424,21.22819174766865 -10.096650008925074,21.32518014218123 -10.044100876985969,21.420762729588713 -9.991074670194196,21.514960242670835 -9.937585566143012,21.60779293308271 -9.883647236143913,21.699280583224116 -9.829272864777298,21.789442517772713 -9.774475168577585,21.878297614889362 -9.719266413896394,21.96586431710398 -9.663658433984795,22.0521606418901 -9.607662645333512,22.1372041919364 -9.551290063307553,22.221012165123014 -9.494551317109963,22.303601364210824 -9.437456664107334,22.384988206251297 -9.380016003548025,22.46518873172464 -9.322238889702263,22.544218613413715 -9.264134544451826,22.622093165020996 -9.20571186935545,22.698827349535875 -9.146979457214817,22.774435787359252 -9.087945603164448,22.848932764192146 -9.028618315307932,22.92233223869523 -8.969005324921433,22.99464784992561 -8.909114096244474,23.06589292455721 -8.848951835877074,23.13608048389103 -8.788525501801029,23.205223250661103 -8.727841812042618,23.273333655642194 -8.666907252992727,23.340423844064677 -8.605728087400026,23.406505681842255 -8.544310362051549,23.47159076161784 -8.48265991515483,23.535690408632675 -8.4207823834346,23.59881568642386 -8.358683208956768,23.660977402355083 -8.29636764569145,23.72218611298528 -8.233840765826663,23.78245212927987 -8.171107465843248,23.84178552166892 -8.108172472361487,23.900196124956604 -8.045040347769161,23.957693543086084 -7.981715495640444,24.014287153763902 -7.9182021659544555,24.069986112947703 -7.854504460122041,24.12479935920114 -7.790626335828828,24.178735617919564 -7.726571611702319,24.231803405430114 -7.662343971810317,24.28401103296948 -7.597946969997804,24.33536661054287 -7.533384034068879,24.38587805066714 -7.452553426885747,24.384558705454783 -7.319385560900933,24.21603413274154 -7.183421165050952,24.040621656265543 -7.044561217142916,23.8579403431053 -6.902702345145751,23.66758103144145 -6.757736664241913,23.469103685522178 -6.609551622948269,23.262034448427432 -6.458029863583037,23.045862351621214 -6.303049103922201,22.820035633797577 -6.144482048899425,22.5839576138637 -5.982196343791176,22.33698205382396 -5.816054583667792,22.078407936527874 -5.645914398217096,21.80747357035863 -5.471628636672467,21.523349917503236 -5.293045684926147,21.225133023891466 -5.110009956557024,20.911835406495857 -4.9223626122416295,20.58237622654988 -4.729942578939674,20.235570044211332 -4.532587962881281,19.870113909823388 -4.330137980885938,19.484572497325164 -4.122435575992682,19.077360924139146 -3.9093309402213645,18.646724825880188 -3.7008181523044654,18.237576451527673 -3.618585143496791,18.43087875945064 -3.535433899464359,18.619678760323637 -3.4514374327250614,18.804099945105264 -3.3666641321168247,18.984261465512702 -3.281178082953424,19.16027830395117 -3.195039361957749,19.33226143719081 -3.1083043092372837,19.500317993845787 -3.0210257793365423,19.66455140574879 -2.9332533731969685,19.825061553342415 -2.845033652674068,19.981944905231725 -2.7564103391003205,20.135294652057773 -2.667424497239337,20.285200834864632 -2.578114705848519,20.431750468139153 -2.488517215953533,20.575027657708514 -2.3986660978352567,20.715113713682463 -2.3085933776385112,20.852087258627645 -2.2183291644292398,20.98602433116002 -2.1279017684531443,21.1169984851395 -2.037337811281871,21.24508088464653 -1.9466623284730427,21.37034039491732 -1.8558988653160913,21.492843669408593 -1.7650695661870237,21.61265523315845 -1.6741952579907684,21.729837562603983 -1.583295528129875,21.844451162010937 -1.4923887974016912,21.956554636664727 -1.4014923881933878,22.06620476296689 -1.3106225883138876,22.173456555574642 -1.2197947107747342,22.27836333171614 -1.1290231498068792,22.380976772808154 -1.038321433377734,22.481346983497463 -0.9477022724522721,22.579522548242217 -0.8571776072228677,22.67555058554381 -0.7667586505154871,22.76947679993554 -0.6764559285639498,22.861345531828924 -0.5862793193295069,22.95119980531428 -0.4962380885297886,23.039081374007395 -0.40634092352894663,23.125030765030317 -0.3165959652296672,23.2090873212096 -0.22701083809754805,23.29128924157194 -0.13759267843874806,23.371673620213063 -0.04834816104330662,23.45027648361231 0.04071647570158483,23.527132826461738 0.1295954061313272,23.60227664607576 0.21828319496659898,23.67574097544345 0.3067747762349668,23.74755791498356 0.3932130573392349,23.538563047560608 0.4759195254407341,22.921904869779244 0.559170660796687,22.24843654547898 0.6424805961675577,21.510011759064756 0.7251663047121956,20.69685077820573 0.8062667305216974,19.797110016099122 0.8844226185239097,18.79630818745732 0.966084867264218,17.88242951403547 1.097026936794423,18.014021710640225 1.22784992967195,18.14208037156441 1.3585203260775351,18.26669096991383 1.4890068708503976,18.38793627955689 1.6192804257466407,18.50589647067289 1.7493138322049129,18.62064920187317 1.879081783780852,18.732269708974023 2.008560707486941,18.840830890507245 2.1377286533419904,18.946403390059142 2.266565191495441,19.049055675531655 2.3950513163465232,19.14885411542216 2.5231693571280833,19.2458630522189 2.650902894469764,19.340144873009677 2.778236682495809,19.43176007740069 2.905156576049853,19.520767342841875 3.0316494626722372,19.607223587452943 3.157703198986127,19.69118403044342 3.28330655117611,19.772702250217034 3.4084491392683622,19.85183024024927 3.533121384944303,19.92861846282394 3.6573144626406644,20.0031159007125 3.7810202537080637,20.075370106876715 3.904231303417648,20.145427252273336 4.026940780621379,20.213332171835916 4.149142439886238,20.279128408706985 4.270830585935948,20.34285825679068 4.392000040246383,20.40456280169345 4.512646109651823,20.464281960117834 4.632764556829924,20.52205451777195 4.7523515725426515,20.57791816585463 4.871403749519249,20.631909536173907 4.989918057875519,20.68406423495412 5.1078918219710046,20.734416875384785 5.225322698612712,20.783001108962115 5.342208656520283,20.829849655671858 5.4585479569733195,20.874994333060382 5.574339135567211,20.91846608423867 5.689580985008586,20.960295004862154 5.804272538886347,21.000510369127536 5.838010123219545,20.740950183119953 5.838278606696223,20.358141404035518 5.834079611584272,19.957513772958837 5.824898940697622,19.53781239208669 5.810153736467476,19.097662281834 5.789181208988675,18.63555387643405 5.761225088619563,18.149826427307804 5.725419241656131,17.638648975015162 5.680767718940955,17.099998495425826 5.626120277055422,16.53163476518416 5.5601420927132335,15.931071428597704 5.481275941232678,15.295542689660515 5.592395808662797,15.204687019547181 5.7712032406993306,15.301801922266193 5.948862512652071,15.394980567178022 6.125353276668576,15.484334413523037 6.300657614267641,15.569970920533123 6.474759840483061,15.65199371304317 6.647646324125284,15.730502739595414 6.819305322703522,15.805594423364784 6.989726830697004,15.877361806224776 7.158902439995163,15.945894686265481 7.326825211441852,16.01127974906483 7.493489556522435,16.073600693003964 7.65889112832436,16.13293834890645 7.823026720984632,16.189370794270324 7.985894176910609,16.242973462350044 8.147492301127496,16.29381924633517 8.307820782164269,16.341978598860724 8.466880118943747,16.38751962707416 8.624671553190133,16.430508183472813 8.781197006910562,16.471007952716022 8.936459024546215,16.509080534605772 9.090460719423932,16.54478552342091 9.243205724170569,16.578180583780185 9.394698144781856,16.609321523201277 9.544942518062978,16.638262361514286 9.693943772182282,16.665055397280327 9.841707190100532,16.689751271358364 9.988238375658382,16.712399027756064 10.133543222121547,16.733046171893676 10.277627883000413,16.751738726403442 10.420498744974795,16.768521284580736 10.377606057167652,16.48224702144205 10.310214864602248,16.156324521638528 10.236319605529754,15.81996038573326 10.155432890593797,15.472658334963329 10.067021387612522,15.113891720474458 9.97050037413966,14.74310149932289 9.865227486758112,14.35969412564905 9.750495521088647,13.963039378911995 9.625524103932136,13.552468163903862 9.489450017513409,13.127270335574133 9.34131590251195,12.686692627887917 9.180056997303845,12.229936803546307 9.161051004994219,11.96749148397228 9.38919186064358,12.033313772368679 9.614501188947463,12.094541956679576 9.836994316655337,12.151350803482782 10.05668902170468,12.203906961885583 10.273605212519769,12.252369412874401 10.487764642625743,12.29688988957358 10.69919065651218,12.337613270560604 10.907907963191185,12.374677948209262 11.113942434335673,12.408216173872553 11.317320924263184,12.438354381569804 11.518071109360545,12.465213491710218 11.716221344829787,12.4889091962619 11.911800536884599,12.509552226664631 12.104838028743512,12.527248605682885 12.295363498954606,12.542099884302026 12.483406870752972,12.554203364686161 12.66899823129699,12.56365231013759 12.85216775975719,12.570536142926976 13.032945663343828,12.574940630797483 13.211362120458576,12.576948062886757 13.38744723024254,12.576637415755064 13.515360033062711,12.53044600125328 13.3862638650914,12.242936314947848 13.24936902130235,11.94840881002667 13.104198890198825,11.64662349966639 12.950239100347975,11.33733240826113 12.786933728321484,11.020279814891781 12.61368103187394,10.695202665545551 12.42982863498953,10.361831203641682 12.234668077483738,10.019889882687739 12.027428624651362,9.66909864367018 11.80727021107148,9.309174664684566 11.858314365940577,9.167485364185218 12.042810192815734,9.13051619565112 12.224721972739797,9.091084820802978 12.404069374138409,9.049274899636467 12.580872591218883,9.005166932106349 12.755152265735257,8.95883839740262 12.926929415783023,8.91036388617508 13.096225370993114,8.859815226111113 13.263061713555908,8.80726160124613 13.427460224559699,8.752769665362061 13.589442835176877,8.696403649806985 13.749031582274416,8.638225466048182 13.906248568064635,8.578294803251618 14.061115923447108,8.516669221162545 14.21365577472467,8.453404238545245 14.363890213404481,8.38855341742404 14.511841268821662,8.32216844335305 14.657530883345503,8.25429920192837 14.800980889950086,8.184993851743728 14.94221299194955,8.11429889397826 15.081248744716119,8.04225923879448 15.21810953921423,7.968918268713355 15.352816587198685,7.89431789912425 15.485390907937322,7.8184986360777255 15.61585331633102,7.741499631501292 15.744224412313681,7.663358735969482 15.870524571425731,7.584112549152633 15.580629651450373,7.302682022568424 14.507403449393975,6.648601765228156 13.395000754734156,5.9794303820956 13.54009074061399,5.886194735905648 13.682495365577307,5.791417964591611 13.82223761385919,5.695158919227502 13.959340497724552,5.597474418994195 14.09382702441423,5.498419334174301 14.225720166039608,5.398046665360916 14.35504283218354,5.296407619077657 14.481817844986423,5.193551679996048 14.606067916514645,5.089526679925591 14.727815628226255,4.9843788637419655 14.847083412363633,4.878152952409265 14.963893535117638,4.770892203243582 15.078268081420271,4.662638467556731 15.190228941234635,4.553432245811481 15.299797797221744,4.44331274041206 15.406996113673726,4.332317906247111 15.511845126611249,4.220484499095761 15.614365834952046,4.107848122001408 15.714578992664084,3.9944432697122965 15.81250510182429,3.8803033712825004 15.908164406509695,3.7654608309218784 15.898501599196514,3.62486431394632 15.775912219206589,3.457863789969491 15.64904332677474,3.290242340196126 15.517773719364094,3.1220421933179923 15.38197779784386,2.9533094585177277 15.241525387206071,2.7840944491076645 15.096281550367378,2.6144520360869277 14.946106395030927,2.444442034824207 14.790854873647463,2.27412962847526 14.630376576596902,2.1035858322056393 14.464515518816246,1.9328880028187754 14.293109920229025,1.7621203990006669 14.115991980494817,1.591374798098332 13.932987648801197,1.4207511761683207 13.743916389674398,1.2503584589839878 13.733706263151245,1.0983293979105508 13.822287617243079,0.9549439209240509 13.907852860439931,0.8109872516054053 13.990433627571202,0.6665078065739867 14.070061229352639,0.5215523734180888 14.146766639771576,0.3761661791906767 14.220580485067325,0.2303929558609831 14.291533034171586,0.08427500287904527 14.359654190484452,-0.06214675299876348 14.424973484872547,-0.20883270048358485 14.48752006978506,-0.355744488995516 14.547322714392173,-0.5028449762481959 14.56505320985264,-0.6489852456526789 14.232072124391541,-0.7817831979357015 13.887327852975117,-0.9126724624583191 13.530291792197124,-1.0413163257569529 13.160406011919017,-1.1673359923088438 12.77708167378015,-1.2903044942722843 12.379697468619895,-1.409739511540657 11.96759812306571,-1.5250948577982542 11.540093048513507,-1.6357503198113803 11.096455238801443,-1.7409994450102457 10.89888130087636,-1.8796021270931995 10.950235538820055,-2.057959898015962 10.997498563216347,-2.2362869290399687 11.040727898825182,-2.41450756088438 11.079980576752682,-2.5925491014599 11.115313105022377,-2.7703416868137603 11.146781443182705,-2.9478181490389423 11.174440980573706,-3.124913890749616 11.198346517911432,-3.3015667657500187 11.2185522518802,-3.4777169655476903 10.739270749481225,-3.503004408381434 10.120788344777285,-3.4798653875934242 9.474470358684515,-3.441325698815239 8.79870286943703,-3.3850424558459657 8.091813754441098,-3.3082078883627055 7.518699702860041,-3.27431005889309 7.4838772788771415,-3.461172385415486 7.443819748646921,-3.6464207879652646 7.39861429063106,-3.829932561933578 7.348348852225364,-4.0115887792748275 7.293112080210883,-4.191274153110138 7.232993258037468,-4.3688769078792005 7.168082249457931,-4.544288654849403 7.098469448069187,-4.71740427279785 7.024245732352334,-4.88812179368864 6.945502425835612,-5.056342293174568 6.8623312620340124,-5.221969785759356 6.774824353846246,-5.384911124463337 6.683074167114869,-5.54507590484244 6.58717349807827,-5.7023763732171115 6.48721545446421,-5.856727338974533 6.383293439994131,-6.008046090814138 6.275501142085131,-6.156252316812935 6.163932522553281,-6.301268028193723 6.048681811136702,-6.443017486685355 5.929843501671273,-6.5814271353706655 5.807512350764436,-6.716425532923554 5.681783378824704,-6.84794329114287 5.552751873315369,-6.975913015696431 5.420513394111315,-7.100269249994457 5.28516378084698,-7.2209484221171145 5.146799162152546,-7.337888794726746 5.0055159666832765,-7.451030417900507 4.86141093585459,-7.560315084824808 4.687613360341052,-7.624319939215841 4.324878047187767,-7.384247992785182 3.9590122905920144,-7.127223423536324 3.590614697065222,-6.852045812672281 3.220435946802963,-6.557396500823058 2.8494184044107502,-6.241822011553191 2.4787489586729134,-5.903714191989005 2.1099309412884053,-5.541286192826982 1.7448843771785107,-5.1525431183270065 1.386089793899763,-4.735245781321669 1.0368018743671052,-4.286865476713548 0.8214309417306316,-4.287725374297524 0.704939723711917,-4.777902341645379 0.5683961268794764,-5.248877637175866 0.41509093823091014,-5.701021168559328 0.24771571469297493,-6.134841424716244 0.06850037119511138,-6.550924703394497 -0.12068796002077906,-6.949897280063805 -0.31827201321112036,-7.3324014107650415 -0.5229094049851554,-7.699079953072918 -0.7334503808256458,-8.050566498355519 -0.9489048104007187,-8.387479102861429 -1.1684160382606428,-8.710416407238714 -1.3912399061057295,-9.019955360201447 -1.6167277375285034,-9.316650027940671 -1.8443124010802623,-9.60103114081694 -2.0569751600661017,-9.784585117320841 -2.196298075178902,-9.595765494111218 -2.3325575883839345,-9.40145943501726 -2.4655267057989403,-9.201599181177414 -2.5949648343651126,-8.996119783911471 -2.720616809263323,-8.78495971434349 -2.842211836530745,-8.56806156356272 -2.9594623418633046,-8.345372847665002 -3.072062715446403,-8.116846934623323 -3.179687941344591,-7.882444113089841 -3.2819920984754565,-7.642132827072656 -3.378606718461992,-7.39589110512731 -3.4691389836633078,-7.14370821847841 -3.5531697463880207,-6.885586609633858 -3.846112572263948,-7.046374818695542 -4.452670146393495,-7.780450578773852 -5.040260564556018,-8.4544709232645 -5.608216469492235,-9.075146442770343 -6.156452407828916,-9.648174552923782 -6.685239618222689,-10.178440305441598 -7.195066967822972,-10.67016632610048 -7.686552653083653,-11.127027783902605 -8.16038704509607,-11.552242409705562 -8.617295254091712,-11.94864217609263 -9.05801249189515,-12.318731170925922 -9.483267902475733,-12.664732870141771 -9.893774079183459,-12.988629136444027 -10.13260065241987,-13.082548847052314 -10.18317990943864,-12.929609788025637 -10.231967171571064,-12.77464456265038 -10.27891073141228,-12.61764013825031 -10.323957159196702,-12.458583686029733 -10.367051234933745,-12.297462616521651 -10.408135877469919,-12.134264618000334 -10.447152070317932,-11.96897769810723 -10.484038784084815,-11.801590228962521 -10.518732895321698,-11.63209099605947 -10.551169101607012,-11.460469251266064 -10.750919553983492,-11.473312993436657 -11.14891149550293,-11.699874367606403 -11.534542790461366,-11.911966624265665 -11.908336771656817,-12.110637195382479 -12.270795248665046,-12.296837610387596 -12.622398137051768,-12.47143426809655 -12.96360351623287,-12.6352177603882 -13.29484798696263,-12.788910976378244 -13.616547234308959,-12.933176174016694 -13.92909672726997,-13.068621172952044 -14.232872504668558,-13.195804796096315 -14.528232010544633,-13.315241666074474 -14.815514952293173,-13.427406445514615 -15.095044162234208,-13.532737596079324 -15.36712644882847,-13.631640719596666 -15.629557765783398,-13.722249545713037 -15.863608871082018,-13.788029963291358 -16.09238541986514,-13.849548449932175 -16.316060616836918,-13.907021058968505 -16.534800453811915,-13.960650396763201 -16.74876403837331,-14.010626626801434 -16.958103910233913,-14.057128385684091 -17.16296634493106,-14.100323619929064 -17.36349164471377,-14.140370351466212 -17.55981441665554,-14.177417378821179 -17.7520638381564,-14.211604920204698 -17.940363910096192,-14.243065204043418 -18.124833697973568,-14.271923011890829 -18.305587561414974,-14.298296178131434 -18.482735372472813,-14.322296050427907 -18.656382723153772,-14.344027914453816 -18.826631122629948,-14.363591386091413 -18.993578184588205,-14.381080773955075 -19.15731780517295,-14.396585414816283 -19.317940331969268,-14.410189984253408 -19.475532724463715,-14.421974784624732 -19.630178706408355,-14.432016012262265 -19.781958910498197,-14.440386005604642 -19.93095101575757,-14.447153475827275 -20.07722987801471,-14.452383721383699 -20.220867653826875,-14.456138827743743 -20.361933918202006,-14.458477853497739 -20.500495776446595,-14.45945700389228 -20.636617970452498,-14.459129792768833 -20.770362979720407,-14.457547193792006 -20.901791117401213,-14.454757781777742 -21.030960621622956,-14.450807864862755 -21.157927742355472,-14.44574160819402 -21.28274682405191,-14.439601149760048 -21.405470384293082,-14.43242670893469 -21.44788343138282,-14.370768440785575 -21.40945451096463,-14.254209335061864 -21.369307211648525,-14.136101403395557 -21.32738574131428,-14.016411349893225 -21.28363190873896,-13.895104917090068 -21.23798499764849,-13.772146854196954 -21.190381632825357,-13.647500884377262 -21.140755637686354,-13.521129671054409 -21.089037882691866,-13.39299478325924 -21.03515612389557,-13.263056660032566 -20.979034830882078,-13.131274573908737 -20.920595003273675,-12.997606593516926 -20.859753974915435,-12.86200954534959 -20.796425204766976,-12.724438974763851 -20.730518053440996,-12.58484910629954 -20.661937544231556,-12.443192803419793 -20.590584107366883,-12.299421527805688 -20.516353306102374,-12.15348529836686 -20.439135543137848,-12.005332650165741 -20.358815745696255,-11.854910593495298 -20.275273027439717,-11.702164573399699 -20.188380325216656,-11.547038429986005 -20.098004008434547,-11.38947435994373 -20.00400345862843,-11.229412879770308 -19.906230616545393,-11.066792791297143 -19.80452949378639,-10.901551150223023 -19.69873564573511,-10.73362323849702 -19.588675602152833,-10.562942541550026 -19.4741662514264,-10.389440731563393 -19.35501417401444,-10.213047658185129 -19.23101492014046,-10.03369134836916 -19.10195222622023,-9.85129801732929 -18.967597163878967,-9.665792092975494 -18.932863104471807,-9.531518083657762 -18.983119309516123,-9.4405640705916 -19.032333675425445,-9.349093910968556 -19.080504962537606,-9.257112340656203 -19.12763178798519,-9.1646240097679 -19.173712624367404,-9.07163348596999 -19.21874579838629,-8.978145257757767 -19.262729489445512,-8.884163737703869 -19.305661728210616,-8.789693265681455 -19.347540395129027,-8.694738112065801 -19.388363218908733,-8.599302480916732 -19.42812777495391,-8.50339051314553 -19.466831483756376,-8.407006289668665 -19.50447160924111,-8.310153834552006 -19.541045257064773,-8.212837118147975 -19.576549372865372,-8.115060060229242 -19.610980740462054,-8.016826533121414 -19.644335980003085,-7.918140364838514 -19.67661154606092,-7.819005342223765 -19.707803725672576,-7.719425214099127 -19.737908636323933,-7.619403694426837 -19.76692222387632,-7.518944465486058 -19.79484026043381,-7.418051181067988 -19.821658342149654,-7.316727469692839 -19.84737188697024,-7.214976937851958 -19.871976132314803,-7.112803173278836 -19.895466132689315,-7.010209748252175 -19.91783675723277,-6.907200222935085 -19.93908268719411,-6.803778148753785 -19.959198413338022,-6.699947071819706 -19.97817823327773,-6.595710536399227 -19.99601624873299,-6.491072088434415 -20.012706362711285,-6.386035279119578 -20.02824227661039,-6.280603668537442 -20.042617487240207,-6.174780829359467 -20.055825283761905,-6.068570350614938 -20.067858744542264,-5.961975841533251 -20.07871073392114,-5.855000935464445 -20.08837389888985,-5.747649293882794 -20.096840665678208,-5.639924610478725 -20.104103236248076,-5.531830615344417 -20.110153584691048,-5.423371079258458 -20.114983453527795,-5.314549818075483 -20.318195581067435,-5.259453572492506 -21.232598953961453,-5.393471438710664 -22.053096262506365,-5.504666849342061 -22.79349020779856,-5.597149915652211 -23.465002499538745,-5.67414561939125 -24.076849895851307,-5.738216315184717 -24.63667274726718,-5.791420613563182 -25.150858223680636,-5.835428914306782 -25.62478719143276,-5.871608776908189 -26.063024962619323,-5.901088912949858 -26.469470249152586,-5.92480777580856 -26.74078051368169,-5.918964473876917 -26.784289499548088,-5.862252970567355 -26.827056712143435,-5.805496988772917 -26.8690906570785,-5.748698135325419 -26.910399631788636,-5.691857936080604 -26.950991730201764,-5.634977838773902 -26.99087484725651,-5.578059215765573 -27.03005668327538,-5.521103366679595 -27.06854474819759,-5.464111520941546 -27.106346365676355,-5.407084840219184 -27.143468677044876,-5.350024420770498 -27.179918645155233,-5.292931295702506 -27.21570305809423,-5.2358064371454205 -27.250828532780112,-5.178650758345 -27.285301518443877,-5.121465115676996 -27.319128299998635,-5.064250310586985 -27.352315001300724,-5.007007091458376 -27.384867588305482,-4.949736155412144 -27.416791872121323,-4.892438150040485 -27.448093511964736,-4.835113675077701 -27.4787780180194,-4.777763284010802 -27.50885075420211,-4.720387485631906 -27.538316940838275,-4.662986745535601 -27.567181657249538,-4.605561487562723 -27.595449844256024,-4.54811209519339 -27.6231263065956,-4.490638912891154 -27.65021571526247,-4.433142247400126 -27.676722609767328,-4.37562236899712 -27.702651400321102,-4.318079512701009 -27.72800636994439,-4.260513879440286 -27.752791676504597,-4.202925637181374 -27.77701135468247,-4.145314922018573 -27.800669317870085,-4.087681839227792 -27.8237693600017,-4.030026464285242 -27.763037605358935,-3.9597521262288873 -27.670207450741554,-3.8844029867179852 -27.574740304697734,-3.8082447953664316 -27.47654016347299,-3.731262579234141 -27.375506300255008,-3.653441135878365 -27.27153297365895,-3.5747650440565653 -27.164509114401344,-3.4952186769076103 -27.05431798823903,-3.4147862179732686 -26.940836833053034,-3.3334516804755734 -26.82393646773836,-3.2511989303246622 -26.703480870316348,-3.168011713402117 -26.57932672241302,-3.0838736877439343 -26.45132291693914,-2.998768461341065 -26.319310025464965,-2.9126796363826157 -26.183119721395485,-2.8255908608917792 -26.04257415461663,-2.7374858888508564 -25.897485272793347,-2.6483486500800386 -25.74765408394608,-2.5581633313349497 -25.592869854306638,-2.4669144703179526 -25.432909234745157,-2.3745870645718896 -25.267535308256456,-2.2811666975450207 -25.09649655007827,-2.186639684492497 -24.919525690974947,-2.090993241326596 -24.7363384730319,-1.9942156800555235 -24.546632285950565,-1.8962966350775323 -24.35008467028031,-1.7972273253450035 -24.14635167224209,-1.697000858304208 -23.9350660327524,-1.5956125825865801 -23.71583519089615,-1.4930604977112425 -23.488239079376992,-1.3893457306094035 -23.251827686324557,-1.284473090655625 -23.0061183541893,-1.178451717171367 -22.750592782216398,-1.0712958361445264 -22.484693694055537,-0.9630256463144838 -22.207821126301397,-0.853668358960656 -21.919328287024992,-0.7432594209099642 -21.905159684589478,-0.6433670705882066 -21.91515466517013,-0.5443089122182113 -21.924070033512606,-0.4452327924737801 -21.931907551881604,-0.3461425613850748 -21.93866882044813,-0.24704204221745585 -21.944355277825096,-0.14793503455336104 -21.94896820155257,-0.04882531734914906 -21.9525087085328,0.050283348030016856 z"
     id="path69"
     inkscape:connector-curvature="0"
     sodipodi:nodetypes="ccccccccccccccccccccccccccccccccccccccc" />
</svg>
